
<svg xmlns="http://www.w3.org/2000/svg"   width="100%" height="100%"    class="rootSVG id_80a1d8e61d4244b088e194d671aa8d27" viewBox="331.32366943359375 331.32366943359375 253.56414794921875 127.92799072265625"><defs class="svgDefs"></defs><text class="svgTextDescription" x="331.32366943359375" y="456.7160186767578" font-size="12.678207397460938px">&lt; this much water per person = absolute scarcity (UN)</text><g class="svgTranslatableG"><g class="svgHeightAxis" style=""><g><g class="svgMeasureAxisY" transform="translate(556.1065551757813 350)"><path class="svgMeasureY" d="m0,0 l  0,76.39999389648438" stroke="darkgrey"  stroke-width="1.22131103515625"></path><text id="svgYAxis_g1" fill="darkgrey" font-weight="bold" x="2.4426220703125px" y="38.19999694824219" font-size="9.159832763671874px">4.91m</text></g><g class="svgMeasureAxisX" transform="translate(350 432.5065490722656)"><path class="svgMeasureX" d="m0,0 l200,0" stroke="darkgrey"  stroke-width="1.22131103515625"></path><text id="svgXAxis_g1" fill="darkgrey" font-weight="bold" x="76.984375" y="9.159832763671874px" font-size="9.159832763671874px">12.8m</text></g></g></g><g class="svgVisualisationG"><g id="g1" style="display: none;">
      <path id="faceBack" class="face faceBack" d="M331.3236627379873,331.3236627379873L512.6473254759746,331.3236627379873L512.6473254759746,400.58930190389844L331.3236627379873,400.58930190389844Z" threeD="true" fill="rgb(28, 0, 142)">
        </path>
      <path id="faceBottom" class="face faceBottom" d="M350,426.4L550,426.4L512.6473254759746,400.58930190389844L331.3236627379873,400.58930190389844Z" threeD="true" fill="rgb(18, 0, 91)">
        </path>
      <path id="faceRight" class="face faceRight" d="M550,350L512.6473254759746,331.3236627379873L512.6473254759746,400.58930190389844L550,426.4Z" threeD="true" fill="rgb(8, 0, 40)">
        </path>      
      <path id="faceLeft" class="face faceLeft" d="M350,350L331.3236627379873,331.3236627379873L331.3236627379873,400.58930190389844L350,426.4Z" threeD="true" fill="rgb(8, 0, 40)">
        </path>
      <path id="faceTop" class="face faceTop" d="M350,350L550,350L512.6473254759746,331.3236627379873L331.3236627379873,331.3236627379873Z" threeD="true" fill="rgb(18, 0, 91)">
        </path>
     <path id="faceFront" class="face faceFront" d="M350,350L550,350L550,426.4L350,426.4Z" threeD="true" fill="rgb(28, 0, 142)">
        </path>
	</g><g id="g1">
      
      
            
      
      
     <path id="faceBack" class="face faceBack" d="M331.3236627379873,331.3236627379873L512.6473254759746,331.3236627379873L512.6473254759746,400.58930190389844L331.3236627379873,400.58930190389844Z" threeD="true" fill="rgb(28, 0, 142)">
        </path><path id="faceBottom" class="face faceBottom" d="M350,426.4L550,426.4L512.6473254759746,400.58930190389844L331.3236627379873,400.58930190389844Z" threeD="true" fill="rgb(18, 0, 91)">
        </path><path id="faceRight" class="face faceRight" d="M550,350L512.6473254759746,331.3236627379873L512.6473254759746,400.58930190389844L550,426.4Z" threeD="true" fill="rgb(8, 0, 40)">
        </path><path id="faceFront" class="face faceFront" d="M350,350L550,350L550,426.4L350,426.4Z" threeD="true" fill="rgb(28, 0, 142)">
        </path><path id="faceTop" class="face faceTop" d="M350,350L550,350L512.6473254759746,331.3236627379873L331.3236627379873,331.3236627379873Z" threeD="true" fill="rgb(18, 0, 91)">
        </path><path id="faceLeft" class="face faceLeft" d="M350,350L331.3236627379873,331.3236627379873L331.3236627379873,400.58930190389844L350,426.4Z" threeD="true" fill="rgb(8, 0, 40)">
        </path>
	</g></g><g class="svgReferenceGContainer"><g transform="translate(130.94034694028448 194.54350030642283) scale(0.027027600514630986)" id="layer1">
    <path d="M7745.034178138399,8173.899838138399C7757.536148138399,8170.490208138399,7769.469838138399,8170.490208138399,7774.584268138398,8176.172918138399,7779.698718138398,8181.855628138399,7781.971798138398,8202.313408138398,7797.3151081383985,8201.745118138399,7812.658428138398,8201.176838138399,7822.887308138399,8188.106608138399,7839.935438138398,8192.6527681384,7856.983568138398,8197.198938138397,7881.987478138399,8209.700918138398,7924.039538138399,8207.4278181384,7966.091578138398,8205.154738138399,8028.601388138399,8170.490208138399,8039.966808138399,8176.172918138399,8051.332228138399,8181.855628138399,8052.468758138399,8189.811428138399,8058.151468138399,8186.401798138399,8063.834178138399,8182.992178138398,8069.516888138399,8166.512308138399,8069.516888138399,8166.512308138399,8069.516888138399,8166.512308138399,8019.509058138398,8021.603218138399,8021.213858138399,7984.097338138398,8022.918678138399,7946.591458138399,8005.870548138399,7856.804648138399,8005.870548138399,7856.804648138399,8005.870548138399,7856.804648138399,7851.869128138399,7864.192178138399,7851.869128138399,7866.465258138399,7851.869128138399,7868.738338138399,7799.588198138399,8094.341898138398,7745.034178138399,8173.899838138399z" id="path3389" style="fill:#cc0000;stroke:none"></path>
    <path d="M7859.824918138399,7814.7526081383985C7850.732578138399,7863.055628138399,7806.5401581383985,8071.144378138399,7730.827408138399,8169.921938138399,7720.730668138399,8183.094518138399,7739.351468138399,8209.700918138398,7739.351468138399,8209.700918138398,7739.351468138399,8209.700918138398,7855.847018138398,7967.049208138399,7859.824918138399,7814.7526081383985z" id="path3387" style="fill:#a40000;stroke:none"></path>
    <path d="M8064.970728138399,8236.977908138399C8067.812078138399,8190.379708138398,8062.697638138398,8156.851708138399,8043.944698138399,8113.663118138398,8025.191758138399,8070.4745281383985,8013.826348138398,7981.255988138399,8014.394608138398,7945.454918138398,8014.962878138399,7909.653848138399,8022.350408138399,7893.742268138399,8022.350408138399,7893.742268138399,8022.350408138399,7893.742268138399,8026.328298138398,7939.203938138398,8033.147548138399,7980.119448138398,8039.966808138399,8021.034958138399,8091.111188138399,8152.873808138398,8089.974638138398,8182.992178138398,8088.838108138399,8213.110528138399,8064.970728138399,8236.977908138399,8064.970728138399,8236.977908138399z" id="path3391" style="fill:#a40000;stroke:none"></path>
    <path d="M7860.572468138399,7739.160048138398C7860.572468138399,7739.160048138398,7866.800818138398,7775.123668138399,7899.750718138399,7751.013978138399,7932.700638138399,7726.904278138399,7934.709778138398,7787.982178138399,7934.709778138398,7787.982178138399,7934.709778138398,7787.982178138399,7928.636058138399,7797.5386481383985,7914.941158138398,7800.757448138399,7906.689438138399,7802.696918138398,7897.741588138399,7800.639758138399,7897.741588138399,7800.639758138399,7897.741588138399,7800.639758138399,7906.782718138398,7797.626058138399,7908.992768138399,7789.388578138399,7899.750718138399,7797.626058138399,7889.705018138398,7793.607768138399,7889.705018138398,7793.607768138399,7889.705018138398,7793.607768138399,7903.367178138398,7787.982178138399,7904.5726681383985,7777.936468138399,7899.549818138398,7781.954748138399,7885.887648138399,7793.005028138398,7865.595328138399,7775.324588138398,7879.659318138399,7777.534638138399,7886.289478138398,7770.301728138398,7886.289478138398,7770.301728138398,7886.289478138398,7770.301728138398,7858.161498138398,7768.694418138399,7860.572468138398,7739.160048138398z" id="path3334" style="fill:#edd400;stroke:none"></path>
    <path d="M7931.997108138398,7780.093168138399C7931.997108138398,7780.093168138399,7927.4413681383985,7802.118258138398,7920.809268138399,7817.609718138398,7893.998378138399,7813.4520981383985,7863.274118138399,7808.830038138399,7850.164308138399,7814.750598138398,7832.547908138398,7822.706388138398,7774.225878138399,7917.107188138399,7744.750048138399,7963.921718138398,7739.919738138398,7971.593378138398,7788.2209981383985,8024.447898138398,7788.2209981383985,8024.447898138398L7806.979268138399,8012.514208138398,7787.649178138398,7963.076418138398C7787.649178138398,7963.076418138398,7821.186048138398,7930.6778681383985,7830.846658138398,7918.175908138399,7840.507258138398,7905.673948138398,7853.0109981383985,7894.308538138399,7853.0109981383985,7894.308538138399,7853.0109981383985,7894.308538138399,7872.759478138399,7953.296548138398,7868.350758138398,7982.394078138399,7859.826698138399,8038.652908138399,7841.6419381383985,8032.404078138398,7831.977868138399,8119.917418138399,7821.802258138398,8212.063028138398,7895.054168138398,8308.016898138398,7905.283038138398,8348.932348138398,7915.511918138399,8389.847898138398,7916.085508138399,8413.138078138398,7916.085508138399,8413.138078138398L7980.863068138398,8406.885408138398C7980.863068138398,8406.885408138398,7976.894058138399,8365.401598138398,7984.281578138399,8339.261098138399,7991.669098138399,8313.120698138398,8035.415318138399,8171.628308138399,8022.345078138399,8109.686768138398,8009.274848138399,8047.7452281383985,7993.331408138399,8028.301718138398,8001.324378138399,7995.458988138398,8008.437288138399,7966.232388138398,8015.197298138399,7959.8940981383985,8015.197298138399,7959.8940981383985,8015.197298138399,7959.8940981383985,8039.400318138399,7947.722448138398,8029.171428138398,7917.035818138398L8066.109048138399,7967.045438138399,8050.190358138399,8007.678578138399C8050.190358138399,8007.678578138399,8068.669818138398,8010.811178138399,8069.806348138399,8010.811178138399,8070.942898138399,8010.811178138399,8105.035608138399,7979.263258138399,8105.035608138399,7975.569498138399,8105.035608138399,7971.875738138398,8078.085498138398,7922.778128138399,8074.0577281383985,7905.9563081383985,8064.397128138398,7865.609078138398,8071.885788138398,7849.718868138399,8037.137888138399,7838.506098138399,8021.812028138398,7833.560618138398,7995.239508138398,7828.772548138399,7974.759488138398,7825.503348138399,7974.234978138398,7810.089308138398,7975.753968138399,7790.883218138399,7975.753968138399,7790.883218138399z" id="path3338" style="fill:#729fcf;stroke:none"></path>
    <path d="M8018.656648138399,7790.601088138399C8018.656648138399,7790.601088138399,7995.357538138399,7790.601088138399,7990.243098138399,7770.995738138398,7985.128658138398,7751.3903881383985,7967.2281281383985,7795.147258138399,7967.2281281383985,7795.147258138399,7967.2281281383985,7795.147258138399,7966.892678138399,7807.775888138399,7980.5824981383985,7812.763658138399,7986.156958138398,7814.794668138398,7997.346478138399,7812.763658138399,7997.346478138399,7812.763658138399,7997.346478138399,7812.763658138399,7984.276258138399,7810.490568138399,7984.560388138399,7799.125158138399,7995.073398138398,7805.091998138399,8002.1767881383985,7805.091998138399,8002.1767881383985,7805.091998138399,8002.1767881383985,7805.091998138399,7993.904518138399,7801.447368138399,7992.800318138398,7791.737628138399,8002.141478138398,7797.811288138399,8010.495988138398,7793.707508138398,8018.656648138399,7790.601088138399z" id="path3336" style="fill:#edd400;stroke:none"></path>
    <path d="M8029.169648138399,7715.873458138399C8024.623488138399,7749.969718138399,8008.178098138398,7766.518518138399,7982.605908138398,7788.681078138398,7964.381418138399,7804.475638138399,7953.287958138399,7798.895188138398,7944.497288138398,7793.7265781383985C7852.186338138398,7739.451008138399,7855.747118138399,7596.648377138398,7953.589618138399,7591.9903951383985,8049.544988138398,7587.422258138398,8039.966808138399,7698.257058138399,8029.169648138399,7715.873458138399z" id="path3260" style="fill:#e9b96e;stroke:none"></path>
    <path d="M7954.399358138398,8114.869438138398C7940.3353781383985,8132.549888138398,7923.056758138398,8155.855928138399,7926.271388138399,8200.860668138399,7929.486018138398,8245.865448138398,7945.157308138399,8331.053048138398,7945.157308138399,8331.053048138398,7945.157308138399,8331.053048138398,7934.709778138398,8354.359088138399,7944.353658138399,8386.103538138399" id="path3340" style="fill:none;stroke:#3465a4;stroke-width:2.38673782;stroke-linecap:round;stroke-linejoin:miter;stroke-miterlimit:4;stroke-opacity:1;stroke-dasharray:none"></path>
    <path d="M7899.348908138399,8117.682248138399C7904.862438138399,8128.956108138398,7917.073688138398,8144.963068138399,7930.088758138399,8157.865058138399" id="path3342" style="fill:none;stroke:#3465a4;stroke-width:2.38673782;stroke-linecap:round;stroke-linejoin:miter;stroke-miterlimit:4;stroke-opacity:1;stroke-dasharray:none"></path>
    <path d="M7903.5817781383985,8379.6138981384C7903.5817781383985,8379.6138981384,7920.061638138399,8376.204308138398,7945.065558138399,8383.591828138398,7968.364668138399,8444.680948138399,7956.715108138398,8504.349388138398,7956.715108138398,8504.349388138398,7956.715108138398,8504.349388138398,7941.247108138398,8532.029098138399,7927.449158138399,8538.1614981384,7901.876958138399,8549.526958138398,7876.873048138399,8547.2538681384,7876.873048138399,8547.2538681384,7876.873048138399,8547.2538681384,7928.869838138398,8513.157588138398,7931.711198138399,8495.257028138398,7934.069878138399,8480.397368138398,7903.5817781383985,8379.6138981384,7903.5817781383985,8379.6138981384z" id="path3346" style="fill:#a40000;stroke:#cc0000;stroke-width:2.38673782;stroke-linecap:round;stroke-linejoin:round;stroke-miterlimit:4;stroke-opacity:1;stroke-dasharray:none"></path>
    <path d="M7938.814578138398,8373.3628781384C7954.053688138399,8364.895588138399,7972.476418138399,8361.206968138398,7987.970008138399,8361.713428138399,7987.970008138399,8361.713428138399,7980.794648138399,8458.9591581384,7985.981058138399,8498.950788138398,7991.3342981383985,8540.228798138398,8030.306198138399,8578.508738138398,8030.306198138399,8578.508738138398,8030.306198138399,8578.508738138398,7979.161818138398,8566.433038138399,7968.364668138399,8539.582168138399,7962.113688138398,8548.1061981384,7963.108158138399,8566.148838138399,7963.108158138399,8566.148838138399,7963.108158138399,8566.148838138399,7950.606198138398,8528.0747181384,7955.152368138399,8507.0486481384,7959.698538138398,8486.0226681384,7951.120968138399,8440.204888138398,7945.633828138399,8418.256358138398,7938.814578138398,8390.979358138398,7938.814578138398,8373.3628781384,7938.814578138398,8373.3628781384z" id="path3344" style="fill:#a40000;stroke:#cc0000;stroke-width:2.38673782;stroke-linecap:round;stroke-linejoin:round;stroke-miterlimit:4;stroke-opacity:1;stroke-dasharray:none"></path>
    <path d="M7799.019928138398,7980.687728138399,7758.388548138399,8008.532998138398C7758.388548138399,8008.532998138398,7800.440598138399,8044.618198138399,7808.964668138398,8053.710538138399,7816.834498138399,8062.105038138398,7832.263778138398,8080.703408138399,7836.241668138398,8078.146178138399,7840.219568138398,8075.588968138399,7839.935438138398,8070.190388138399,7839.935438138398,8070.190388138399,7839.935438138398,8070.190388138399,7847.269768138399,8076.305228138399,7860.9614581383985,8080.135128138399,7864.9560581383985,8081.252528138399,7872.211848138399,8082.968768138398,7872.753088138398,8080.845468138399,7873.457338138399,8078.082598138399,7859.158098138399,8074.130328138399,7854.297618138398,8063.968218138399,7854.831338138399,8063.926518138399,7859.919418138398,8066.447218138399,7875.594438138399,8069.480058138399,7887.547038138398,8071.686838138398,7886.1074481383985,8066.212498138399,7886.1074481383985,8066.212498138399,7886.1074481383985,8066.212498138399,7882.5749381383985,8065.6808181383985,7871.900668138399,8059.393248138399,7861.529728138398,8053.284328138398,7855.136688138398,8045.186478138398,7855.136688138398,8045.186478138398,7855.136688138398,8045.186478138398,7878.009588138399,8053.142258138399,7887.101918138399,8052.573988138399,7896.194258138398,8052.005718138399,7884.828838138399,8048.454028138399,7884.828838138399,8048.454028138399,7884.828838138399,8048.454028138399,7876.588748138399,8044.795498138399,7864.655218138399,8035.241728138399,7855.210398138399,8027.680368138399,7852.117648138398,8024.615218138399,7849.027768138399,8029.559018138399,7839.083028138399,8045.470598138399,7826.581068138398,8050.016778138399,7826.581068138398,8050.016778138399z" id="path3348" style="fill:#a40000;stroke:#cc0000;stroke-width:2.38673782;stroke-linecap:butt;stroke-linejoin:miter;stroke-miterlimit:4;stroke-opacity:1;stroke-dasharray:none"></path>
    <path d="M8021.102848138398,8049.371438138399C8021.102848138398,8049.371438138399,8014.673608138399,8047.7641281383985,8011.860808138399,8040.933048138399,8009.943778138399,8036.277388138398,8007.127618138398,8027.738268138399,8005.029728138398,8030.485518138398,7996.591328138398,8041.535788138399,7980.920038138399,8052.1842381383985,7975.696258138399,8056.604348138399,7970.472498138399,8061.024458138399,7978.910888138399,8061.225378138399,7978.910888138399,8061.225378138399,7978.910888138399,8061.225378138399,7972.382818138399,8065.521848138398,7973.486208138399,8068.659198138399,7975.125118138399,8073.319238138399,7998.198648138398,8063.033608138398,7998.198648138398,8063.033608138398,7998.198648138398,8063.033608138398,7979.714548138399,8076.093018138398,7981.1209481383985,8079.307648138399,7982.152238138398,8081.664878138398,8011.860798138398,8068.257368138398,8011.860798138398,8068.257368138398L8014.271778138399,8076.293928138399C8014.271778138399,8076.293928138399,8023.111988138398,8073.481138138399,8032.354038138399,8067.051878138399,8041.596098138399,8060.6226381383985,8083.788058138399,8014.814218138398,8083.788058138399,8014.814218138398L8053.6509381383985,7992.713658138398C8044.347958138399,8015.852138138399,8037.244438138398,8031.979698138399,8021.102848138398,8049.371438138399z" id="path3350" style="fill:#a40000;stroke:#cc0000;stroke-width:2.38673782;stroke-linecap:butt;stroke-linejoin:miter;stroke-miterlimit:4;stroke-opacity:1;stroke-dasharray:none"></path>
    <path d="M7978.709978138399,8061.426288138398C7988.755688138399,8053.992458138398,8005.833378138399,8043.946758138399,8005.833378138399,8043.946758138399" id="path3352" style="fill:none;stroke:#cc0000;stroke-width:2.38673782;stroke-linecap:butt;stroke-linejoin:miter;stroke-miterlimit:4;stroke-opacity:1;stroke-dasharray:none"></path>
    <path d="M7869.059318138398,7811.941208138399C7861.264468138399,7811.932208138399,7854.670808138399,7812.715408138399,7850.164308138399,7814.750598138398,7843.0419581383985,7817.967148138398,7829.264298138399,7835.3161881383985,7813.430918138399,7857.935638138399,7834.794528138398,7857.918238138399,7876.760768138399,7857.046728138399,7893.6476981383985,7813.7312581383985,7884.8679581383985,7812.6741581383985,7876.422228138399,7811.949928138399,7869.059318138398,7811.941208138399z" id="path3357" style="fill:#204a87;stroke:none"></path>
    <path d="M8021.176568138399,7834.229858138398C8023.148068138398,7854.1768581383985,8029.095528138399,7888.083838138398,8072.1060781383985,7897.018468138399,8065.318718138398,7863.1893881383985,8069.191158138398,7848.849338138399,8037.137888138399,7838.506098138399,8032.6436281383985,7837.055848138399,8027.167848138399,7835.618698138399,8021.176568138399,7834.229858138398z" id="path3362" style="fill:#204a87;stroke:none"></path>
    <path d="M7960.165578138399,7591.851647138398C7958.031228138399,7591.834597138399,7955.838578138399,7591.881347138398,7953.589618138399,7591.9883881383985,7866.121868138399,7596.152462138399,7854.009778138398,7710.715588138399,7918.372798138398,7773.7409781383985,7909.684988138399,7753.512668138399,7900.724768138399,7724.533488138399,7899.030288138399,7699.963418138399L7899.564808138399,7699.938618138399C7900.255048138399,7679.7618981383985,7915.786288138399,7661.3138481383985,7938.249858138399,7661.067108138399,7940.611078138399,7661.041208138398,7943.054088138399,7661.206088138399,7945.5592381383985,7661.601638138399,7970.765438138398,7665.581558138399,7976.897608138399,7688.527028138398,7976.897608138399,7688.527028138398,7976.897608138399,7688.527028138398,7985.028518138399,7669.071978138399,8017.882378138398,7672.056048138398,8025.4477781383985,7672.743198138399,8031.643248138398,7677.501808138399,8035.633738138398,7684.375098138398,8037.162328138398,7647.118270138399,8023.968528138398,7592.360902138398,7960.165578138399,7591.851705138399z" id="path3368" style="fill:#a40000;stroke:none"></path>
    <path d="M7958.549558138398,7591.851647138398C7956.927028138399,7591.862647138399,7955.276338138398,7591.908117138399,7953.589618138399,7591.9883881383985,7947.098448138398,7592.297410138399,7941.026568138399,7593.214594138399,7935.365888138399,7594.673472138398,7946.9204881383985,7606.9172831383985,7958.376518138399,7627.3629421383985,7956.187688138399,7664.771458138399,7972.558798138399,7672.299938138399,7976.897608138399,7688.526968138399,7976.897608138399,7688.526968138399,7976.897608138399,7688.526968138399,7982.009968138399,7676.289888138399,8000.516368138398,7672.714828138399,8003.362118138399,7656.782228138399,8006.100358138398,7622.832333138399,7985.561968138399,7595.493910138399,7978.152898138399,7593.222505138398,7969.726988138398,7591.927960138399,7960.165578138399,7591.851647138398,7959.631988138399,7591.847047138399,7959.090398138399,7591.847947138399,7958.549558138398,7591.851647138398z" id="path3376" style="fill:#729fcf;stroke:none"></path>
    <path d="M7985.696928138399,7948.5804081383985C7989.816888138399,7954.263118138399,7998.198898138398,7963.497528138399,8015.247018138399,7959.945828138399" id="path3381" style="fill:none;stroke:#3465a4;stroke-width:1.98894835;stroke-linecap:round;stroke-linejoin:miter;stroke-miterlimit:4;stroke-opacity:1;stroke-dasharray:none"></path>
    <path d="M7885.965378138399,7933.521228138398C7894.631518138399,7942.329428138399,7912.532048138399,7953.552778138399,7942.792468138398,7943.323898138398" id="path3385" style="fill:none;stroke:#3465a4;stroke-width:1.98894835;stroke-linecap:round;stroke-linejoin:miter;stroke-miterlimit:4;stroke-opacity:1;stroke-dasharray:none"></path>
    <path d="M7952.453078138398,7922.439938138398C7941.322248138398,7933.966148138398,7940.717408138398,7948.341108138398,7954.726158138398,7951.421768138399,7971.910688138399,7955.200788138399,7999.754568138399,7941.086078138399,7985.981058138399,7906.812498138399,7973.763238138398,7876.409998138399,7926.596748138399,7882.376848138399,7912.105848138399,7908.801448138399,7894.089908138399,7941.654018138399,7900.111198138398,7979.584888138399,7922.334718138399,8012.510898138398,7944.137708138399,8044.813858138398,7977.456998138398,8049.7326281383985,7977.456998138398,8049.7326281383985,7977.456998138398,8049.7326281383985,7930.700928138399,8047.603698138399,7908.980348138399,8028.138348138398,7885.169008138399,8006.799308138398,7847.867948138399,7931.5175481383985,7896.194258138398,7879.819628138399,7932.847728138398,7840.608928138398,8014.394608138398,7851.406088138398,8019.224908138399,7913.063478138399,8023.048288138399,7961.867768138399,7989.974908138399,7981.820968138399,7961.829548138398,7980.403578138398,7922.334718138399,7978.414628138398,7918.925088138399,7929.2591981383985,7952.453078138398,7922.439938138398z" id="path3393" style="fill:#a40000;stroke:none"></path>
    <path d="M7913.2139781383985,7688.328078138398C7913.2139781383985,7688.328078138398,7911.323368138399,7693.919718138399,7916.334138138399,7697.924748138398,7914.060998138399,7699.748028138399,7913.401998138399,7701.539128138398,7915.4266781383985,7702.188548138399,7918.239478138398,7703.394008138399,7916.846028138399,7700.166378138399,7928.541308138399,7698.409558138399,7944.412978138398,7696.025368138398,7949.407828138398,7712.833238138399,7951.6006781383985,7716.608438138399,7953.670598138398,7720.1719981383985,7955.295428138398,7720.555608138398,7955.516408138398,7718.5476481383985,7953.676398138398,7702.899258138398,7946.937358138399,7694.947588138399,7930.691858138399,7692.952378138399,7927.793458138399,7692.596408138399,7925.060638138399,7689.136088138399,7925.060638138399,7689.136088138399,7925.060638138399,7689.136088138399,7924.062438138399,7691.639358138398,7925.669758138399,7693.648508138399,7922.856958138399,7693.146218138399,7921.046148138399,7691.7459481383985,7919.740208138399,7689.334978138399,7919.2379181383985,7691.444568138399,7919.444198138399,7693.054478138399,7920.448768138399,7695.264528138398,7916.159978138398,7694.331528138398,7913.2139781383985,7688.328078138398,7913.2139781383985,7688.328078138398zM8006.818848138399,7699.093258138399C8006.224608138398,7699.105258138398,8005.627438138398,7699.152158138399,8005.016358138399,7699.254858138399,7994.098468138399,7701.091238138399,7989.390688138398,7710.479988138399,7989.390688138398,7718.435778138399,7993.226518138398,7718.861978138399,7991.211118138399,7713.528688138398,7995.357538138399,7708.055958138399,8000.396068138399,7701.405758138399,8010.592248138399,7702.075288138399,8015.669668138398,7705.507608138399,8018.734838138399,7707.579658138398,8021.055718138398,7710.019308138399,8022.494248138399,7712.531088138398,8023.407928138398,7714.126418138399,8025.947348138398,7713.231508138399,8025.403088138399,7711.499318138399,8027.241238138398,7710.199158138398,8029.813608138399,7708.513088138398,8030.052248138399,7705.967558138399,8027.139868138399,7706.997548138399,8025.115398138399,7707.4201981383985,8023.339548138399,7707.1360681383985,8026.5715881383985,7706.709868138399,8028.072188138399,7704.005248138398,8028.001148138399,7701.803198138398,8025.585998138398,7704.005248138398,8022.922228138399,7703.687368138399,8020.542598138399,7702.834968138399,8022.602578138399,7702.763968138399,8023.588168138399,7701.273998138398,8024.085408138399,7699.142978138399,8017.632258138398,7702.543318138399,8012.563158138399,7698.9767581383985,8006.818848138399,7699.093278138399z" id="path3395" style="fill:#2e3436;stroke:none"></path>
    <path d="M7976.901748138399,7688.529678138399C7976.901748138399,7688.529678138399,7970.765348138399,7665.587118138398,7945.559148138399,7661.607188138399,7892.115988138398,7653.168808138398,7869.333688138398,7744.998308138399,7966.454218138399,7751.214888138398,8058.007278138399,7757.075108138399,8051.2190181383985,7675.082118138399,8017.8882281383985,7672.054718138399,7985.034368138398,7669.070658138398,7976.901748138399,7688.529678138399,7976.901748138399,7688.529678138399z" id="path3262" style="opacity:0.6;fill:#2e3436;stroke:none"></path>
    <path d="M7944.253198138398,7772.411328138399C7944.253198138398,7772.411328138399,7945.676738138399,7789.7881781383985,7956.810328138398,7791.699088138399,7966.2698181383985,7793.322658138399,7974.178878138398,7789.320568138399,7974.892608138399,7778.338298138398,7975.372728138399,7770.950698138398,7944.253198138399,7772.411328138399,7944.253198138399,7772.411328138399z" id="path3410" style="fill:#ef2929;stroke:none"></path>
    <path d="M7943.951828138399,7772.109958138399C7943.951828138399,7772.109958138399,7952.892518138398,7764.877048138399,7957.714458138398,7763.6715681383985,7962.536388138398,7762.466078138398,7962.235018138399,7767.790298138399,7963.239588138398,7771.004928138399,7964.244158138398,7774.2195581383985,7964.746448138399,7773.014078138399,7970.874328138399,7767.187568138399,7973.757118138398,7764.446548138399,7976.7008381383985,7767.218668138398,7977.805858138398,7771.909048138398,7978.450878138398,7774.646888138399,7979.212258138398,7777.534638138399,7979.212258138398,7777.534638138399,7979.212258138398,7777.534638138399,7963.842328138398,7781.753838138398,7943.951828138399,7772.109958138399z" id="path3408" style="fill:#cc0000;stroke:none"></path>
    <path d="M7979.312718138399,7777.534638138399C7972.481638138399,7778.338298138398,7958.317188138399,7781.151098138399,7936.819378138399,7768.393048138399" id="path3412" style="fill:none;stroke:#a40000;stroke-width:2.38673782;stroke-linecap:round;stroke-linejoin:miter;stroke-miterlimit:4;stroke-opacity:1;stroke-dasharray:none"></path>
    <path d="M8029.169648138399,7917.325508138399C8025.902098138398,7909.511778138399,8029.879998138398,7895.447078138399,8030.732398138399,7891.327118138399" id="path3383" style="fill:none;stroke:#3465a4;stroke-width:1.98894835;stroke-linecap:round;stroke-linejoin:miter;stroke-miterlimit:4;stroke-opacity:1;stroke-dasharray:none"></path>
  </g></g></g></svg>
