
<svg xmlns="http://www.w3.org/2000/svg"   width="100%" height="100%"    class="rootSVG id_67c74227a9f4426f9f3ac7a1d3c9a14a" viewBox="241.7835693359375 239.61077880859375 92.8170166015625 47.93514038085937"><defs class="svgDefs"><defs id="defs2449">
    <filter id="filter3587" height="1.2199417" y="-0.10997086" width="1.0283011" x="-0.014150559" color-interpolation-filters="sRGB">
      <feGaussianBlur id="feGaussianBlur3589" stdDeviation="2.0410432" collect="always"></feGaussianBlur>
    </filter>
  </defs></defs><text class="svgTextDescription" x="241.7835693359375" y="286.6177490234375" font-size="4.640850830078125px">Click to Enter Text</text><g class="svgTranslatableG"><g class="svgHeightAxis" style="display: none;"><g><g class="svgMeasureAxisY" transform="translate(336.92101135253904 250.7218780517578)"><path class="svgMeasureY" d="m0,0 l  0,31.254989624023438" stroke="darkgrey"  stroke-width="0.4640850830078125"></path><text id="svgYAxis_person" fill="darkgrey" font-weight="bold" x="0.928170166015625px" y="15.627494812011719" font-size="3.4806381225585934px">1.72m</text></g><g class="svgMeasureAxisX" transform="translate(254.6112823486328 284.2972930908203)"><path class="svgMeasureX" d="m0,0 l79.98930358886719,0" stroke="darkgrey"  stroke-width="0.4640850830078125"></path><text id="svgXAxis_person" fill="darkgrey" font-weight="bold" x="16.979026794433594" y="3.4806381225585934px" font-size="3.4806381225585934px">4.40m</text></g></g></g><g class="svgVisualisationG"><g id="person" style="display: none;" svgHUD_initial_transform="translate(0 0)" transform="translate(0.2261699436074502 -0.38856817093674445)">
    <path style="fill: rgb(186, 178, 116);" d="M260.97389,281.53055L262.75949,266.70886L262.5179,260.12658L256.528579,271.98665L255.18769700000001,272.16703L261.09148,258.523736L264.68354,257.594936L264.68354,256.481013C263.14282000000003,255.53303,263.13849,254.577796,263.16456,253.34177499999998C263.18821,252.31201900000002,263.65558,250.875204,265.18987,250.911393C266.5781,250.856159,267.11774,252.456894,267.11393,253.544304C267.20968,255.218296,266.89769,255.646996,266,256.37975L265.79747,257.594936L268.4289,258.257515L274.60058000000004,272.89167L273.46756,272.91643999999997L267.72152,260.43038L267.82277999999997,267.01265L269.08362999999997,281.00578L268.2735,281.00578L265.18987,269.03797L262.08781,281.53055L260.97389,281.53055z" id="path562" nodetypes="ccccccccssscccccccccccc" initial_fill_path="rgb(209, 186, 163)" initial_fill_group="rgb(181, 177, 114)"></path>
  
    <path style="fill: rgb(38, 1, 204);" d="M262.98999000000003,280.03907000000004L260.95545,279.57883000000004L262.81448,267.01266L267.92406,267.01265L269.94907,280.35222999999996L267.30692999999997,280.39818L265.37796000000003,270.36313L262.98999000000003,280.03907000000004z" id="path563" nodetypes="cccccccc" initial_fill_path="rgb(28, 0, 185)" initial_fill_group="rgb(33, 0, 202)"></path>
    <path style="fill: rgb(227, 256, 201);" d="M262.27058,267.83149000000003L268.01661,267.83149000000003L268.03402,261.21737L272.37975,270.75949L274,270.55696L268.93671,257.898736L266.60759,257.291141L265.03362,258.746443L263.97468000000003,257.189872L260.93671,258.30379700000003L256.07595000000003,269.5443L257.594936,270.4557L262.16634,260.99169L262.27058,267.83149000000003z" id="path564" nodetypes="cccccccccccccc" initial_fill_path="rgb(223, 229, 255)" initial_fill_group="rgb(222, 255, 199)"></path>
    <path style="fill: rgb(37, 1, 2);" d="M263.09055,281.91466L258.48434,281.93057L258.578287,281.20654L261.64099,279.77937L262.99649999999997,280.27648L263.09055,281.91466zM267.62013,280.21628L269.14061,279.83436L271.28099,281.06186L271.46824000000004,281.97686999999996L267.36984,281.95372L267.62013,280.21628z" id="path569" nodetypes="cccccccccccc" initial_fill_path="rgb(0, 0, 0)" initial_fill_group="rgb(32, 0, 0)"></path>
    <path style="fill: rgb(108, 78, 33);" d="M263.31359,251.495848C263.26588,250.897715,264.36375,250.812118,264.90921000000003,250.81883C265.61751,250.82754599999998,267.1449,250.824232,267.07486,251.542127C267.00494000000003,252.258701,267.15719,253.590565,266.9823,253.57466499999998C266.78588,253.556809,266.92638999999997,251.995878,266.50781,251.71429899999998C265.95516,251.304264,264.12021,251.370139,263.7403,251.769285C263.29818,252.27926300000001,263.64288999999997,253.38150000000002,263.39023,253.39675699999998C263.05336,253.414373,263.36518,252.142506,263.31359,251.495848z" id="path570" nodetypes="csssssss" initial_fill_path="rgb(106, 94, 83)" initial_fill_group="rgb(103, 77, 31)"></path>
    <path style="fill: rgb(188, 180, 71);" d="M264.02343,253.054688C264.01304,252.96112499999998,264.26245,252.80343299999998,264.375,252.820313C264.52288,252.84249499999999,264.79095,253.048229,264.80468,253.171875C264.81699000000003,253.282604,264.56739,253.54057799999998,264.45312,253.523438C264.30697,253.50151499999998,264.03909,253.19549999999998,264.02343,253.054688z" id="path571" nodetypes="cssss" initial_fill_path="rgb(165, 139, 115)" initial_fill_group="rgb(183, 179, 69)"></path>
    <path style="fill: rgb(177, 143, 143);" d="M265.5078,253.054688C265.49742000000003,252.96112499999998,265.74682,252.80343299999998,265.85938,252.820313C266.00726,252.84249499999999,266.27531999999997,253.048229,266.28906,253.171875C266.30137,253.282604,266.05176,253.54057799999998,265.9375,253.523438C265.79134,253.50151499999998,265.52346,253.19549999999998,265.5078,253.054688z" id="path572" nodetypes="cssss" initial_fill_path="rgb(165, 139, 115)" initial_fill_group="rgb(172, 142, 141)"></path>
    <path style="fill: rgb(238, 225, 159);" d="M264.80468,254.03125C264.88436,253.895566,265.00463,253.11593299999998,265.11719,253.132813C265.26507,253.15499499999999,265.45501,253.907604,265.46875,254.03125C265.48106,254.141979,265.27051,254.51713999999998,265.15625,254.5C265.01009,254.47807799999998,264.74226,254.23969,264.80468,254.03125z" id="path573" nodetypes="cssss" initial_fill_path="rgb(233, 199, 169)" initial_fill_group="rgb(233, 224, 157)"></path>
    <path style="fill: rgb(216, 135, 90);" d="M264.64842,255.28125C264.63805,255.18768799999998,265.01074,255.358155,265.23438,255.28125C265.4855,255.17661800000002,265.76751,255.196667,265.78124,255.320313C265.79355,255.431042,265.34864,255.72807799999998,265.23438,255.710938C265.08821,255.68901499999998,264.66409,255.42206299999998,264.64842,255.28125z" id="path574" nodetypes="cssss" initial_fill_path="rgb(201, 138, 103)" initial_fill_group="rgb(211, 134, 88)"></path>
   </g><g id="person" svgHUD_initial_transform="translate(0 0)" transform="translate(0.46217404125204603 -0.3525523672137344)">
    
  
    
    
    
    
    
    
    
    <path style="fill: rgb(194, 213, 206);" d="M275.31012444444445,266.9160444444444L276.89732444444445,253.74120888888888L276.68257777777774,247.89029333333332L271.35873688888887,258.43257777777774L270.1668417777778,258.5929155555556L275.4146488888889,246.46554311111112L278.6075911111111,245.6399431111111L278.6075911111111,244.64978933333333C277.2380622222222,243.80713777777777,277.2342133333333,242.9580408888889,277.25738666666666,241.85935555555557C277.27840888888886,240.94401688888888,277.69384888888885,239.666848,279.05766222222223,239.699016C280.29164444444444,239.6499191111111,280.7713244444444,241.07279466666665,280.7679377777778,242.03938133333332C280.8530488888889,243.5273742222222,280.57572444444446,243.9084408888889,279.77777777777777,244.55977777777775L279.5977511111111,245.6399431111111L281.9368,246.22890222222222L287.4227377777778,259.23704L286.41560888888887,259.2590577777778L281.30801777777776,248.16033777777778L281.3980266666666,254.01124444444446L282.5187822222222,266.44958222222226L281.7986666666667,266.44958222222226L279.05766222222223,255.8115288888889L276.3002755555556,266.9160444444444L275.31012444444445,266.9160444444444z" id="path562" nodetypes="ccccccccssscccccccccccc" initial_fill_path="rgb(209, 186, 163)" initial_fill_group="rgb(208, 203, 228)"></path><path style="fill: rgb(4, 10, 193);" d="M277.10221333333334,265.5902844444445L275.2937333333333,265.1811822222222L276.94620444444445,254.01125333333334L281.4880533333333,254.01124444444446L283.2880622222222,265.86864888888886L280.9394933333333,265.90949333333333L279.22485333333333,256.9894488888889L277.10221333333334,265.5902844444445z" id="path563" nodetypes="cccccccc" initial_fill_path="rgb(28, 0, 185)" initial_fill_group="rgb(18, 0, 215)"></path><path style="fill: rgb(200, 247, 229);" d="M276.46273777777776,254.73910222222221L281.57032000000004,254.73910222222221L281.58579555555553,248.85988444444445L285.44866666666667,257.34176888888885L286.8888888888889,257.1617422222222L282.3881866666667,245.90998755555555L280.3178577777778,245.3699031111111L278.9187733333333,246.6635048888889L277.9774933333333,245.27988622222222L275.27707555555554,246.27004177777778L270.95640000000003,256.2616L272.3066097777778,257.0717333333333L276.37008,248.65928L276.46273777777776,254.73910222222221z" id="path564" nodetypes="cccccccccccccc" initial_fill_path="rgb(223, 229, 255)" initial_fill_group="rgb(214, 237, 251)"></path><path style="fill: rgb(0, 10, 0);" d="M277.1916,267.2574755555555L273.0971911111111,267.27161777777775L273.1806995555555,266.6280355555555L275.9031022222222,265.35944L277.108,265.80131555555556L277.1916,267.2574755555555zM281.21789333333334,265.74780444444445L282.5694311111111,265.40832L284.4719911111111,266.4994311111111L284.6384355555556,267.3127733333333L280.9954133333333,267.29219555555557L281.21789333333334,265.74780444444445z" id="path569" nodetypes="cccccccccccc" initial_fill_path="rgb(0, 0, 0)" initial_fill_group="rgb(7, 0, 0)"></path><path style="fill: rgb(76, 61, 33);" d="M277.38985777777776,240.21853155555556C277.34744888888883,239.6868577777778,278.3233333333333,239.61077155555554,278.80818666666664,239.61673777777776C279.4377866666666,239.62448533333333,280.7954666666667,239.62153955555556,280.7332088888889,240.25966844444443C280.6710577777778,240.89662311111113,280.8063911111111,242.0805022222222,280.65093333333334,242.06636888888886C280.47633777777776,242.0504968888889,280.60123555555555,240.66300266666667,280.22916444444445,240.41271022222222C279.73792000000003,240.04823466666664,278.10685333333333,240.10679022222223,277.7691555555555,240.46158666666668C277.37616,240.91490044444444,277.6825688888889,241.89466666666667,277.4579822222222,241.90822844444443C277.1585422222222,241.9238871111111,277.4357155555556,240.79333866666667,277.38985777777776,240.21853155555556z" id="path570" nodetypes="csssssss" initial_fill_path="rgb(106, 94, 83)" initial_fill_group="rgb(90, 51, 55)"></path><path style="fill: rgb(155, 141, 77);" d="M278.02082666666666,241.6041671111111C278.0115911111111,241.521,278.23328888888886,241.38082933333334,278.3333333333333,241.39583377777777C278.4647822222222,241.41555111111109,278.7030666666667,241.59842577777778,278.7152711111111,241.70833333333331C278.72621333333336,241.8067591111111,278.50434666666666,242.03606933333333,278.40277333333336,242.02083377777777C278.2728622222222,242.00134666666668,278.03474666666665,241.72933333333333,278.02082666666666,241.6041671111111z" id="path571" nodetypes="cssss" initial_fill_path="rgb(165, 139, 115)" initial_fill_group="rgb(169, 131, 99)"></path><path style="fill: rgb(117, 103, 67);" d="M279.34026666666665,241.6041671111111C279.33104000000003,241.521,279.5527288888889,241.38082933333334,279.6527822222222,241.39583377777777C279.7842311111111,241.41555111111109,280.0225066666667,241.59842577777778,280.03472,241.70833333333331C280.0456622222222,241.8067591111111,279.82378666666665,242.03606933333333,279.72222222222223,242.02083377777777C279.5923022222222,242.00134666666668,279.3541866666667,241.72933333333333,279.34026666666665,241.6041671111111z" id="path572" nodetypes="cssss" initial_fill_path="rgb(165, 139, 115)" initial_fill_group="rgb(131, 93, 89)"></path><path style="fill: rgb(209, 172, 105);" d="M278.7152711111111,242.47222222222223C278.7860977777778,242.35161422222222,278.89300444444444,241.6586071111111,278.9930577777778,241.67361155555557C279.12450666666666,241.69332888888889,279.29334222222224,242.36231466666666,279.30555555555554,242.47222222222223C279.3164977777778,242.570648,279.12934222222225,242.90412444444445,279.02777777777777,242.88888888888889C278.89785777777774,242.86940266666664,278.65978666666666,242.6575022222222,278.7152711111111,242.47222222222223z" id="path573" nodetypes="cssss" initial_fill_path="rgb(233, 199, 169)" initial_fill_group="rgb(223, 162, 127)"></path><path style="fill: rgb(127, 132, 71);" d="M278.5763733333333,243.58333333333331C278.56715555555553,243.5001671111111,278.8984355555556,243.65169333333333,279.09722666666664,243.58333333333331C279.32044444444443,243.49032711111113,279.57112,243.50814844444443,279.58332444444443,243.618056C279.5942666666666,243.71648177777777,279.19879111111106,243.9805137777778,279.09722666666664,243.9652782222222C278.9672977777778,243.9457911111111,278.5903022222222,243.70850044444444,278.5763733333333,243.58333333333331z" id="path574" nodetypes="cssss" initial_fill_path="rgb(201, 138, 103)" initial_fill_group="rgb(141, 122, 93)"></path>
   </g><g id="person" svgHUD_initial_transform="translate(0 0)" transform="translate(-0.9117449209751991 -0.10859912532870748)">
    
  
    
    
    
    
    
    
    
    <path style="fill: rgb(173, 179, 192);" d="M248.64345777777777,266.9160444444444L250.23065777777776,253.74120888888888L250.0159111111111,247.89029333333332L244.6920702222222,258.43257777777774L243.5001751111111,258.5929155555556L248.74798222222222,246.46554311111112L251.94092444444442,245.6399431111111L251.94092444444442,244.64978933333333C250.57139555555557,243.80713777777777,250.56754666666666,242.9580408888889,250.59071999999998,241.85935555555557C250.61174222222223,240.94401688888888,251.02718222222222,239.666848,252.39099555555555,239.699016C253.62497777777776,239.6499191111111,254.1046577777778,241.07279466666665,254.1012711111111,242.03938133333332C254.18638222222222,243.5273742222222,253.90905777777778,243.9084408888889,253.1111111111111,244.55977777777775L252.93108444444442,245.6399431111111L255.27013333333332,246.22890222222222L260.7560711111111,259.23704L259.74894222222224,259.2590577777778L254.6413511111111,248.16033777777778L254.73136,254.01124444444446L255.85211555555554,266.44958222222226L255.132,266.44958222222226L252.39099555555555,255.8115288888889L249.6336088888889,266.9160444444444L248.64345777777777,266.9160444444444z" id="path562" nodetypes="ccccccccssscccccccccccc" initial_fill_path="rgb(209, 186, 163)" initial_fill_group="rgb(174, 181, 189)"></path><path style="fill: rgb(20, 0, 214);" d="M250.43554666666665,265.5902844444445L248.62706666666668,265.1811822222222L250.27953777777776,254.01125333333334L254.82138666666665,254.01124444444446L256.6213955555555,265.86864888888886L254.27282666666667,265.90949333333333L252.55818666666664,256.9894488888889L250.43554666666665,265.5902844444445z" id="path563" nodetypes="cccccccc" initial_fill_path="rgb(28, 0, 185)" initial_fill_group="rgb(21, 0, 211)"></path><path style="fill: rgb(212, 266, 309);" d="M249.7960711111111,254.73910222222221L254.90365333333332,254.73910222222221L254.91912888888888,248.85988444444445L258.782,257.34176888888885L260.22222222222223,257.1617422222222L255.72152,245.90998755555555L253.6511911111111,245.3699031111111L252.25210666666666,246.6635048888889L251.31082666666669,245.27988622222222L248.61040888888888,246.27004177777778L244.28973333333334,256.2616L245.6399431111111,257.0717333333333L249.70341333333334,248.65928L249.7960711111111,254.73910222222221z" id="path564" nodetypes="cccccccccccccc" initial_fill_path="rgb(223, 229, 255)" initial_fill_group="rgb(213, 268, 306)"></path><path style="fill: rgb(0, 0, 9);" d="M250.52493333333334,267.2574755555555L246.43052444444444,267.27161777777775L246.5140328888889,266.6280355555555L249.23643555555554,265.35944L250.44133333333332,265.80131555555556L250.52493333333334,267.2574755555555zM254.55122666666665,265.74780444444445L255.90276444444441,265.40832L257.8053244444444,266.4994311111111L257.9717688888889,267.3127733333333L254.32874666666666,267.29219555555557L254.55122666666665,265.74780444444445z" id="path569" nodetypes="cccccccccccc" initial_fill_path="rgb(0, 0, 0)" initial_fill_group="rgb(0, 0, 6)"></path><path style="fill: rgb(137, 105, 82);" d="M250.7231911111111,240.21853155555556C250.6807822222222,239.6868577777778,251.65666666666664,239.61077155555554,252.14152,239.61673777777776C252.77112,239.62448533333333,254.1288,239.62153955555556,254.0665422222222,240.25966844444443C254.0043911111111,240.89662311111113,254.13972444444443,242.0805022222222,253.98426666666666,242.06636888888886C253.8096711111111,242.0504968888889,253.93456888888886,240.66300266666667,253.56249777777776,240.41271022222222C253.07125333333335,240.04823466666664,251.44018666666665,240.10679022222223,251.1024888888889,240.46158666666668C250.70949333333334,240.91490044444444,251.01590222222222,241.89466666666667,250.79131555555557,241.90822844444443C250.49187555555557,241.9238871111111,250.76904888888888,240.79333866666667,250.7231911111111,240.21853155555556z" id="path570" nodetypes="csssssss" initial_fill_path="rgb(106, 94, 83)" initial_fill_group="rgb(138, 107, 79)"></path><path style="fill: rgb(148, 151, 130);" d="M251.35415999999998,241.6041671111111C251.34492444444444,241.521,251.56662222222224,241.38082933333334,251.66666666666666,241.39583377777777C251.79811555555557,241.41555111111109,252.0364,241.59842577777778,252.04860444444444,241.70833333333331C252.05954666666668,241.8067591111111,251.83767999999998,242.03606933333333,251.73610666666667,242.02083377777777C251.60619555555556,242.00134666666668,251.36808,241.72933333333333,251.35415999999998,241.6041671111111z" id="path571" nodetypes="cssss" initial_fill_path="rgb(165, 139, 115)" initial_fill_group="rgb(149, 153, 127)"></path><path style="fill: rgb(171, 123, 95);" d="M252.6736,241.6041671111111C252.66437333333334,241.521,252.88606222222222,241.38082933333334,252.98611555555556,241.39583377777777C253.11756444444444,241.41555111111109,253.35584,241.59842577777778,253.36805333333334,241.70833333333331C253.37899555555555,241.8067591111111,253.15712,242.03606933333333,253.05555555555554,242.02083377777777C252.92563555555557,242.00134666666668,252.68752,241.72933333333333,252.6736,241.6041671111111z" id="path572" nodetypes="cssss" initial_fill_path="rgb(165, 139, 115)" initial_fill_group="rgb(172, 125, 92)"></path><path style="fill: rgb(259, 210, 95);" d="M252.04860444444444,242.47222222222223C252.1194311111111,242.35161422222222,252.22633777777776,241.6586071111111,252.3263911111111,241.67361155555557C252.45783999999998,241.69332888888889,252.62667555555555,242.36231466666666,252.63888888888889,242.47222222222223C252.6498311111111,242.570648,252.46267555555556,242.90412444444445,252.3611111111111,242.88888888888889C252.23119111111112,242.86940266666664,251.99311999999998,242.6575022222222,252.04860444444444,242.47222222222223z" id="path573" nodetypes="cssss" initial_fill_path="rgb(233, 199, 169)" initial_fill_group="rgb(260, 212, 92)"></path><path style="fill: rgb(177, 109, 99);" d="M251.90970666666666,243.58333333333331C251.90048888888887,243.5001671111111,252.2317688888889,243.65169333333333,252.43056,243.58333333333331C252.65377777777778,243.49032711111113,252.90445333333332,243.50814844444443,252.91665777777777,243.618056C252.92759999999998,243.71648177777777,252.53212444444443,243.9805137777778,252.43056,243.9652782222222C252.3006311111111,243.9457911111111,251.92363555555556,243.70850044444444,251.90970666666666,243.58333333333331z" id="path574" nodetypes="cssss" initial_fill_path="rgb(201, 138, 103)" initial_fill_group="rgb(178, 111, 96)"></path>
   </g><g id="person" svgHUD_initial_transform="translate(0 0)" transform="translate(0.18117199257884167 -1.3117012765845846)">
    
  
    
    
    
    
    
    
    
    <path style="fill: rgb(240, 197, 129);" d="M280.1297446153846,271.4128153846154L281.77799076923077,257.7312553846154L281.5549846153846,251.65530461538464L276.0263806153846,262.60306153846153L274.7886433846154,262.76956615384614L280.2382892307692,250.17575630769232L283.5540369230769,249.31840246153848L283.5540369230769,248.29016584615385C282.1318338461539,247.41510461538462,282.1278369230769,246.5333501538462,282.1519015384615,245.3924076923077C282.1737323076923,244.44186369230772,282.60515076923076,243.1155729230769,284.0214184615385,243.14897815384614C285.30286153846157,243.09799292307693,285.8009907692308,244.57559446153846,285.7974738461538,245.57935753846152C285.8858584615384,247.1245809230769,285.5978676923077,247.520304,284.7692307692308,248.19669230769233L284.58227999999997,249.31840246153848L287.0112923076923,249.93001384615386L292.7082276923077,263.43846461538465L291.66236307692304,263.46132923076925L286.3583261538462,251.93573538461538L286.4517969230769,258.01167692307695L287.6156584615385,270.9284123076923L286.86784615384613,270.9284123076923L284.0214184615385,259.8812030769231L281.15797846153845,271.4128153846154L280.1297446153846,271.4128153846154z" id="path562" nodetypes="ccccccccssscccccccccccc" initial_fill_path="rgb(209, 186, 163)" initial_fill_group="rgb(234, 193, 128)"></path><path style="fill: rgb(37, 4, 202);" d="M281.99076,270.03606461538465L280.1127230769231,269.6112276923077L281.82875076923074,258.01168615384614L286.5452861538462,258.01167692307695L288.41452615384617,270.32513538461535L285.9756276923077,270.3675507692308L284.19504,261.1044276923077L281.99076,270.03606461538465z" id="path563" nodetypes="cccccccc" initial_fill_path="rgb(28, 0, 185)" initial_fill_group="rgb(31, 0, 201)"></path><path style="fill: rgb(224, 207, 238);" d="M281.32668923076926,258.76752923076924L286.63071692307693,258.76752923076924L286.6467876923077,252.6621876923077L290.6582307692308,261.47029846153845L292.1538461538462,261.2833476923077L287.48004000000003,249.59883323076923L285.3300830769231,249.0379763076923L283.87718769230764,250.381332L282.8997046153846,248.94449723076923L280.0954246153846,249.9727356923077L275.60856923076926,260.3485846153846L277.01071015384616,261.18987692307695L281.2304676923077,252.4538676923077L281.32668923076926,258.76752923076924z" id="path564" nodetypes="cccccccccccccc" initial_fill_path="rgb(223, 229, 255)" initial_fill_group="rgb(218, 203, 237)"></path><path style="fill: rgb(6, 4, 1);" d="M282.08358461538467,271.76737846153844L277.83169846153845,271.7820646153846L277.91841876923075,271.1137292307692L280.7455292307692,269.79634153846155L281.99676923076925,270.2552123076923L282.08358461538467,271.76737846153844zM286.2647353846154,270.1996430769231L287.66825538461535,269.8471015384615L289.64399076923075,270.98017846153846L289.81683692307695,271.8248030769231L286.0336984615385,271.80343384615384L286.2647353846154,270.1996430769231z" id="path569" nodetypes="cccccccccccc" initial_fill_path="rgb(0, 0, 0)" initial_fill_group="rgb(0, 0, 0)"></path><path style="fill: rgb(83, 55, 94);" d="M282.2894676923077,243.68847507692308C282.24542769230766,243.13635230769233,283.25884615384615,243.0573396923077,283.7623476923077,243.0635353846154C284.41616307692306,243.0715809230769,285.82606153846154,243.06852184615383,285.76140923076923,243.73119415384616C285.6968676923077,244.39264707692308,285.83740615384613,245.62206,285.6759692307693,245.6073830769231C285.49465846153845,245.5909006153846,285.62436,244.15004123076926,285.23797846153843,243.89012215384616C284.72784,243.51162830769232,283.03404,243.57243599999998,282.68335384615386,243.94087846153846C282.27524307692306,244.41162738461537,282.5934369230769,245.42907692307693,282.36021230769234,245.44316030769232C282.0492553846154,245.45942123076924,282.33708923076927,244.28539015384615,282.2894676923077,243.68847507692308z" id="path570" nodetypes="csssssss" initial_fill_path="rgb(106, 94, 83)" initial_fill_group="rgb(77, 51, 93)"></path><path style="fill: rgb(147, 143, 90);" d="M282.94470461538464,245.1274043076923C282.93511384615385,245.04103846153845,283.16533846153845,244.8954766153846,283.2692307692308,244.91105815384617C283.40573538461535,244.93153384615385,283.6531846153846,245.12144215384615,283.6658584615385,245.23557692307693C283.67722153846154,245.33778830769234,283.44682153846156,245.57591815384615,283.34134153846156,245.56009661538462C283.20643384615386,245.53986,282.95916,245.25738461538464,282.94470461538464,245.1274043076923z" id="path571" nodetypes="cssss" initial_fill_path="rgb(165, 139, 115)" initial_fill_group="rgb(141, 139, 89)"></path><path style="fill: rgb(145, 186, 80);" d="M284.3148923076923,245.1274043076923C284.3053107692308,245.04103846153845,284.53552615384615,244.8954766153846,284.63942769230766,244.91105815384617C284.7759323076923,244.93153384615385,285.0233723076923,245.12144215384615,285.0360553846154,245.23557692307693C285.0474184615384,245.33778830769234,284.81700923076926,245.57591815384615,284.71153846153845,245.56009661538462C284.5766215384615,245.53986,284.3293476923077,245.25738461538464,284.3148923076923,245.1274043076923z" id="path572" nodetypes="cssss" initial_fill_path="rgb(165, 139, 115)" initial_fill_group="rgb(139, 182, 79)"></path><path style="fill: rgb(208, 219, 193);" d="M283.6658584615385,246.02884615384616C283.73940923076924,245.9035993846154,283.8504276923077,245.18393815384616,283.9543292307692,245.19951969230772C284.0908338461538,245.2199953846154,284.26616307692314,245.9147113846154,284.2788461538462,246.02884615384616C284.2902092307693,246.13105753846156,284.0958553846154,246.47736,283.99038461538464,246.46153846153845C283.8554676923077,246.4413027692308,283.60824,246.2212523076923,283.6658584615385,246.02884615384616z" id="path573" nodetypes="cssss" initial_fill_path="rgb(233, 199, 169)" initial_fill_group="rgb(202, 215, 192)"></path><path style="fill: rgb(197, 156, 76);" d="M283.5216184615384,247.18269230769232C283.51204615384614,247.0963273846154,283.8560676923077,247.25368153846154,284.06250461538457,247.18269230769232C284.2943076923077,247.08610892307695,284.5546246153846,247.1046156923077,284.5672984615385,247.21875046153846C284.5786615384615,247.32096184615386,284.1679753846154,247.59514892307692,284.06250461538457,247.5793273846154C283.9275784615385,247.55909076923078,283.5360830769231,247.31267353846152,283.5216184615384,247.18269230769232z" id="path574" nodetypes="cssss" initial_fill_path="rgb(201, 138, 103)" initial_fill_group="rgb(191, 152, 75)"></path>
   </g><g id="person" svgHUD_initial_transform="translate(0 0)" transform="translate(-0.4187488983985002 -1.1117449321097335)">
    
  
    
    
    
    
    
    
    
    <path style="fill: rgb(225, 168, 170);" d="M252.43743692307692,271.4128153846154L254.0856830769231,257.7312553846154L253.86267692307695,251.65530461538464L248.33407292307692,262.60306153846153L247.09633569230772,262.76956615384614L252.54598153846155,250.17575630769232L255.86172923076924,249.31840246153848L255.86172923076924,248.29016584615385C254.43952615384615,247.41510461538462,254.43552923076925,246.5333501538462,254.45959384615384,245.3924076923077C254.48142461538464,244.44186369230772,254.91284307692308,243.1155729230769,256.3291107692308,243.14897815384614C257.61055384615383,243.09799292307693,258.10868307692306,244.57559446153846,258.10516615384614,245.57935753846152C258.1935507692308,247.1245809230769,257.90556000000004,247.520304,257.0769230769231,248.19669230769233L256.88997230769235,249.31840246153848L259.31898461538464,249.93001384615386L265.01592,263.43846461538465L263.97005538461536,263.46132923076925L258.66601846153844,251.93573538461538L258.75948923076925,258.01167692307695L259.92335076923075,270.9284123076923L259.17553846153845,270.9284123076923L256.3291107692308,259.8812030769231L253.46567076923077,271.4128153846154L252.43743692307692,271.4128153846154z" id="path562" nodetypes="ccccccccssscccccccccccc" initial_fill_path="rgb(209, 186, 163)" initial_fill_group="rgb(219, 170, 171)"></path><path style="fill: rgb(41, 0, 200);" d="M254.29845230769232,270.03606461538465L252.4204153846154,269.6112276923077L254.1364430769231,258.01168615384614L258.85297846153844,258.01167692307695L260.7222184615385,270.32513538461535L258.28332,270.3675507692308L256.5027323076923,261.1044276923077L254.29845230769232,270.03606461538465z" id="path563" nodetypes="cccccccc" initial_fill_path="rgb(28, 0, 185)" initial_fill_group="rgb(35, 0, 201)"></path><path style="fill: rgb(223, 231, 239);" d="M253.63438153846153,258.76752923076924L258.93840923076925,258.76752923076924L258.95448,252.6621876923077L262.9659230769231,261.47029846153845L264.46153846153845,261.2833476923077L259.7877323076923,249.59883323076923L257.6377753846154,249.0379763076923L256.18488,250.381332L255.20739692307694,248.94449723076923L252.40311692307694,249.9727356923077L247.91626153846155,260.3485846153846L249.31840246153848,261.18987692307695L253.53816,252.4538676923077L253.63438153846153,258.76752923076924z" id="path564" nodetypes="cccccccccccccc" initial_fill_path="rgb(223, 229, 255)" initial_fill_group="rgb(217, 233, 240)"></path><path style="fill: rgb(6, 0, 23);" d="M254.39127692307693,271.76737846153844L250.13939076923077,271.7820646153846L250.22611107692308,271.1137292307692L253.05322153846154,269.79634153846155L254.30446153846154,270.2552123076923L254.39127692307693,271.76737846153844zM258.5724276923077,270.1996430769231L259.9759476923077,269.8471015384615L261.9516830769231,270.98017846153846L262.1245292307692,271.8248030769231L258.34139076923077,271.80343384615384L258.5724276923077,270.1996430769231z" id="path569" nodetypes="cccccccccccc" initial_fill_path="rgb(0, 0, 0)" initial_fill_group="rgb(0, 2, 24)"></path><path style="fill: rgb(136, 83, 107);" d="M254.59716000000003,243.68847507692308C254.55312,243.13635230769233,255.56653846153847,243.0573396923077,256.07004,243.0635353846154C256.7238553846154,243.0715809230769,258.13375384615387,243.06852184615383,258.06910153846155,243.73119415384616C258.00456,244.39264707692308,258.14509846153845,245.62206,257.98366153846155,245.6073830769231C257.80235076923077,245.5909006153846,257.9320523076923,244.15004123076926,257.5456707692308,243.89012215384616C257.03553230769234,243.51162830769232,255.34173230769233,243.57243599999998,254.99104615384618,243.94087846153846C254.58293538461538,244.41162738461537,254.90112923076924,245.42907692307693,254.66790461538463,245.44316030769232C254.3569476923077,245.45942123076924,254.64478153846153,244.28539015384615,254.59716000000003,243.68847507692308z" id="path570" nodetypes="csssssss" initial_fill_path="rgb(106, 94, 83)" initial_fill_group="rgb(130, 85, 108)"></path><path style="fill: rgb(183, 124, 91);" d="M255.25239692307693,245.1274043076923C255.24280615384617,245.04103846153845,255.47303076923077,244.8954766153846,255.5769230769231,244.91105815384617C255.7134276923077,244.93153384615385,255.9608769230769,245.12144215384615,255.97355076923077,245.23557692307693C255.98491384615386,245.33778830769234,255.75451384615386,245.57591815384615,255.64903384615386,245.56009661538462C255.51412615384618,245.53986,255.26685230769232,245.25738461538464,255.25239692307693,245.1274043076923z" id="path571" nodetypes="cssss" initial_fill_path="rgb(165, 139, 115)" initial_fill_group="rgb(177, 126, 92)"></path><path style="fill: rgb(219, 141, 123);" d="M256.62258461538465,245.1274043076923C256.61300307692306,245.04103846153845,256.84321846153847,244.8954766153846,256.94712000000004,244.91105815384617C257.0836246153846,244.93153384615385,257.3310646153846,245.12144215384615,257.3437476923077,245.23557692307693C257.35511076923075,245.33778830769234,257.1247015384615,245.57591815384615,257.0192307692308,245.56009661538462C256.8843138461539,245.53986,256.63704,245.25738461538464,256.62258461538465,245.1274043076923z" id="path572" nodetypes="cssss" initial_fill_path="rgb(165, 139, 115)" initial_fill_group="rgb(213, 143, 124)"></path><path style="fill: rgb(230, 185, 183);" d="M255.97355076923077,246.02884615384616C256.04710153846156,245.9035993846154,256.15812,245.18393815384616,256.26202153846157,245.19951969230772C256.39852615384615,245.2199953846154,256.5738553846154,245.9147113846154,256.58653846153845,246.02884615384616C256.59790153846154,246.13105753846156,256.4035476923077,246.47736,256.2980769230769,246.46153846153845C256.16316,246.4413027692308,255.91593230769232,246.2212523076923,255.97355076923077,246.02884615384616z" id="path573" nodetypes="cssss" initial_fill_path="rgb(233, 199, 169)" initial_fill_group="rgb(224, 187, 184)"></path><path style="fill: rgb(250, 123, 137);" d="M255.82931076923077,247.18269230769232C255.81973846153846,247.0963273846154,256.16376,247.25368153846154,256.37019692307695,247.18269230769232C256.602,247.08610892307695,256.86231692307695,247.1046156923077,256.87499076923075,247.21875046153846C256.88635384615384,247.32096184615386,256.4756676923077,247.59514892307692,256.37019692307695,247.5793273846154C256.2352707692308,247.55909076923078,255.8437753846154,247.31267353846152,255.82931076923077,247.18269230769232z" id="path574" nodetypes="cssss" initial_fill_path="rgb(201, 138, 103)" initial_fill_group="rgb(244, 125, 138)"></path>
   </g><g id="person" svgHUD_initial_transform="translate(0 0)" transform="translate(0.487742046070607 -0.49554730022691107)">
    
  
    
    
    
    
    
    
    
    <path style="fill: rgb(218, 214, 164);" d="M314.1349344,276.269328L315.8491104,262.0405056L315.61718399999995,255.72151680000002L309.86743584,267.10718399999996L308.58018912,267.2803488L314.2478208,254.18278656L317.69619839999996,253.29113855999998L317.69619839999996,252.22177248C316.2171072,251.3117088,316.21295039999995,250.39468416,316.2379776,249.208104C316.2606816,248.21953824000002,316.7093568,246.84019583999998,318.1822752,246.87493727999998C319.514976,246.82191264,320.03303040000003,248.35861824,320.0293728,249.40253184C320.1212928,251.00956416,319.8217824,251.42111616,318.96,252.12456L318.7655712,253.29113855999998L321.291744,253.9272144L327.21655680000003,267.9760032L326.12885759999995,267.99978239999996L320.6126592,256.0131648L320.7098688,262.33214399999997L321.9202848,275.76554880000003L321.14256,275.76554880000003L318.1822752,264.2764512L315.2042976,276.269328L314.1349344,276.269328z" id="path562" nodetypes="ccccccccssscccccccccccc" initial_fill_path="rgb(209, 186, 163)" initial_fill_group="rgb(192, 182, 176)"></path><path style="fill: rgb(39, 32, 188);" d="M316.0703904,274.8375072L314.11723199999994,274.3956768L315.9019008,262.33215359999997L320.8070976,262.33214399999997L322.7511072,275.1381408L320.21465279999995,275.1822528L318.3628416,265.5486048L316.0703904,274.8375072z" id="path563" nodetypes="cccccccc" initial_fill_path="rgb(28, 0, 185)" initial_fill_group="rgb(13, 0, 200)"></path><path style="fill: rgb(241, 293, 198);" d="M315.3797568,263.1182304L320.8959456,263.1182304L320.9126592,256.7686752L325.08456,265.9291104L326.64,265.7346816L321.7792416,253.58278656L319.5432864,252.99949536L318.03227519999996,254.39658528L317.0156928,252.90227712L314.0992416,253.97164512L309.432912,264.762528L310.89113856,265.637472L315.27968639999995,256.5520224L315.3797568,263.1182304z" id="path564" nodetypes="cccccccccccccc" initial_fill_path="rgb(223, 229, 255)" initial_fill_group="rgb(215, 261, 210)"></path><path style="fill: rgb(40, 32, 0);" d="M316.166928,276.6380736L311.7449664,276.6533472L311.83515551999994,275.9582784L314.7753504,274.5881952L316.07664,275.06542079999997L316.166928,276.6380736zM320.51532480000003,275.0076288L321.97498559999997,274.6409856L324.0297504,275.8193856L324.2095104,276.6977952L320.2750464,276.6755712L320.51532480000003,275.0076288z" id="path569" nodetypes="cccccccccccc" initial_fill_path="rgb(0, 0, 0)" initial_fill_group="rgb(14, 0, 0)"></path><path style="fill: rgb(120, 102, 41);" d="M316.3810464,247.43601408C316.33524479999994,246.8618064,317.38919999999996,246.77963327999998,317.9128416,246.7860768C318.5928096,246.79444416,320.059104,246.79126272,319.9918656,247.48044191999998C319.9247424,248.16835296,320.0709024,249.4469424,319.903008,249.4316784C319.7144448,249.41453664,319.8493344,247.91604288000002,319.4474976,247.64572704C318.9169536,247.25209344,317.1554016,247.31533344,316.790688,247.6985136C316.3662528,248.18809248,316.6971744,249.24624,316.4546208,249.26088671999997C316.1312256,249.27779808,316.4305728,248.05680575999997,316.3810464,247.43601408z" id="path570" nodetypes="csssssss" initial_fill_path="rgb(106, 94, 83)" initial_fill_group="rgb(94, 70, 53)"></path><path style="fill: rgb(199, 110, 110);" d="M317.0624928,248.93250048C317.0525184,248.84267999999997,317.29195200000004,248.69129568,317.4,248.70750048C317.54196479999996,248.72879519999998,317.799312,248.92629984,317.8124928,249.04500000000002C317.8243104,249.15129984,317.5846944,249.39895488,317.47499519999997,249.38250047999998C317.3346912,249.3614544,317.0775264,249.06768,317.0624928,248.93250048z" id="path571" nodetypes="cssss" initial_fill_path="rgb(165, 139, 115)" initial_fill_group="rgb(173, 78, 122)"></path><path style="fill: rgb(166, 150, 124);" d="M318.487488,248.93250048C318.4775232,248.84267999999997,318.71694720000005,248.69129568,318.8250048,248.70750048C318.96696959999997,248.72879519999998,319.2243072,248.92629984,319.2374976,249.04500000000002C319.24931519999996,249.15129984,319.0096896,249.39895488,318.9,249.38250047999998C318.75968639999996,249.3614544,318.5025216,249.06768,318.487488,248.93250048z" id="path572" nodetypes="cssss" initial_fill_path="rgb(165, 139, 115)" initial_fill_group="rgb(140, 118, 136)"></path><path style="fill: rgb(219, 199, 181);" d="M317.8124928,249.87C317.8889856,249.73974336,318.0044448,248.99129568,318.1125024,249.00750047999998C318.25446719999997,249.0287952,318.4368096,249.75129984,318.45,249.87C318.4618176,249.97629984,318.2596896,250.33645439999998,318.15,250.32C318.00968639999996,250.29895488,317.7525696,250.0701024,317.8124928,249.87z" id="path573" nodetypes="cssss" initial_fill_path="rgb(233, 199, 169)" initial_fill_group="rgb(193, 167, 193)"></path><path style="fill: rgb(215, 199, 72);" d="M317.6624832,251.07C317.65252799999996,250.98018048,318.0103104,251.1438288,318.22500479999997,251.07C318.46608000000003,250.96955328,318.7368096,250.98880032,318.7499904,251.10750048C318.761808,251.21380032000002,318.3346944,251.49895487999999,318.22500479999997,251.48250048C318.0846816,251.46145439999998,317.6775264,251.20518048,317.6624832,251.07z" id="path574" nodetypes="cssss" initial_fill_path="rgb(201, 138, 103)" initial_fill_group="rgb(189, 167, 84)"></path>
   </g><g id="person" svgHUD_initial_transform="translate(0 0)" transform="translate(0.004722331727546469 -0.0718710224821966)">
    
  
    
    
    
    
    
    
    
    <path style="fill: rgb(216, 158, 131);" d="M285.33493439999995,276.269328L287.0491104,262.0405056L286.817184,255.72151680000002L281.06743584,267.10718399999996L279.78018912000005,267.2803488L285.4478208,254.18278656L288.8961984,253.29113855999998L288.8961984,252.22177248C287.41710720000003,251.3117088,287.4129504,250.39468416,287.43797759999995,249.208104C287.4606816,248.21953824000002,287.90935679999996,246.84019583999998,289.3822752,246.87493727999998C290.714976,246.82191264,291.23303039999996,248.35861824,291.22937279999996,249.40253184C291.3212928,251.00956416,291.0217824,251.42111616,290.15999999999997,252.12456L289.9655712,253.29113855999998L292.491744,253.9272144L298.41655679999997,267.9760032L297.3288576,267.99978239999996L291.8126592,256.0131648L291.9098688,262.33214399999997L293.12028480000004,275.76554880000003L292.34256000000005,275.76554880000003L289.3822752,264.2764512L286.40429759999995,276.269328L285.33493439999995,276.269328z" id="path562" nodetypes="ccccccccssscccccccccccc" initial_fill_path="rgb(209, 186, 163)" initial_fill_group="rgb(225, 154, 142)"></path><path style="fill: rgb(32, 4, 178);" d="M287.2703904,274.8375072L285.317232,274.3956768L287.1019008,262.33215359999997L292.00709759999995,262.33214399999997L293.9511072,275.1381408L291.4146528,275.1822528L289.56284159999996,265.5486048L287.2703904,274.8375072z" id="path563" nodetypes="cccccccc" initial_fill_path="rgb(28, 0, 185)" initial_fill_group="rgb(41, 0, 189)"></path><path style="fill: rgb(186, 210, 258);" d="M286.5797568,263.1182304L292.09594560000005,263.1182304L292.1126592,256.7686752L296.28456,265.9291104L297.84000000000003,265.7346816L292.9792416,253.58278656L290.7432864,252.99949536L289.2322752,254.39658528L288.2156928,252.90227712L285.29924159999996,253.97164512L280.63291200000003,264.762528L282.09113856,265.637472L286.4796864,256.5520224L286.5797568,263.1182304z" id="path564" nodetypes="cccccccccccccc" initial_fill_path="rgb(223, 229, 255)" initial_fill_group="rgb(195, 206, 269)"></path><path style="fill: rgb(0, 4, 17);" d="M287.36692800000003,276.6380736L282.9449664,276.6533472L283.03515552,275.9582784L285.9753504,274.5881952L287.27664,275.06542079999997L287.36692800000003,276.6380736zM291.7153248,275.0076288L293.1749856,274.6409856L295.2297504,275.8193856L295.40951040000004,276.6977952L291.4750464,276.6755712L291.7153248,275.0076288z" id="path569" nodetypes="cccccccccccc" initial_fill_path="rgb(0, 0, 0)" initial_fill_group="rgb(0, 0, 28)"></path><path style="fill: rgb(48, 113, 75);" d="M287.5810464,247.43601408C287.5352448,246.8618064,288.5892,246.77963327999998,289.1128416,246.7860768C289.79280959999994,246.79444416,291.259104,246.79126272,291.1918656,247.48044191999998C291.1247424,248.16835296,291.2709024,249.4469424,291.10300800000005,249.4316784C290.91444479999996,249.41453664,291.0493344,247.91604288000002,290.6474976,247.64572704C290.1169536,247.25209344,288.3554016,247.31533344,287.990688,247.6985136C287.56625280000003,248.18809248,287.8971744,249.24624,287.6546208,249.26088671999997C287.3312256,249.27779808,287.6305728,248.05680575999997,287.5810464,247.43601408z" id="path570" nodetypes="csssssss" initial_fill_path="rgb(106, 94, 83)" initial_fill_group="rgb(57, 109, 86)"></path><path style="fill: rgb(169, 140, 110);" d="M288.2624928,248.93250048C288.2525184,248.84267999999997,288.49195199999997,248.69129568,288.6,248.70750048C288.7419648,248.72879519999998,288.99931200000003,248.92629984,289.0124928,249.04500000000002C289.0243104,249.15129984,288.7846944,249.39895488,288.6749952,249.38250047999998C288.5346912,249.3614544,288.27752639999994,249.06768,288.2624928,248.93250048z" id="path571" nodetypes="cssss" initial_fill_path="rgb(165, 139, 115)" initial_fill_group="rgb(178, 136, 121)"></path><path style="fill: rgb(165, 144, 127);" d="M289.68748800000003,248.93250048C289.6775232,248.84267999999997,289.9169472,248.69129568,290.0250048,248.70750048C290.1669696,248.72879519999998,290.4243072,248.92629984,290.43749760000003,249.04500000000002C290.4493152,249.15129984,290.2096896,249.39895488,290.1,249.38250047999998C289.9596864,249.3614544,289.70252159999995,249.06768,289.68748800000003,248.93250048z" id="path572" nodetypes="cssss" initial_fill_path="rgb(165, 139, 115)" initial_fill_group="rgb(174, 140, 138)"></path><path style="fill: rgb(220, 202, 105);" d="M289.0124928,249.87C289.0889856,249.73974336,289.20444480000003,248.99129568,289.31250239999997,249.00750047999998C289.45446719999995,249.0287952,289.6368096,249.75129984,289.65,249.87C289.6618176,249.97629984,289.4596896,250.33645439999998,289.35,250.32C289.2096864,250.29895488,288.95256959999995,250.0701024,289.0124928,249.87z" id="path573" nodetypes="cssss" initial_fill_path="rgb(233, 199, 169)" initial_fill_group="rgb(229, 198, 116)"></path><path style="fill: rgb(212, 101, 54);" d="M288.8624832,251.07C288.852528,250.98018048,289.2103104,251.1438288,289.4250048,251.07C289.66607999999997,250.96955328,289.9368096,250.98880032,289.9499904,251.10750048C289.961808,251.21380032000002,289.5346944,251.49895487999999,289.4250048,251.48250048C289.2846816,251.46145439999998,288.87752639999997,251.20518048,288.8624832,251.07z" id="path574" nodetypes="cssss" initial_fill_path="rgb(201, 138, 103)" initial_fill_group="rgb(221, 97, 65)"></path>
   </g><g id="person" svgHUD_initial_transform="translate(0 0)" transform="translate(-0.472965712016198 -1.0278513174382666)">
    
  
    
    
    
    
    
    
    
    <path style="fill: rgb(177, 169, 134);" d="M256.5349344,276.269328L258.2491104,262.0405056L258.017184,255.72151680000002L252.26743584,267.10718399999996L250.98018911999998,267.2803488L256.6478208,254.18278656L260.0961984,253.29113855999998L260.0961984,252.22177248C258.61710719999996,251.3117088,258.6129504,250.39468416,258.6379776,249.208104C258.6606816,248.21953824000002,259.1093568,246.84019583999998,260.5822752,246.87493727999998C261.914976,246.82191264,262.4330304,248.35861824,262.4293728,249.40253184C262.52129279999997,251.00956416,262.2217824,251.42111616,261.36,252.12456L261.1655712,253.29113855999998L263.69174399999997,253.9272144L269.6165568,267.9760032L268.5288576,267.99978239999996L263.0126592,256.0131648L263.10986879999996,262.33214399999997L264.32028479999997,275.76554880000003L263.54256,275.76554880000003L260.5822752,264.2764512L257.6042976,276.269328L256.5349344,276.269328z" id="path562" nodetypes="ccccccccssscccccccccccc" initial_fill_path="rgb(209, 186, 163)" initial_fill_group="rgb(179, 178, 148)"></path><path style="fill: rgb(39, 11, 169);" d="M258.4703904,274.8375072L256.517232,274.3956768L258.3019008,262.33215359999997L263.2070976,262.33214399999997L265.1511072,275.1381408L262.6146528,275.1822528L260.7628416,265.5486048L258.4703904,274.8375072z" id="path563" nodetypes="cccccccc" initial_fill_path="rgb(28, 0, 185)" initial_fill_group="rgb(41, 20, 183)"></path><path style="fill: rgb(177, 236, 224);" d="M257.7797568,263.1182304L263.2959456,263.1182304L263.3126592,256.7686752L267.48456,265.9291104L269.03999999999996,265.7346816L264.1792416,253.58278656L261.9432864,252.99949536L260.4322752,254.39658528L259.4156928,252.90227712L256.4992416,253.97164512L251.83291200000002,264.762528L253.29113855999998,265.637472L257.6796864,256.5520224L257.7797568,263.1182304z" id="path564" nodetypes="cccccccccccccc" initial_fill_path="rgb(223, 229, 255)" initial_fill_group="rgb(179, 245, 238)"></path><path style="fill: rgb(13, 17, 6);" d="M258.566928,276.6380736L254.1449664,276.6533472L254.23515551999998,275.9582784L257.1753504,274.5881952L258.47664,275.06542079999997L258.566928,276.6380736zM262.9153248,275.0076288L264.3749856,274.6409856L266.4297504,275.8193856L266.6095104,276.6977952L262.6750464,276.6755712L262.9153248,275.0076288z" id="path569" nodetypes="cccccccccccc" initial_fill_path="rgb(0, 0, 0)" initial_fill_group="rgb(15, 26, 20)"></path><path style="fill: rgb(80, 123, 45);" d="M258.7810464,247.43601408C258.7352448,246.8618064,259.7892,246.77963327999998,260.3128416,246.7860768C260.9928096,246.79444416,262.459104,246.79126272,262.3918656,247.48044191999998C262.3247424,248.16835296,262.4709024,249.4469424,262.303008,249.4316784C262.1144448,249.41453664,262.2493344,247.91604288000002,261.8474976,247.64572704C261.31695360000003,247.25209344,259.5554016,247.31533344,259.190688,247.6985136C258.7662528,248.18809248,259.0971744,249.24624,258.8546208,249.26088671999997C258.53122559999997,249.27779808,258.83057279999997,248.05680575999997,258.7810464,247.43601408z" id="path570" nodetypes="csssssss" initial_fill_path="rgb(106, 94, 83)" initial_fill_group="rgb(82, 132, 59)"></path><path style="fill: rgb(171, 146, 108);" d="M259.4624928,248.93250048C259.45251840000003,248.84267999999997,259.691952,248.69129568,259.8,248.70750048C259.9419648,248.72879519999998,260.19931199999996,248.92629984,260.2124928,249.04500000000002C260.2243104,249.15129984,259.98469439999997,249.39895488,259.8749952,249.38250047999998C259.7346912,249.3614544,259.4775264,249.06768,259.4624928,248.93250048z" id="path571" nodetypes="cssss" initial_fill_path="rgb(165, 139, 115)" initial_fill_group="rgb(173, 155, 122)"></path><path style="fill: rgb(131, 127, 110);" d="M260.887488,248.93250048C260.8775232,248.84267999999997,261.1169472,248.69129568,261.22500479999997,248.70750048C261.3669696,248.72879519999998,261.6243072,248.92629984,261.6374976,249.04500000000002C261.6493152,249.15129984,261.4096896,249.39895488,261.3,249.38250047999998C261.1596864,249.3614544,260.9025216,249.06768,260.887488,248.93250048z" id="path572" nodetypes="cssss" initial_fill_path="rgb(165, 139, 115)" initial_fill_group="rgb(133, 136, 124)"></path><path style="fill: rgb(224, 237, 159);" d="M260.2124928,249.87C260.2889856,249.73974336,260.4044448,248.99129568,260.5125024,249.00750047999998C260.6544672,249.0287952,260.8368096,249.75129984,260.85,249.87C260.8618176,249.97629984,260.6596896,250.33645439999998,260.55,250.32C260.4096864,250.29895488,260.1525696,250.0701024,260.2124928,249.87z" id="path573" nodetypes="cssss" initial_fill_path="rgb(233, 199, 169)" initial_fill_group="rgb(226, 246, 173)"></path><path style="fill: rgb(241, 102, 111);" d="M260.0624832,251.07C260.052528,250.98018048,260.4103104,251.1438288,260.6250048,251.07C260.86608,250.96955328,261.1368096,250.98880032,261.1499904,251.10750048C261.161808,251.21380032000002,260.73469439999997,251.49895487999999,260.6250048,251.48250048C260.4846816,251.46145439999998,260.0775264,251.20518048,260.0624832,251.07z" id="path574" nodetypes="cssss" initial_fill_path="rgb(201, 138, 103)" initial_fill_group="rgb(243, 111, 125)"></path>
   </g><g id="person" svgHUD_initial_transform="translate(0 0)" transform="translate(-0.6503293852205833 -0.9776295149615515)">
    
  
    
    
    
    
    
    
    
    <path style="fill: rgb(179, 159, 138);" d="M320.97389,281.53055L322.75949,266.70886L322.5179,260.12658L316.528579,271.98665L315.187697,272.16703L321.09148,258.523736L324.68354,257.594936L324.68354,256.481013C323.14282000000003,255.53303,323.13849,254.577796,323.16456,253.34177499999998C323.18821,252.31201900000002,323.65558,250.875204,325.18987,250.911393C326.5781,250.856159,327.11774,252.456894,327.11393,253.544304C327.20968,255.218296,326.89769,255.646996,326,256.37975L325.79747,257.594936L328.4289,258.257515L334.60058000000004,272.89167L333.46756,272.91643999999997L327.72152,260.43038L327.82277999999997,267.01265L329.08362999999997,281.00578L328.2735,281.00578L325.18987,269.03797L322.08781,281.53055L320.97389,281.53055z" id="path562" nodetypes="ccccccccssscccccccccccc" initial_fill_path="rgb(209, 186, 163)" initial_fill_group="rgb(181, 157, 156)"></path><path style="fill: rgb(31, 2, 175);" d="M322.98999000000003,280.03907000000004L320.95545,279.57883000000004L322.81448,267.01266L327.92406,267.01265L329.94907,280.35222999999996L327.30692999999997,280.39818L325.37796000000003,270.36313L322.98999000000003,280.03907000000004z" id="path563" nodetypes="cccccccc" initial_fill_path="rgb(28, 0, 185)" initial_fill_group="rgb(33, 0, 193)"></path><path style="fill: rgb(243, 228, 230);" d="M322.27058,267.83149000000003L328.01661,267.83149000000003L328.03402,261.21737L332.37975,270.75949L334,270.55696L328.93671,257.898736L326.60759,257.291141L325.03362,258.746443L323.97468000000003,257.189872L320.93671,258.30379700000003L316.07595000000003,269.5443L317.594936,270.4557L322.16634,260.99169L322.27058,267.83149000000003z" id="path564" nodetypes="cccccccccccccc" initial_fill_path="rgb(223, 229, 255)" initial_fill_group="rgb(245, 226, 248)"></path><path style="fill: rgb(0, 16, 4);" d="M323.09055,281.91466L318.48434,281.93057L318.578287,281.20654L321.64099,279.77937L322.99649999999997,280.27648L323.09055,281.91466zM327.62013,280.21628L329.14061,279.83436L331.28099,281.06186L331.46824000000004,281.97686999999996L327.36984,281.95372L327.62013,280.21628z" id="path569" nodetypes="cccccccccccc" initial_fill_path="rgb(0, 0, 0)" initial_fill_group="rgb(0, 14, 22)"></path><path style="fill: rgb(70, 105, 58);" d="M323.31359,251.495848C323.26588,250.897715,324.36375,250.812118,324.90921000000003,250.81883C325.61751,250.82754599999998,327.1449,250.824232,327.07486,251.542127C327.00494000000003,252.258701,327.15719,253.590565,326.9823,253.57466499999998C326.78588,253.556809,326.92638999999997,251.995878,326.50781,251.71429899999998C325.95516,251.304264,324.12021,251.370139,323.7403,251.769285C323.29818,252.27926300000001,323.64288999999997,253.38150000000002,323.39023,253.39675699999998C323.05336,253.414373,323.36518,252.142506,323.31359,251.495848z" id="path570" nodetypes="csssssss" initial_fill_path="rgb(106, 94, 83)" initial_fill_group="rgb(72, 103, 76)"></path><path style="fill: rgb(194, 165, 138);" d="M324.02343,253.054688C324.01304,252.96112499999998,324.26245,252.80343299999998,324.375,252.820313C324.52288,252.84249499999999,324.79095,253.048229,324.80468,253.171875C324.81699000000003,253.282604,324.56739,253.54057799999998,324.45312,253.523438C324.30697,253.50151499999998,324.03909,253.19549999999998,324.02343,253.054688z" id="path571" nodetypes="cssss" initial_fill_path="rgb(165, 139, 115)" initial_fill_group="rgb(196, 163, 156)"></path><path style="fill: rgb(165, 169, 82);" d="M325.5078,253.054688C325.49742000000003,252.96112499999998,325.74682,252.80343299999998,325.85938,252.820313C326.00726,252.84249499999999,326.27531999999997,253.048229,326.28906,253.171875C326.30137,253.282604,326.05176,253.54057799999998,325.9375,253.523438C325.79134,253.50151499999998,325.52346,253.19549999999998,325.5078,253.054688z" id="path572" nodetypes="cssss" initial_fill_path="rgb(165, 139, 115)" initial_fill_group="rgb(167, 167, 100)"></path><path style="fill: rgb(175, 159, 147);" d="M324.80468,254.03125C324.88436,253.895566,325.00463,253.11593299999998,325.11719,253.132813C325.26507,253.15499499999999,325.45501,253.907604,325.46875,254.03125C325.48106,254.141979,325.27051,254.51713999999998,325.15625,254.5C325.01009,254.47807799999998,324.74226,254.23969,324.80468,254.03125z" id="path573" nodetypes="cssss" initial_fill_path="rgb(233, 199, 169)" initial_fill_group="rgb(177, 157, 165)"></path><path style="fill: rgb(229, 135, 75);" d="M324.64842,255.28125C324.63805,255.18768799999998,325.01074,255.358155,325.23438,255.28125C325.4855,255.17661800000002,325.76751,255.196667,325.78124,255.320313C325.79355,255.431042,325.34864,255.72807799999998,325.23438,255.710938C325.08821,255.68901499999998,324.66409,255.42206299999998,324.64842,255.28125z" id="path574" nodetypes="cssss" initial_fill_path="rgb(201, 138, 103)" initial_fill_group="rgb(231, 133, 93)"></path>
   </g><g id="person" svgHUD_initial_transform="translate(0 0)" transform="translate(-0.2472030294684041 -1.0879146970913238)">
    
  
    
    
    
    
    
    
    
    <path style="fill: rgb(198, 185, 192);" d="M290.97389,281.53055L292.75949,266.70886L292.5179,260.12658L286.528579,271.98665L285.187697,272.16703L291.09148,258.523736L294.68354,257.594936L294.68354,256.481013C293.14282000000003,255.53303,293.13849,254.577796,293.16456,253.34177499999998C293.18821,252.31201900000002,293.65558,250.875204,295.18987,250.911393C296.5781,250.856159,297.11774,252.456894,297.11393,253.544304C297.20968,255.218296,296.89769,255.646996,296,256.37975L295.79747,257.594936L298.4289,258.257515L304.60058000000004,272.89167L303.46756,272.91643999999997L297.72152,260.43038L297.82277999999997,267.01265L299.08362999999997,281.00578L298.2735,281.00578L295.18987,269.03797L292.08781,281.53055L290.97389,281.53055z" id="path562" nodetypes="ccccccccssscccccccccccc" initial_fill_path="rgb(209, 186, 163)" initial_fill_group="rgb(187, 185, 170)"></path><path style="fill: rgb(46, 28, 261);" d="M292.98999000000003,280.03907000000004L290.95545,279.57883000000004L292.81448,267.01266L297.92406,267.01265L299.94907,280.35222999999996L297.30692999999997,280.39818L295.37796000000003,270.36313L292.98999000000003,280.03907000000004z" id="path563" nodetypes="cccccccc" initial_fill_path="rgb(28, 0, 185)" initial_fill_group="rgb(35, 28, 239)"></path><path style="fill: rgb(209, 208, 272);" d="M292.27058,267.83149000000003L298.01661,267.83149000000003L298.03402,261.21737L302.37975,270.75949L304,270.55696L298.93671,257.898736L296.60759,257.291141L295.03362,258.746443L293.97468000000003,257.189872L290.93671,258.30379700000003L286.07595000000003,269.5443L287.594936,270.4557L292.16634,260.99169L292.27058,267.83149000000003z" id="path564" nodetypes="cccccccccccccc" initial_fill_path="rgb(223, 229, 255)" initial_fill_group="rgb(198, 208, 250)"></path><path style="fill: rgb(11, 8, 57);" d="M293.09055,281.91466L288.48434,281.93057L288.578287,281.20654L291.64099,279.77937L292.99649999999997,280.27648L293.09055,281.91466zM297.62013,280.21628L299.14061,279.83436L301.28099,281.06186L301.46824000000004,281.97686999999996L297.36984,281.95372L297.62013,280.21628z" id="path569" nodetypes="cccccccccccc" initial_fill_path="rgb(0, 0, 0)" initial_fill_group="rgb(0, 8, 35)"></path><path style="fill: rgb(126, 81, 78);" d="M293.31359,251.495848C293.26588,250.897715,294.36375,250.812118,294.90921000000003,250.81883C295.61751,250.82754599999998,297.1449,250.824232,297.07486,251.542127C297.00494000000003,252.258701,297.15719,253.590565,296.9823,253.57466499999998C296.78588,253.556809,296.92638999999997,251.995878,296.50781,251.71429899999998C295.95516,251.304264,294.12021,251.370139,293.7403,251.769285C293.29818,252.27926300000001,293.64288999999997,253.38150000000002,293.39023,253.39675699999998C293.05336,253.414373,293.36518,252.142506,293.31359,251.495848z" id="path570" nodetypes="csssssss" initial_fill_path="rgb(106, 94, 83)" initial_fill_group="rgb(115, 81, 56)"></path><path style="fill: rgb(193, 145, 137);" d="M294.02343,253.054688C294.01304,252.96112499999998,294.26245,252.80343299999998,294.375,252.820313C294.52288,252.84249499999999,294.79095,253.048229,294.80468,253.171875C294.81699000000003,253.282604,294.56739,253.54057799999998,294.45312,253.523438C294.30697,253.50151499999998,294.03909,253.19549999999998,294.02343,253.054688z" id="path571" nodetypes="cssss" initial_fill_path="rgb(165, 139, 115)" initial_fill_group="rgb(182, 145, 115)"></path><path style="fill: rgb(213, 151, 129);" d="M295.5078,253.054688C295.49742000000003,252.96112499999998,295.74682,252.80343299999998,295.85938,252.820313C296.00726,252.84249499999999,296.27531999999997,253.048229,296.28906,253.171875C296.30137,253.282604,296.05176,253.54057799999998,295.9375,253.523438C295.79134,253.50151499999998,295.52346,253.19549999999998,295.5078,253.054688z" id="path572" nodetypes="cssss" initial_fill_path="rgb(165, 139, 115)" initial_fill_group="rgb(202, 151, 107)"></path><path style="fill: rgb(226, 176, 201);" d="M294.80468,254.03125C294.88436,253.895566,295.00463,253.11593299999998,295.11719,253.132813C295.26507,253.15499499999999,295.45501,253.907604,295.46875,254.03125C295.48106,254.141979,295.27051,254.51713999999998,295.15625,254.5C295.01009,254.47807799999998,294.74226,254.23969,294.80468,254.03125z" id="path573" nodetypes="cssss" initial_fill_path="rgb(233, 199, 169)" initial_fill_group="rgb(215, 176, 179)"></path><path style="fill: rgb(215, 161, 125);" d="M294.64842,255.28125C294.63805,255.18768799999998,295.01074,255.358155,295.23438,255.28125C295.4855,255.17661800000002,295.76751,255.196667,295.78124,255.320313C295.79355,255.431042,295.34864,255.72807799999998,295.23438,255.710938C295.08821,255.68901499999998,294.66409,255.42206299999998,294.64842,255.28125z" id="path574" nodetypes="cssss" initial_fill_path="rgb(201, 138, 103)" initial_fill_group="rgb(204, 161, 103)"></path>
   </g><g id="person" svgHUD_initial_transform="translate(0 0)" transform="translate(0.3718162756577053 -1.3110026755661048)">
    
  
    
    
    
    
    
    
    
    <path style="fill: rgb(184, 167, 164);" d="M260.97389,281.53055L262.75949,266.70886L262.5179,260.12658L256.528579,271.98665L255.18769700000001,272.16703L261.09148,258.523736L264.68354,257.594936L264.68354,256.481013C263.14282000000003,255.53303,263.13849,254.577796,263.16456,253.34177499999998C263.18821,252.31201900000002,263.65558,250.875204,265.18987,250.911393C266.5781,250.856159,267.11774,252.456894,267.11393,253.544304C267.20968,255.218296,266.89769,255.646996,266,256.37975L265.79747,257.594936L268.4289,258.257515L274.60058000000004,272.89167L273.46756,272.91643999999997L267.72152,260.43038L267.82277999999997,267.01265L269.08362999999997,281.00578L268.2735,281.00578L265.18987,269.03797L262.08781,281.53055L260.97389,281.53055z" id="path562" nodetypes="ccccccccssscccccccccccc" initial_fill_path="rgb(209, 186, 163)" initial_fill_group="rgb(214, 159, 157)"></path><path style="fill: rgb(36, 8, 200);" d="M262.98999000000003,280.03907000000004L260.95545,279.57883000000004L262.81448,267.01266L267.92406,267.01265L269.94907,280.35222999999996L267.30692999999997,280.39818L265.37796000000003,270.36313L262.98999000000003,280.03907000000004z" id="path563" nodetypes="cccccccc" initial_fill_path="rgb(28, 0, 185)" initial_fill_group="rgb(66, 0, 193)"></path><path style="fill: rgb(196, 226, 288);" d="M262.27058,267.83149000000003L268.01661,267.83149000000003L268.03402,261.21737L272.37975,270.75949L274,270.55696L268.93671,257.898736L266.60759,257.291141L265.03362,258.746443L263.97468000000003,257.189872L260.93671,258.30379700000003L256.07595000000003,269.5443L257.594936,270.4557L262.16634,260.99169L262.27058,267.83149000000003z" id="path564" nodetypes="cccccccccccccc" initial_fill_path="rgb(223, 229, 255)" initial_fill_group="rgb(226, 218, 281)"></path><path style="fill: rgb(0, 8, 67);" d="M263.09055,281.91466L258.48434,281.93057L258.578287,281.20654L261.64099,279.77937L262.99649999999997,280.27648L263.09055,281.91466zM267.62013,280.21628L269.14061,279.83436L271.28099,281.06186L271.46824000000004,281.97686999999996L267.36984,281.95372L267.62013,280.21628z" id="path569" nodetypes="cccccccccccc" initial_fill_path="rgb(0, 0, 0)" initial_fill_group="rgb(6, 0, 60)"></path><path style="fill: rgb(98, 148, 72);" d="M263.31359,251.495848C263.26588,250.897715,264.36375,250.812118,264.90921000000003,250.81883C265.61751,250.82754599999998,267.1449,250.824232,267.07486,251.542127C267.00494000000003,252.258701,267.15719,253.590565,266.9823,253.57466499999998C266.78588,253.556809,266.92638999999997,251.995878,266.50781,251.71429899999998C265.95516,251.304264,264.12021,251.370139,263.7403,251.769285C263.29818,252.27926300000001,263.64288999999997,253.38150000000002,263.39023,253.39675699999998C263.05336,253.414373,263.36518,252.142506,263.31359,251.495848z" id="path570" nodetypes="csssssss" initial_fill_path="rgb(106, 94, 83)" initial_fill_group="rgb(128, 140, 65)"></path><path style="fill: rgb(115, 128, 125);" d="M264.02343,253.054688C264.01304,252.96112499999998,264.26245,252.80343299999998,264.375,252.820313C264.52288,252.84249499999999,264.79095,253.048229,264.80468,253.171875C264.81699000000003,253.282604,264.56739,253.54057799999998,264.45312,253.523438C264.30697,253.50151499999998,264.03909,253.19549999999998,264.02343,253.054688z" id="path571" nodetypes="cssss" initial_fill_path="rgb(165, 139, 115)" initial_fill_group="rgb(145, 120, 118)"></path><path style="fill: rgb(138, 110, 139);" d="M265.5078,253.054688C265.49742000000003,252.96112499999998,265.74682,252.80343299999998,265.85938,252.820313C266.00726,252.84249499999999,266.27531999999997,253.048229,266.28906,253.171875C266.30137,253.282604,266.05176,253.54057799999998,265.9375,253.523438C265.79134,253.50151499999998,265.52346,253.19549999999998,265.5078,253.054688z" id="path572" nodetypes="cssss" initial_fill_path="rgb(165, 139, 115)" initial_fill_group="rgb(168, 102, 132)"></path><path style="fill: rgb(181, 206, 157);" d="M264.80468,254.03125C264.88436,253.895566,265.00463,253.11593299999998,265.11719,253.132813C265.26507,253.15499499999999,265.45501,253.907604,265.46875,254.03125C265.48106,254.141979,265.27051,254.51713999999998,265.15625,254.5C265.01009,254.47807799999998,264.74226,254.23969,264.80468,254.03125z" id="path573" nodetypes="cssss" initial_fill_path="rgb(233, 199, 169)" initial_fill_group="rgb(211, 198, 150)"></path><path style="fill: rgb(130, 104, 127);" d="M264.64842,255.28125C264.63805,255.18768799999998,265.01074,255.358155,265.23438,255.28125C265.4855,255.17661800000002,265.76751,255.196667,265.78124,255.320313C265.79355,255.431042,265.34864,255.72807799999998,265.23438,255.710938C265.08821,255.68901499999998,264.66409,255.42206299999998,264.64842,255.28125z" id="path574" nodetypes="cssss" initial_fill_path="rgb(201, 138, 103)" initial_fill_group="rgb(160, 96, 120)"></path>
   </g></g><g class="svgReferenceGContainer"><g transform="translate(131.1279218780164 142.57376151810698) scale(0.051362308150528925)">
	<path fill="#C18C52" d="M2311.903391719193,2454.703391719193C2310.643391719193,2455.153391719193,2309.414391719193,2455.663391719193,2308.203391719193,2456.213391719193L2308.0333917191933,2455.8433917191933C2286.2833917191933,2451.3433917191933,2274.143391719193,2446.963391719193,2265.163391719193,2441.963391719193C2265.163391719193,2441.963391719193,2259.373391719193,2437.5933917191933,2257.813391719193,2440.2233917191934C2256.2433917191934,2442.853391719193,2255.913391719193,2445.8033917191933,2255.913391719193,2445.8033917191933S2255.413391719193,2456.2233917191934,2255.413391719193,2463.7233917191934L2255.293391719193,2464.193391719193C2248.163391719193,2462.523391719193,2247.003391719193,2464.4733917191934,2244.913391719193,2466.8833917191932C2242.7433917191934,2469.393391719193,2243.2433917191934,2476.8833917191932,2244.913391719193,2490.2233917191934C2246.5733917191933,2503.5533917191933,2246.2433917191934,2512.7233917191934,2245.413391719193,2520.7233917191934C2244.5733917191933,2528.7233917191934,2247.2433917191934,2524.8833917191932,2246.7433917191934,2534.0533917191933C2246.413391719193,2541.4733917191934,2249.5733917191933,2543.5533917191933,2249.5733917191933,2543.5533917191933L2250.153391719193,2543.654391719193C2249.8833917191932,2545.0043917191933,2244.8833917191932,2570.7543917191933,2246.7633917191934,2588.3833917191932C2247.1633917191934,2592.173391719193,2247.463391719193,2595.873391719193,2247.6833917191934,2599.463391719193C2228.813391719193,2607.123391719193,2214.083391719193,2597.5733917191933,2214.083391719193,2597.5733917191933L2213.983391719193,2597.5733917191933C2213.173391719193,2578.932391719193,2214.8233917191933,2559.8433917191933,2215.0533917191933,2557.222391719193C2215.403391719193,2553.232391719193,2213.603391719193,2548.442391719193,2212.7633917191934,2540.8323917191933C2211.923391719193,2533.231391719193,2199.9133917191934,2476.722391719193,2195.413391719193,2434.722391719193S2208.0733917191933,2365.052391719193,2208.0733917191933,2365.052391719193L2208.163391719193,2363.382391719193C2213.233391719193,2363.922391719193,2223.983391719193,2364.802391719193,2228.7433917191934,2363.052391719193C2234.4933917191934,2360.932391719193,2232.8233917191933,2364.8523917191933,2244.4333917191934,2364.842391719193C2245.6133917191933,2364.842391719193,2246.923391719193,2364.802391719193,2248.403391719193,2364.712391719193C2264.403391719193,2363.712391719193,2262.0733917191933,2360.052391719193,2269.072391719193,2360.382391719193C2274.782391719193,2360.652391719193,2278.282391719193,2363.1423917191933,2281.543391719193,2363.1423917191933L2284.163391719193,2363.472391719193C2284.163391719193,2363.472391719193,2291.782391719193,2381.972391719193,2295.032391719193,2387.722391719193S2348.163391719193,2407.972391719193,2376.163391719193,2427.722391719193S2393.032391719193,2458.222391719193,2393.032391719193,2458.222391719193C2385.532391719193,2475.722391719193,2367.413391719193,2478.222391719193,2343.1633917191934,2480.722391719193C2334.4333917191934,2481.6223917191933,2325.4333917191934,2482.942391719193,2316.9133917191934,2484.3723917191933L2316.9133917191934,2484.342391719193C2316.9133917191934,2484.342391719193,2305.4133917191934,2469.722391719193,2311.9133917191934,2454.722391719193L2311.903391719193,2454.703391719193z"></path>
	<path fill="#2B3754" d="M2289.403391719193,2354.713391719193C2289.403391719193,2354.713391719193,2287.7433917191934,2361.0533917191933,2283.7433917191934,2362.713391719193C2283.0043917191933,2363.023391719193,2282.2833917191933,2363.143391719193,2281.5443917191933,2363.143391719193C2278.2833917191933,2363.143391719193,2274.7833917191933,2360.653391719193,2269.0733917191933,2360.3833917191932C2262.0733917191933,2360.0533917191933,2264.404391719193,2363.713391719193,2248.404391719193,2364.713391719193C2246.924391719193,2364.8033917191933,2245.614391719193,2364.8433917191933,2244.434391719193,2364.8433917191933L2244.414391719193,2362.8833917191932C2243.074391719193,2362.2233917191934,2241.074391719193,2358.5533917191933,2241.074391719193,2358.5533917191933C2236.574391719193,2349.7233917191934,2244.244391719193,2344.7233917191934,2245.034391719193,2332.3433917191933C2245.154391719193,2330.4733917191934,2245.2543917191933,2328.423391719193,2245.344391719193,2326.233391719193L2244.484391719193,2325.9933917191934C2248.174391719193,2323.8033917191933,2250.744391719193,2321.393391719193,2251.414391719193,2318.7233917191934C2251.414391719193,2318.7233917191934,2262.664391719193,2328.2233917191934,2279.164391719193,2331.9733917191934C2281.224391719193,2332.443391719193,2283.193391719193,2332.903391719193,2285.094391719193,2333.353391719193L2285.0733917191933,2334.713391719193C2285.414391719193,2344.713391719193,2289.403391719193,2354.713391719193,2289.403391719193,2354.713391719193z"></path>
	<path fill="#2B3754" d="M2285.903391719193,2315.7233917191934C2265.903391719193,2315.2233917191934,2267.5733917191933,2314.0533917191933,2264.7433917191934,2308.7233917191934C2261.903391719193,2303.3833917191932,2260.5733917191933,2296.0533917191933,2259.2433917191934,2292.8833917191932C2257.903391719193,2289.7233917191934,2257.8233917191933,2283.3033917191933,2256.153391719193,2280.4733917191934C2254.4933917191934,2277.6333917191932,2252.5733917191933,2272.8833917191932,2252.5733917191933,2272.8833917191932L2252.463391719193,2270.6133917191933L2252.743391719193,2270.603391719193C2254.233391719193,2269.983391719193,2255.543391719193,2269.813391719193,2255.993391719193,2270.8033917191933C2257.243391719193,2273.5533917191933,2258.913391719193,2276.7233917191934,2258.913391719193,2276.7233917191934S2267.163391719193,2263.7233917191934,2270.413391719193,2259.7233917191934C2273.663391719193,2255.7233917191934,2276.413391719193,2246.4733917191934,2276.413391719193,2246.4733917191934L2276.5623917191933,2245.503391719193C2278.072391719193,2245.793391719193,2290.302391719193,2248.173391719193,2296.163391719193,2251.2233917191934C2296.163391719193,2251.2233917191934,2299.163391719193,2251.9733917191934,2298.163391719193,2255.7233917191934L2297.163391719193,2256.0533917191933C2296.163391719193,2256.0533917191933,2294.992391719193,2257.7233917191934,2294.992391719193,2257.7233917191934S2287.242391719193,2275.2233917191934,2287.992391719193,2286.0533917191933C2288.673391719193,2295.933391719193,2291.3833917191932,2299.983391719193,2291.8523917191933,2300.6133917191933C2291.822391719193,2300.693391719193,2291.802391719193,2300.773391719193,2291.7723917191934,2300.853391719193C2291.422391719193,2306.123391719193,2290.043391719193,2312.8033917191933,2287.232391719193,2315.7233917191934C2286.384391719193,2315.733391719193,2285.903391719193,2315.7233917191934,2285.903391719193,2315.7233917191934z"></path>
	<path fill="#FFDCD2" d="M2279.3343917191933,2190.3833917191932L2282.7543917191933,2185.193391719193C2282.7543917191933,2185.193391719193,2285.0043917191933,2184.443391719193,2286.014391719193,2186.3033917191933C2286.5643917191933,2187.293391719193,2286.7543917191933,2189.033391719193,2286.0643917191933,2192.033391719193C2284.074391719193,2199.023391719193,2277.6743917191934,2201.373391719193,2277.6743917191934,2201.373391719193S2277.0733917191933,2202.5333917191933,2276.1133917191933,2204.3033917191933L2275.643391719193,2204.0533917191933C2278.293391719193,2196.653391719193,2278.903391719193,2188.963391719193,2278.903391719193,2188.963391719193L2279.453391719193,2189.003391719193C2279.403391719193,2189.873391719193,2279.3343917191933,2190.3833917191932,2279.3343917191933,2190.3833917191932z"></path>
	<path fill="#BA3E2A" d="M2270.5443917191933,2129.713391719193C2267.404391719193,2134.1833917191934,2262.0443917191933,2136.3033917191933,2245.264391719193,2136.5933917191933C2225.494391719193,2136.793391719193,2226.3143917191933,2127.313391719193,2226.3143917191933,2127.313391719193L2225.184391719193,2127.043391719193C2225.344391719193,2127.043391719193,2225.5043917191933,2127.033391719193,2225.664391719193,2127.023391719193C2225.664391719193,2127.023391719193,2222.264391719193,2111.743391719193,2244.3343917191933,2108.653391719193C2266.154391719193,2105.5933917191933,2277.953391719193,2115.173391719193,2270.953391719193,2129.903391719193L2270.5443917191933,2129.713391719193z"></path>
	<path fill="#2B3754" d="M2252.463391719193,2270.6133917191933L2252.313391719193,2267.443391719193C2254.653391719193,2265.4733917191934,2258.3233917191933,2262.673391719193,2262.413391719193,2258.2233917191934C2267.913391719193,2252.2233917191934,2267.413391719193,2245.4733917191934,2267.413391719193,2245.4733917191934S2265.663391719193,2244.9733917191934,2261.163391719193,2243.9733917191934S2256.0333917191933,2238.4733917191934,2256.0333917191933,2238.4733917191934L2256.673391719193,2237.483391719193C2256.9733917191934,2237.623391719193,2262.7833917191933,2240.443391719193,2267.163391719193,2239.2233917191934C2271.663391719193,2237.9733917191934,2272.913391719193,2241.7233917191934,2276.413391719193,2245.4733917191934C2276.413391719193,2245.4733917191934,2276.463391719193,2245.483391719193,2276.5623917191933,2245.503391719193L2276.413391719193,2246.4733917191934C2276.413391719193,2246.4733917191934,2273.663391719193,2255.7233917191934,2270.413391719193,2259.7233917191934C2267.163391719193,2263.7233917191934,2258.913391719193,2276.7233917191934,2258.913391719193,2276.7233917191934S2257.2433917191934,2273.5533917191933,2255.9933917191934,2270.8033917191933C2255.543391719193,2269.813391719193,2254.233391719193,2269.983391719193,2252.7433917191934,2270.603391719193L2252.463391719193,2270.6133917191933z"></path>
	<path fill="#FFDCD2" d="M2237.994391719193,2227.413391719193C2235.974391719193,2225.333391719193,2233.944391719193,2222.9533917191934,2231.914391719193,2220.5533917191933C2227.5643917191933,2215.413391719193,2223.514391719193,2207.2833917191933,2221.7943917191933,2203.6333917191932L2222.324391719193,2203.3833917191932C2219.674391719193,2195.993391719193,2219.2743917191933,2189.7633917191934,2219.2743917191933,2189.7633917191934L2218.824391719193,2189.7633917191934C2218.8543917191932,2187.6133917191933,2219.074391719193,2181.083391719193,2220.914391719193,2176.0133917191934C2223.144391719193,2169.8433917191933,2224.664391719193,2167.7233917191934,2225.394391719193,2162.783391719193C2230.724391719193,2168.2233917191934,2236.944391719193,2169.8833917191932,2248.7143917191934,2170.1833917191934C2260.494391719193,2170.4733917191934,2270.094391719193,2162.8533917191935,2270.094391719193,2162.8533917191935C2271.6043917191932,2169.1833917191934,2276.5843917191933,2171.6133917191933,2278.394391719193,2178.1133917191933C2279.634391719193,2182.563391719193,2279.5843917191933,2186.873391719193,2279.454391719193,2189.003391719193L2278.904391719193,2188.963391719193C2278.904391719193,2188.963391719193,2278.295391719193,2196.653391719193,2275.644391719193,2204.0533917191933L2276.114391719193,2204.3033917191933C2273.934391719193,2208.3233917191933,2269.875391719193,2215.5133917191934,2266.684391719193,2219.5733917191933C2264.0443917191933,2222.923391719193,2260.244391719193,2227.153391719193,2256.494391719193,2230.163391719193C2253.684391719193,2232.403391719193,2250.904391719193,2233.9733917191934,2248.664391719193,2233.9733917191934C2245.273391719193,2233.9733917191934,2241.663391719193,2231.203391719193,2237.994391719193,2227.413391719193z"></path>
	<path fill="#FFDCD2" d="M2250.163391719193,2543.5933917191933C2250.163391719193,2543.5933917191933,2250.163391719193,2543.614391719193,2250.153391719193,2543.654391719193L2249.5733917191933,2543.5533917191933C2249.5733917191933,2543.5533917191933,2246.413391719193,2541.4733917191934,2246.7433917191934,2534.0533917191933C2247.2433917191934,2524.8833917191932,2244.5733917191933,2528.7233917191934,2245.413391719193,2520.7233917191934C2246.2433917191934,2512.7233917191934,2246.5733917191933,2503.5533917191933,2244.913391719193,2490.2233917191934C2243.2433917191934,2476.8833917191932,2242.7433917191934,2469.393391719193,2244.913391719193,2466.8833917191932C2247.003391719193,2464.4733917191934,2248.163391719193,2462.523391719193,2255.293391719193,2464.193391719193C2255.543391719193,2464.2543917191933,2255.8033917191933,2464.313391719193,2256.0733917191933,2464.3833917191932C2263.913391719193,2466.3833917191932,2262.0733917191933,2468.393391719193,2277.742391719193,2468.2233917191934C2289.5623917191933,2468.0933917191933,2298.152391719193,2460.773391719193,2308.202391719193,2456.213391719193C2309.413391719193,2455.663391719193,2310.6423917191933,2455.153391719193,2311.902391719193,2454.703391719193L2311.913391719193,2454.7233917191934C2305.413391719193,2469.7233917191934,2316.913391719193,2484.3433917191933,2316.913391719193,2484.3433917191933L2316.913391719193,2484.373391719193C2301.7633917191934,2486.913391719193,2288.173391719193,2489.7833917191933,2280.413391719193,2491.2233917191934C2268.282391719193,2493.4733917191934,2266.7233917191934,2494.284391719193,2262.9733917191934,2504.034391719193S2258.163391719193,2517.4733917191934,2256.913391719193,2521.9733917191934S2256.163391719193,2526.9733917191934,2255.413391719193,2536.9733917191934C2255.483391719193,2539.0133917191934,2255.413391719193,2543.2233917191934,2255.413391719193,2543.2233917191934L2250.163391719193,2543.5933917191933z"></path>
	<path fill="#FFDCD2" d="M2298.164391719193,2255.7233917191934C2298.164391719193,2255.7233917191934,2313.164391719193,2273.7233917191934,2324.664391719193,2289.7233917191934S2344.0333917191933,2321.8433917191933,2342.0333917191933,2331.3433917191933S2343.664391719193,2340.4733917191934,2324.914391719193,2339.7233917191934C2308.5043917191933,2339.063391719193,2298.414391719193,2336.4933917191934,2285.094391719193,2333.353391719193C2283.1943917191934,2332.903391719193,2281.224391719193,2332.443391719193,2279.164391719193,2331.9733917191934C2262.664391719193,2328.2233917191934,2251.414391719193,2318.7233917191934,2251.414391719193,2318.7233917191934L2251.414391719193,2317.8833917191932C2251.414391719193,2317.8833917191932,2249.914391719193,2305.3833917191932,2250.414391719193,2300.8833917191932S2248.744391719193,2291.8833917191932,2247.244391719193,2287.5533917191933S2245.414391719193,2282.2233917191934,2245.414391719193,2279.5533917191933S2248.074391719193,2278.5533917191933,2248.074391719193,2278.5533917191933S2247.414391719193,2273.3833917191932,2248.074391719193,2272.5533917191933C2248.2743917191933,2272.3033917191933,2248.594391719193,2272.1133917191933,2248.9643917191934,2272.003391719193L2248.914391719193,2271.2233917191934C2248.914391719193,2271.2233917191934,2249.074391719193,2268.5533917191933,2248.074391719193,2266.5533917191933L2248.244391719193,2265.8833917191932C2248.244391719193,2265.8833917191932,2250.744391719193,2265.2233917191934,2252.244391719193,2265.8833917191932L2252.3143917191933,2267.443391719193L2252.4643917191934,2270.6133917191933L2252.574391719193,2272.8833917191932C2252.574391719193,2272.8833917191932,2254.494391719193,2277.6333917191932,2256.154391719193,2280.4733917191934C2257.824391719193,2283.3033917191933,2257.904391719193,2289.7233917191934,2259.244391719193,2292.8833917191932C2260.574391719193,2296.0533917191933,2261.904391719193,2303.3833917191932,2264.744391719193,2308.7233917191934C2267.574391719193,2314.0533917191933,2265.904391719193,2315.2233917191934,2285.904391719193,2315.7233917191934C2285.904391719193,2315.7233917191934,2286.384391719193,2315.733391719193,2287.2343917191934,2315.7233917191934C2290.744391719193,2315.703391719193,2300.614391719193,2315.483391719193,2310.904391719193,2313.8833917191932C2310.904391719193,2313.8833917191932,2298.574391719193,2299.0533917191933,2296.4153917191934,2294.8833917191932C2295.3453917191932,2292.833391719193,2293.4153917191934,2295.703391719193,2291.8543917191932,2300.6133917191933C2291.384391719193,2299.983391719193,2288.6743917191934,2295.933391719193,2287.994391719193,2286.0533917191933C2287.244391719193,2275.2233917191934,2294.994391719193,2257.7233917191934,2294.994391719193,2257.7233917191934S2296.1653917191934,2256.0533917191933,2297.1653917191934,2256.0533917191933L2298.164391719193,2255.7233917191934z"></path>
	<path fill="#FFDCD2" d="M2248.963391719193,2272.003391719193C2248.5933917191933,2272.1133917191933,2248.273391719193,2272.3033917191933,2248.0733917191933,2272.5533917191933C2247.413391719193,2273.3833917191932,2248.0733917191933,2278.5533917191933,2248.0733917191933,2278.5533917191933S2245.413391719193,2276.8833917191932,2245.413391719193,2279.5533917191933S2245.7433917191934,2283.2233917191934,2247.2433917191934,2287.5533917191933S2250.913391719193,2296.3833917191932,2250.413391719193,2300.8833917191932S2251.413391719193,2317.8833917191932,2251.413391719193,2317.8833917191932L2251.413391719193,2318.7233917191934C2250.7433917191934,2321.393391719193,2248.173391719193,2323.8033917191933,2244.483391719193,2325.9933917191934C2235.7433917191934,2331.193391719193,2220.663391719193,2335.2033917191934,2209.413391719193,2338.7233917191934C2208.543391719193,2338.9933917191934,2207.6333917191932,2339.253391719193,2206.683391719193,2339.483391719193C2190.333391719193,2343.5733917191933,2164.283391719193,2342.313391719193,2160.033391719193,2341.8433917191933C2155.533391719193,2341.3433917191933,2154.413391719193,2330.4733917191934,2158.913391719193,2316.4733917191934S2167.413391719193,2294.0533917191933,2174.533391719193,2281.5933917191933S2193.663391719193,2254.3833917191932,2193.663391719193,2254.3833917191932C2197.663391719193,2255.0533917191933,2199.663391719193,2258.9733917191934,2200.913391719193,2271.2233917191934S2201.403391719193,2294.0533917191933,2197.703391719193,2298.6833917191934L2197.3833917191932,2298.6833917191934C2197.443391719193,2294.773391719193,2197.6133917191933,2291.2633917191934,2197.6133917191933,2291.2633917191934S2193.163391719193,2302.9733917191934,2190.413391719193,2309.2233917191934S2184.663391719193,2319.7233917191934,2184.663391719193,2319.7233917191934S2188.793391719193,2321.3433917191933,2200.463391719193,2320.5133917191934C2203.983391719193,2320.2633917191934,2208.1833917191934,2319.7833917191933,2213.163391719193,2318.9733917191934C2239.413391719193,2315.2233917191934,2235.913391719193,2314.2233917191934,2239.413391719193,2298.4733917191934L2241.913391719193,2291.2233917191934C2241.913391719193,2291.2233917191934,2242.893391719193,2283.4733917191934,2243.353391719193,2276.813391719193C2243.463391719193,2275.233391719193,2243.543391719193,2273.7233917191934,2243.5733917191933,2272.3833917191932C2243.7433917191934,2265.3833917191932,2244.2433917191934,2263.3833917191932,2248.2433917191934,2265.8833917191932L2248.0733917191933,2266.5533917191933C2249.0733917191933,2268.5533917191933,2248.913391719193,2271.2233917191934,2248.913391719193,2271.2233917191934L2248.963391719193,2272.003391719193z"></path>
	<path fill="#2B3754" d="M2241.074391719193,2358.5533917191933C2241.074391719193,2358.5533917191933,2243.074391719193,2362.2233917191934,2244.414391719193,2362.8833917191932L2244.434391719193,2364.8433917191933C2232.824391719193,2364.853391719193,2234.494391719193,2360.933391719193,2228.744391719193,2363.0533917191933C2223.9843917191934,2364.8033917191933,2213.2343917191934,2363.923391719193,2208.164391719193,2363.3833917191932C2206.4643917191934,2363.203391719193,2205.404391719193,2363.0533917191933,2205.404391719193,2363.0533917191933S2201.744391719193,2359.3833917191932,2203.404391719193,2355.3833917191932C2205.074391719193,2351.3833917191932,2206.744391719193,2339.723391719193,2206.744391719193,2339.723391719193L2206.684391719193,2339.483391719193C2207.634391719193,2339.253391719193,2208.5443917191933,2338.993391719193,2209.414391719193,2338.723391719193C2220.664391719193,2335.203391719193,2235.744391719193,2331.193391719193,2244.4843917191934,2325.993391719193L2245.344391719193,2326.233391719193C2245.2543917191933,2328.423391719193,2245.1543917191934,2330.4733917191934,2245.034391719193,2332.3433917191933C2244.244391719193,2344.7233917191934,2236.574391719193,2349.7233917191934,2241.074391719193,2358.5533917191933z"></path>
	<path fill="#FFDCD2" d="M2243.574391719193,2272.3833917191932C2243.5443917191933,2273.7233917191934,2243.4643917191934,2275.233391719193,2243.3543917191932,2276.813391719193L2243.224391719193,2276.8033917191933C2243.204391719193,2276.773391719193,2243.1943917191934,2276.7433917191934,2243.1743917191934,2276.7233917191934C2243.1743917191934,2276.713391719193,2243.1743917191934,2276.713391719193,2243.1743917191934,2276.713391719193C2241.614391719193,2273.9933917191934,2239.914391719193,2273.2233917191934,2239.914391719193,2273.2233917191934C2225.164391719193,2262.4733917191934,2225.914391719193,2245.9733917191934,2225.914391719193,2245.9733917191934S2227.914391719193,2244.7233917191934,2231.914391719193,2243.7233917191934C2235.664391719193,2242.7833917191933,2237.434391719193,2239.793391719193,2237.644391719193,2239.423391719193L2235.0843917191933,2238.643391719193C2236.4243917191934,2238.483391719193,2237.324391719193,2238.3833917191932,2237.324391719193,2238.3833917191932C2238.614391719193,2236.1333917191932,2238.034391719193,2227.9733917191934,2237.994391719193,2227.413391719193C2241.664391719193,2231.203391719193,2245.2743917191933,2233.9733917191934,2248.664391719193,2233.9733917191934C2250.904391719193,2233.9733917191934,2253.684391719193,2232.403391719193,2256.494391719193,2230.163391719193L2256.664391719193,2230.3833917191932L2256.664391719193,2237.4733917191934C2256.664391719193,2237.4733917191934,2256.664391719193,2237.4733917191934,2256.674391719193,2237.483391719193L2256.034391719193,2238.4733917191934C2256.034391719193,2238.4733917191934,2256.664391719193,2242.9733917191934,2261.164391719193,2243.9733917191934S2267.414391719193,2245.4733917191934,2267.414391719193,2245.4733917191934S2267.914391719193,2252.2233917191934,2262.414391719193,2258.2233917191934C2258.324391719193,2262.673391719193,2254.654391719193,2265.4733917191934,2252.3143917191933,2267.443391719193L2252.244391719193,2265.8833917191932C2250.744391719193,2265.2233917191934,2248.244391719193,2265.8833917191932,2248.244391719193,2265.8833917191932C2244.244391719193,2263.3833917191932,2243.744391719193,2265.3833917191932,2243.574391719193,2272.3833917191932z"></path>
	<path fill="#2B3754" d="M2243.224391719193,2276.8033917191933L2243.3543917191932,2276.813391719193C2242.894391719193,2283.4733917191934,2241.914391719193,2291.2233917191934,2241.914391719193,2291.2233917191934L2239.414391719193,2298.4733917191934C2235.914391719193,2314.2233917191934,2239.414391719193,2315.2233917191934,2213.164391719193,2318.9733917191934C2208.184391719193,2319.7833917191933,2203.9843917191934,2320.2633917191934,2200.4643917191934,2320.5133917191934L2200.404391719193,2319.7233917191934C2197.404391719193,2314.3833917191932,2197.574391719193,2309.7233917191934,2197.404391719193,2304.3833917191932C2197.3543917191932,2302.6333917191932,2197.3543917191932,2300.6133917191933,2197.3843917191934,2298.683391719193L2197.704391719193,2298.683391719193C2201.404391719193,2294.0533917191933,2202.164391719193,2283.4733917191934,2200.914391719193,2271.2233917191934S2197.664391719193,2255.0533917191933,2193.664391719193,2254.3833917191932C2193.664391719193,2254.3833917191932,2193.664391719193,2252.3833917191932,2197.994391719193,2250.7233917191934C2201.8543917191932,2249.233391719193,2215.7543917191933,2246.693391719193,2218.7543917191933,2246.153391719193L2220.134391719193,2246.793391719193L2216.664391719193,2254.2233917191934C2216.664391719193,2254.2233917191934,2226.664391719193,2274.7233917191934,2227.164391719193,2278.2233917191934C2227.164391719193,2278.2233917191934,2231.034391719193,2271.0933917191933,2234.034391719193,2271.8433917191933S2243.164391719193,2276.7233917191934,2243.164391719193,2276.7233917191934L2243.174391719193,2276.7233917191934C2243.193391719193,2276.7433917191934,2243.203391719193,2276.773391719193,2243.224391719193,2276.8033917191933z"></path>
	<path fill="#2B3754" d="M2243.163391719193,2276.7233917191934C2243.163391719193,2276.7233917191934,2237.0333917191933,2272.5933917191933,2234.0333917191933,2271.8433917191933S2227.163391719193,2278.2233917191934,2227.163391719193,2278.2233917191934C2226.663391719193,2274.7233917191934,2216.663391719193,2254.2233917191934,2216.663391719193,2254.2233917191934L2220.1333917191932,2246.793391719193L2218.753391719193,2246.153391719193C2219.123391719193,2246.0933917191933,2219.3233917191933,2246.0533917191933,2219.3233917191933,2246.0533917191933S2221.3233917191933,2239.7233917191934,2223.663391719193,2239.7233917191934C2225.333391719193,2239.7233917191934,2231.663391719193,2239.0333917191933,2235.083391719193,2238.643391719193L2237.643391719193,2239.423391719193C2237.433391719193,2239.793391719193,2235.663391719193,2242.7833917191933,2231.913391719193,2243.7233917191934C2227.913391719193,2244.7233917191934,2225.913391719193,2245.9733917191934,2225.913391719193,2245.9733917191934S2225.163391719193,2262.4733917191934,2239.913391719193,2273.2233917191934C2239.913391719193,2273.2233917191934,2241.6133917191933,2273.9933917191934,2243.173391719193,2276.713391719193C2243.173391719193,2276.713391719193,2243.173391719193,2276.713391719193,2243.173391719193,2276.7233917191934L2243.163391719193,2276.7233917191934z"></path>
	<path fill="#BA3E2A" d="M2213.603391719193,2186.413391719193C2211.183391719193,2181.293391719193,2209.173391719193,2176.243391719193,2207.6133917191933,2169.233391719193C2206.3433917191933,2163.5533917191933,2206.153391719193,2157.1133917191933,2208.3033917191933,2149.693391719193C2212.9933917191934,2133.503391719193,2226.0133917191934,2131.423391719193,2226.6333917191932,2131.333391719193C2226.063391719193,2131.333391719193,2214.183391719193,2131.203391719193,2212.463391719193,2120.003391719193C2212.463391719193,2120.003391719193,2219.713391719193,2127.043391719193,2225.1833917191934,2127.043391719193L2226.313391719193,2127.313391719193C2226.313391719193,2127.313391719193,2225.4933917191934,2136.793391719193,2245.2633917191934,2136.5933917191933C2262.043391719193,2136.3033917191933,2267.403391719193,2134.1833917191934,2270.543391719193,2129.713391719193L2270.953391719193,2129.903391719193C2270.884391719193,2130.0733917191933,2270.7943917191933,2130.233391719193,2270.7143917191934,2130.403391719193C2270.7143917191934,2130.403391719193,2285.434391719193,2131.2233917191934,2289.8233917191933,2150.3833917191932C2291.844391719193,2159.193391719193,2291.9933917191934,2166.3433917191933,2291.0733917191933,2172.213391719193C2289.9933917191934,2179.1033917191935,2288.164391719193,2182.7233917191934,2286.164391719193,2186.2233917191934L2286.014391719193,2186.3033917191933C2285.0043917191933,2184.443391719193,2282.7543917191933,2185.193391719193,2282.7543917191933,2185.193391719193L2279.3343917191933,2190.3833917191932C2279.3343917191933,2190.3833917191932,2279.403391719193,2189.873391719193,2279.4533917191934,2189.003391719193C2279.5843917191933,2186.873391719193,2279.6343917191934,2182.563391719193,2278.393391719193,2178.1133917191933C2276.583391719193,2171.6133917191933,2271.603391719193,2169.1833917191934,2270.0933917191933,2162.8533917191935C2270.0933917191933,2162.8533917191935,2260.4933917191934,2170.4733917191934,2248.713391719193,2170.1833917191934C2236.943391719193,2169.8833917191932,2230.7233917191934,2168.2233917191934,2225.393391719193,2162.783391719193C2224.663391719193,2167.7233917191934,2223.143391719193,2169.8433917191933,2220.913391719193,2176.0133917191934C2219.0733917191933,2181.083391719193,2218.853391719193,2187.6133917191933,2218.8233917191933,2189.7633917191934C2218.8233917191933,2190.2233917191934,2218.8233917191933,2190.483391719193,2218.8233917191933,2190.483391719193L2215.8633917191933,2185.413391719193C2215.8633917191933,2185.413391719193,2215.0933917191933,2185.7633917191934,2214.423391719193,2187.003391719193L2213.603391719193,2186.413391719193z"></path>
	<path fill="#FFDCD2" d="M2225.304391719193,2708.932391719193C2225.304391719193,2708.932391719193,2224.414391719193,2708.9823917191934,2222.704391719193,2708.453391719193C2220.994391719193,2707.932391719193,2220.5443917191933,2705.8833917191932,2220.5443917191933,2705.8833917191932C2218.1943917191934,2705.5533917191933,2217.9443917191934,2702.643391719193,2217.9443917191934,2702.643391719193C2218.2743917191933,2700.293391719193,2219.684391719193,2697.143391719193,2219.684391719193,2697.143391719193S2220.514391719193,2694.833391719193,2224.9243917191934,2690.333391719193C2229.3343917191933,2685.8233917191933,2229.054391719193,2683.2833917191933,2229.054391719193,2683.2833917191933C2227.744391719193,2674.0533917191933,2230.074391719193,2667.3123917191933,2228.7343917191934,2659.673391719193C2227.394391719193,2652.023391719193,2224.5243917191933,2644.663391719193,2217.7943917191933,2623.9933917191934C2215.494391719193,2616.903391719193,2214.404391719193,2607.3033917191933,2213.9843917191934,2597.5733917191933L2214.0843917191933,2597.5733917191933C2214.0843917191933,2597.5733917191933,2228.8143917191933,2607.123391719193,2247.684391719193,2599.463391719193C2248.494391719193,2612.9933917191934,2248.0843917191933,2624.9423917191934,2247.2343917191934,2634.6833917191934C2246.154391719193,2647.0133917191934,2245.074391719193,2655.3833917191932,2246.2543917191933,2663.083391719193C2247.4243917191934,2670.7833917191933,2248.904391719193,2677.243391719193,2248.5843917191933,2682.3633917191933C2248.2543917191933,2687.472391719193,2247.374391719193,2694.673391719193,2249.054391719193,2698.463391719193C2250.724391719193,2702.253391719193,2247.994391719193,2707.653391719193,2247.994391719193,2707.653391719193S2249.4843917191934,2712.182391719193,2244.7543917191933,2713.1423917191933C2240.034391719193,2714.1133917191933,2238.3543917191932,2711.7033917191934,2238.3543917191932,2711.7033917191934S2237.344391719193,2713.253391719193,2234.6043917191932,2713.0133917191934C2231.864391719193,2712.773391719193,2231.514391719193,2711.1033917191935,2231.514391719193,2711.1033917191935S2229.5643917191933,2711.8133917191935,2228.0843917191933,2711.5633917191935C2226.594391719193,2711.3033917191933,2225.304391719193,2708.932391719193,2225.304391719193,2708.932391719193z"></path>
	<path fill="#FFDCD2" d="M2219.273391719193,2189.7633917191934C2219.273391719193,2189.7633917191934,2219.673391719193,2195.993391719193,2222.3233917191933,2203.3833917191932L2221.793391719193,2203.6333917191932C2221.2433917191934,2202.453391719193,2220.933391719193,2201.7433917191934,2220.933391719193,2201.7433917191934S2213.443391719193,2197.1133917191933,2213.443391719193,2191.813391719193C2213.443391719193,2189.493391719193,2213.903391719193,2187.983391719193,2214.423391719193,2187.003391719193C2215.0933917191933,2185.7633917191934,2215.8633917191933,2185.413391719193,2215.8633917191933,2185.413391719193L2218.8233917191933,2190.483391719193C2218.8233917191933,2190.483391719193,2218.8233917191933,2190.2233917191934,2218.8233917191933,2189.7633917191934L2219.273391719193,2189.7633917191934z"></path>
</g></g></g></svg>
