
<svg xmlns="http://www.w3.org/2000/svg"   width="100%" height="100%"    class="rootSVG id_0cd95481baf54c16bcdb6492d2f9e7d0" viewBox="331.32366943359375 331.32366943359375 252.07000732421875 126.85982666015624"><defs class="svgDefs"></defs><text class="svgTextDescription" x="331.32366943359375" y="455.6627960205078" font-size="12.603500366210938px">Click to Enter Text</text><g class="svgTranslatableG"><g class="svgHeightAxis"><g><g class="svgMeasureAxisY" transform="translate(555.846792602539 350)"><path class="svgMeasureY" d="m0,0 l  0,76.39999389648438" stroke="darkgrey"  stroke-width="1.1693585205078125"></path><text id="svgYAxis_g1" fill="darkgrey" font-weight="bold" x="2.338717041015625px" y="38.19999694824219" font-size="8.770188903808595px">6.18m</text></g><g class="svgMeasureAxisX" transform="translate(350 432.2467864990234)"><path class="svgMeasureX" d="m0,0 l200,0" stroke="darkgrey"  stroke-width="1.1693585205078125"></path><text id="svgXAxis_g1" fill="darkgrey" font-weight="bold" x="76.984375" y="8.770188903808595px" font-size="8.770188903808595px">16.2m</text></g></g></g><g class="svgVisualisationG"><g id="g1" style="display: none;">
      <path id="faceBack" class="face faceBack" d="M331.3236627379873,331.3236627379873L512.6473254759746,331.3236627379873L512.6473254759746,400.58930190389844L331.3236627379873,400.58930190389844Z" threeD="true" fill="rgba(164, 75, 75, 0.7)">
        </path>
      <path id="faceBottom" class="face faceBottom" d="M350,426.4L550,426.4L512.6473254759746,400.58930190389844L331.3236627379873,400.58930190389844Z" threeD="true" fill="rgba(129, 59, 59, 0.7)">
        </path>
      <path id="faceRight" class="face faceRight" d="M550,350L512.6473254759746,331.3236627379873L512.6473254759746,400.58930190389844L550,426.4Z" threeD="true" fill="rgba(94, 43, 43, 0.7)">
        </path>      
      <path id="faceLeft" class="face faceLeft" d="M350,350L331.3236627379873,331.3236627379873L331.3236627379873,400.58930190389844L350,426.4Z" threeD="true" fill="rgba(94, 43, 43, 0.7)">
        </path>
      <path id="faceTop" class="face faceTop" d="M350,350L550,350L512.6473254759746,331.3236627379873L331.3236627379873,331.3236627379873Z" threeD="true" fill="rgba(129, 59, 59, 0.7)">
        </path>
     <path id="faceFront" class="face faceFront" d="M350,350L550,350L550,426.4L350,426.4Z" threeD="true" fill="rgba(164, 75, 75, 0.7)">
        </path>
	</g><g id="g1">
      
      
            
      
      
     <path id="faceBack" class="face faceBack" d="M331.3236627379873,331.3236627379873L512.6473254759746,331.3236627379873L512.6473254759746,400.58930190389844L331.3236627379873,400.58930190389844Z" threeD="true" fill="rgba(164, 75, 75, 0.7)">
        </path><path id="faceBottom" class="face faceBottom" d="M350,426.4L550,426.4L512.6473254759746,400.58930190389844L331.3236627379873,400.58930190389844Z" threeD="true" fill="rgba(129, 59, 59, 0.7)">
        </path><path id="faceRight" class="face faceRight" d="M550,350L512.6473254759746,331.3236627379873L512.6473254759746,400.58930190389844L550,426.4Z" threeD="true" fill="rgba(94, 43, 43, 0.7)">
        </path><path id="faceFront" class="face faceFront" d="M350,350L550,350L550,426.4L350,426.4Z" threeD="true" fill="rgba(164, 75, 75, 0.7)">
        </path><path id="faceTop" class="face faceTop" d="M350,350L550,350L512.6473254759746,331.3236627379873L331.3236627379873,331.3236627379873Z" threeD="true" fill="rgba(129, 59, 59, 0.7)">
        </path><path id="faceLeft" class="face faceLeft" d="M350,350L331.3236627379873,331.3236627379873L331.3236627379873,400.58930190389844L350,426.4Z" threeD="true" fill="rgba(94, 43, 43, 0.7)">
        </path>
	</g></g><g class="svgReferenceGContainer"><g transform="translate(134.87234334142934 201.11547817804342) scale(0.02145182074455074)" id="layer1">
    <path d="M9668.409253637019,10097.274913637018C9680.911223637018,10093.865283637018,9692.844913637018,10093.865283637018,9697.95934363702,10099.54799363702,9703.073793637019,10105.230703637018,9705.34687363702,10125.688483637019,9720.69018363702,10125.12019363702,9736.03350363702,10124.551913637019,9746.262383637019,10111.48168363702,9763.31051363702,10116.027843637019,9780.358643637019,10120.574013637019,9805.362553637018,10133.07599363702,9847.414613637018,10130.80289363702,9889.466653637019,10128.529813637018,9951.976463637018,10093.865283637018,9963.341883637018,10099.54799363702,9974.707303637018,10105.230703637018,9975.843833637018,10113.186503637018,9981.52654363702,10109.77687363702,9987.209253637018,10106.36725363702,9992.89196363702,10089.887383637019,9992.89196363702,10089.887383637019,9992.89196363702,10089.887383637019,9942.884133637019,9944.97829363702,9944.588933637018,9907.472413637019,9946.29375363702,9869.966533637018,9929.24562363702,9780.179723637018,9929.24562363702,9780.179723637018,9929.24562363702,9780.179723637018,9775.24420363702,9787.567253637018,9775.24420363702,9789.84033363702,9775.24420363702,9792.113413637018,9722.963273637019,10017.71697363702,9668.409253637019,10097.274913637018z" id="path3389" style="fill:#cc0000;stroke:none"></path>
    <path d="M9783.19999363702,9738.12768363702C9774.107653637018,9786.43070363702,9729.915233637019,9994.519453637018,9654.202483637018,10093.297013637019,9644.10574363702,10106.469593637019,9662.726543637018,10133.07599363702,9662.726543637018,10133.07599363702,9662.726543637018,10133.07599363702,9779.22209363702,9890.42428363702,9783.19999363702,9738.12768363702z" id="path3387" style="fill:#a40000;stroke:none"></path>
    <path d="M9988.34580363702,10160.352983637018C9991.18715363702,10113.75478363702,9986.072713637019,10080.22678363702,9967.319773637018,10037.03819363702,9948.566833637018,9993.84960363702,9937.20142363702,9904.631063637018,9937.76968363702,9868.829993637019,9938.33795363702,9833.028923637019,9945.72548363702,9817.117343637019,9945.72548363702,9817.117343637019,9945.72548363702,9817.117343637019,9949.70337363702,9862.57901363702,9956.522623637018,9903.494523637019,9963.341883637018,9944.41003363702,10014.48626363702,10076.24888363702,10013.349713637019,10106.36725363702,10012.213183637019,10136.485603637018,9988.34580363702,10160.352983637018,9988.34580363702,10160.352983637018z" id="path3391" style="fill:#a40000;stroke:none"></path>
    <path d="M9783.94754363702,9662.535123637019C9783.94754363702,9662.535123637019,9790.175893637019,9698.49874363702,9823.125793637018,9674.389053637018,9856.07571363702,9650.279353637019,9858.08485363702,9711.35725363702,9858.08485363702,9711.35725363702,9858.08485363702,9711.35725363702,9852.01113363702,9720.913723637019,9838.316233637019,9724.13252363702,9830.064513637019,9726.071993637019,9821.11666363702,9724.014833637018,9821.11666363702,9724.014833637018,9821.11666363702,9724.014833637018,9830.15779363702,9721.001133637019,9832.36784363702,9712.76365363702,9823.125793637018,9721.001133637019,9813.08009363702,9716.982843637019,9813.08009363702,9716.982843637019,9813.08009363702,9716.982843637019,9826.74225363702,9711.35725363702,9827.94774363702,9701.311543637019,9822.924893637019,9705.32982363702,9809.262723637019,9716.380103637019,9788.970403637019,9698.699663637019,9803.03439363702,9700.909713637018,9809.66455363702,9693.67680363702,9809.66455363702,9693.67680363702,9809.66455363702,9693.67680363702,9781.536573637019,9692.069493637018,9783.94754363702,9662.535123637019z" id="path3334" style="fill:#edd400;stroke:none"></path>
    <path d="M9855.372183637019,9703.468243637019C9855.372183637019,9703.468243637019,9850.816443637019,9725.49333363702,9844.184343637018,9740.984793637019,9817.37345363702,9736.827173637019,9786.649193637018,9732.20511363702,9773.539383637019,9738.12567363702,9755.92298363702,9746.08146363702,9697.600953637018,9840.482263637019,9668.125123637019,9887.296793637019,9663.29481363702,9894.968453637019,9711.59607363702,9947.82297363702,9711.59607363702,9947.82297363702L9730.354343637018,9935.88928363702,9711.024253637019,9886.45149363702C9711.024253637019,9886.45149363702,9744.561123637019,9854.05294363702,9754.22173363702,9841.550983637018,9763.882333637019,9829.049023637019,9776.386073637019,9817.683613637018,9776.386073637019,9817.683613637018,9776.386073637019,9817.683613637018,9796.134553637019,9876.67162363702,9791.72583363702,9905.769153637018,9783.201773637018,9962.02798363702,9765.01701363702,9955.779153637019,9755.352943637019,10043.292493637018,9745.177333637019,10135.43810363702,9818.42924363702,10231.391973637019,9828.658113637019,10272.30742363702,9838.88699363702,10313.22297363702,9839.46058363702,10336.513153637019,9839.46058363702,10336.513153637019L9904.23814363702,10330.26048363702C9904.23814363702,10330.26048363702,9900.269133637019,10288.77667363702,9907.65665363702,10262.636173637018,9915.04417363702,10236.49577363702,9958.790393637018,10095.003383637018,9945.72015363702,10033.061843637019,9932.649923637018,9971.120303637019,9916.70648363702,9951.67679363702,9924.699453637018,9918.83406363702,9931.812363637018,9889.60746363702,9938.572373637018,9883.26917363702,9938.572373637018,9883.26917363702,9938.572373637018,9883.26917363702,9962.775393637019,9871.09752363702,9952.546503637019,9840.41089363702L9989.48412363702,9890.420513637018,9973.565433637019,9931.053653637018C9973.565433637019,9931.053653637018,9992.04489363702,9934.186253637019,9993.18142363702,9934.186253637019,9994.317973637018,9934.186253637019,10028.41068363702,9902.638333637018,10028.41068363702,9898.944573637018,10028.41068363702,9895.25081363702,10001.46057363702,9846.153203637019,9997.432803637019,9829.331383637018,9987.77220363702,9788.984153637019,9995.260863637019,9773.093943637019,9960.512963637018,9761.881173637019,9945.18710363702,9756.935693637019,9918.61458363702,9752.147623637018,9898.134563637019,9748.87842363702,9897.61005363702,9733.46438363702,9899.129043637018,9714.258293637018,9899.129043637018,9714.258293637018z" id="path3338" style="fill:#729fcf;stroke:none"></path>
    <path d="M9942.03172363702,9713.976163637019C9942.03172363702,9713.976163637019,9918.73261363702,9713.976163637019,9913.61817363702,9694.370813637019,9908.503733637019,9674.765463637019,9890.60320363702,9718.522333637018,9890.60320363702,9718.522333637018,9890.60320363702,9718.522333637018,9890.26775363702,9731.15096363702,9903.957573637019,9736.138733637019,9909.532033637019,9738.16974363702,9920.721553637019,9736.138733637019,9920.721553637019,9736.138733637019,9920.721553637019,9736.138733637019,9907.651333637019,9733.865643637018,9907.935463637019,9722.50023363702,9918.44847363702,9728.467073637019,9925.55186363702,9728.467073637019,9925.55186363702,9728.467073637019,9925.55186363702,9728.467073637019,9917.279593637018,9724.822443637018,9916.175393637019,9715.11270363702,9925.516553637019,9721.18636363702,9933.87106363702,9717.082583637019,9942.03172363702,9713.976163637019z" id="path3336" style="fill:#edd400;stroke:none"></path>
    <path d="M9952.544723637018,9639.24853363702C9947.998563637018,9673.34479363702,9931.55317363702,9689.89359363702,9905.980983637019,9712.056153637019,9887.756493637018,9727.850713637019,9876.663033637018,9722.27026363702,9867.87236363702,9717.101653637019C9775.561413637019,9662.82608363702,9779.122193637018,9520.023452637019,9876.964693637019,9515.36547063702,9972.920063637019,9510.79733363702,9963.341883637018,9621.632133637018,9952.544723637018,9639.24853363702z" id="path3260" style="fill:#e9b96e;stroke:none"></path>
    <path d="M9877.77443363702,10038.244513637019C9863.710453637019,10055.924963637019,9846.43183363702,10079.231003637018,9849.646463637018,10124.235743637018,9852.861093637019,10169.24052363702,9868.532383637019,10254.428123637019,9868.532383637019,10254.428123637019,9868.532383637019,10254.428123637019,9858.08485363702,10277.734163637018,9867.72873363702,10309.478613637018" id="path3340" style="fill:none;stroke:#3465a4;stroke-width:2.38673782;stroke-linecap:round;stroke-linejoin:miter;stroke-miterlimit:4;stroke-opacity:1;stroke-dasharray:none"></path>
    <path d="M9822.723983637019,10041.057323637018C9828.23751363702,10052.33118363702,9840.44876363702,10068.338143637018,9853.463833637019,10081.240133637019" id="path3342" style="fill:none;stroke:#3465a4;stroke-width:2.38673782;stroke-linecap:round;stroke-linejoin:miter;stroke-miterlimit:4;stroke-opacity:1;stroke-dasharray:none"></path>
    <path d="M9826.956853637019,10302.988973637019C9826.956853637019,10302.988973637019,9843.436713637018,10299.57938363702,9868.44063363702,10306.96690363702,9891.73974363702,10368.056023637018,9880.09018363702,10427.72446363702,9880.09018363702,10427.72446363702,9880.09018363702,10427.72446363702,9864.622183637019,10455.404173637018,9850.824233637019,10461.536573637019,9825.25203363702,10472.90203363702,9800.248123637019,10470.628943637019,9800.248123637019,10470.628943637019,9800.248123637019,10470.628943637019,9852.24491363702,10436.53266363702,9855.086273637018,10418.63210363702,9857.44495363702,10403.772443637019,9826.956853637019,10302.988973637019,9826.956853637019,10302.988973637019z" id="path3346" style="fill:#a40000;stroke:#cc0000;stroke-width:2.38673782;stroke-linecap:round;stroke-linejoin:round;stroke-miterlimit:4;stroke-opacity:1;stroke-dasharray:none"></path>
    <path d="M9862.189653637019,10296.737953637019C9877.428763637019,10288.270663637019,9895.85149363702,10284.58204363702,9911.34508363702,10285.088503637018,9911.34508363702,10285.088503637018,9904.169723637018,10382.334233637019,9909.356133637019,10422.32586363702,9914.709373637019,10463.60387363702,9953.68127363702,10501.88381363702,9953.68127363702,10501.88381363702,9953.68127363702,10501.88381363702,9902.53689363702,10489.808113637018,9891.73974363702,10462.95724363702,9885.488763637019,10471.481273637019,9886.483233637018,10489.523913637018,9886.483233637018,10489.523913637018,9886.483233637018,10489.523913637018,9873.981273637019,10451.449793637019,9878.527443637018,10430.423723637019,9883.07361363702,10409.397743637019,9874.496043637018,10363.57996363702,9869.00890363702,10341.63143363702,9862.189653637019,10314.35443363702,9862.189653637019,10296.737953637019,9862.189653637019,10296.737953637019z" id="path3344" style="fill:#a40000;stroke:#cc0000;stroke-width:2.38673782;stroke-linecap:round;stroke-linejoin:round;stroke-miterlimit:4;stroke-opacity:1;stroke-dasharray:none"></path>
    <path d="M9722.395003637019,9904.062803637018,9681.763623637018,9931.90807363702C9681.763623637018,9931.90807363702,9723.815673637018,9967.99327363702,9732.33974363702,9977.085613637018,9740.20957363702,9985.480113637019,9755.63885363702,10004.078483637019,9759.61674363702,10001.52125363702,9763.59464363702,9998.96404363702,9763.31051363702,9993.56546363702,9763.31051363702,9993.56546363702,9763.31051363702,9993.56546363702,9770.64484363702,9999.680303637018,9784.336533637019,10003.510203637019,9788.331133637019,10004.627603637018,9795.586923637018,10006.34384363702,9796.128163637019,10004.220543637019,9796.83241363702,10001.457673637018,9782.533173637019,9997.505403637018,9777.67269363702,9987.343293637019,9778.206413637019,9987.30159363702,9783.294493637019,9989.822293637018,9798.96951363702,9992.855133637018,9810.92211363702,9995.061913637019,9809.48252363702,9989.58757363702,9809.48252363702,9989.58757363702,9809.48252363702,9989.58757363702,9805.950013637019,9989.05589363702,9795.27574363702,9982.76832363702,9784.904803637019,9976.659403637019,9778.51176363702,9968.561553637019,9778.51176363702,9968.561553637019,9778.51176363702,9968.561553637019,9801.384663637018,9976.517333637019,9810.47699363702,9975.94906363702,9819.569333637019,9975.38079363702,9808.203913637019,9971.82910363702,9808.203913637019,9971.82910363702,9808.203913637019,9971.82910363702,9799.96382363702,9968.170573637019,9788.030293637019,9958.616803637018,9778.585473637018,9951.055443637018,9775.492723637019,9947.99029363702,9772.402843637019,9952.934093637019,9762.458103637018,9968.845673637019,9749.956143637019,9973.391853637018,9749.956143637019,9973.391853637018z" id="path3348" style="fill:#a40000;stroke:#cc0000;stroke-width:2.38673782;stroke-linecap:butt;stroke-linejoin:miter;stroke-miterlimit:4;stroke-opacity:1;stroke-dasharray:none"></path>
    <path d="M9944.47792363702,9972.74651363702C9944.47792363702,9972.74651363702,9938.048683637018,9971.13920363702,9935.235883637019,9964.30812363702,9933.31885363702,9959.65246363702,9930.50269363702,9951.113343637018,9928.404803637019,9953.860593637019,9919.96640363702,9964.910863637018,9904.29511363702,9975.559313637019,9899.071333637019,9979.979423637018,9893.847573637018,9984.399533637019,9902.28596363702,9984.600453637018,9902.28596363702,9984.600453637018,9902.28596363702,9984.600453637018,9895.75789363702,9988.89692363702,9896.86128363702,9992.034273637018,9898.500193637019,9996.69431363702,9921.573723637019,9986.408683637019,9921.573723637019,9986.408683637019,9921.573723637019,9986.408683637019,9903.089623637019,9999.468093637019,9904.496023637019,10002.682723637019,9905.52731363702,10005.039953637019,9935.235873637019,9991.63244363702,9935.235873637019,9991.63244363702L9937.64685363702,9999.669003637018C9937.64685363702,9999.669003637018,9946.48706363702,9996.856213637018,9955.729113637019,9990.42695363702,9964.97117363702,9983.99771363702,10007.16313363702,9938.189293637019,10007.16313363702,9938.189293637019L9977.02601363702,9916.08873363702C9967.72303363702,9939.22721363702,9960.619513637019,9955.354773637018,9944.47792363702,9972.74651363702z" id="path3350" style="fill:#a40000;stroke:#cc0000;stroke-width:2.38673782;stroke-linecap:butt;stroke-linejoin:miter;stroke-miterlimit:4;stroke-opacity:1;stroke-dasharray:none"></path>
    <path d="M9902.08505363702,9984.80136363702C9912.130763637018,9977.36753363702,9929.208453637018,9967.32183363702,9929.208453637018,9967.32183363702" id="path3352" style="fill:none;stroke:#cc0000;stroke-width:2.38673782;stroke-linecap:butt;stroke-linejoin:miter;stroke-miterlimit:4;stroke-opacity:1;stroke-dasharray:none"></path>
    <path d="M9792.434393637019,9735.31628363702C9784.639543637019,9735.30728363702,9778.04588363702,9736.09048363702,9773.539383637019,9738.12567363702,9766.417033637019,9741.342223637019,9752.63937363702,9758.69126363702,9736.80599363702,9781.31071363702,9758.16960363702,9781.29331363702,9800.13584363702,9780.421803637018,9817.02277363702,9737.106333637019,9808.24303363702,9736.049233637019,9799.797303637019,9735.32500363702,9792.434393637019,9735.31628363702z" id="path3357" style="fill:#204a87;stroke:none"></path>
    <path d="M9944.55164363702,9757.60493363702C9946.52314363702,9777.55193363702,9952.470603637019,9811.45891363702,9995.48115363702,9820.39354363702,9988.69379363702,9786.56446363702,9992.566233637019,9772.22441363702,9960.512963637018,9761.881173637019,9956.018703637019,9760.430923637019,9950.542923637018,9758.99377363702,9944.55164363702,9757.60493363702z" id="path3362" style="fill:#204a87;stroke:none"></path>
    <path d="M9883.54065363702,9515.226722637019C9881.406303637019,9515.209672637018,9879.21365363702,9515.25642263702,9876.964693637019,9515.363463637019,9789.49694363702,9519.52753763702,9777.384853637019,9634.090663637018,9841.74787363702,9697.116053637019,9833.060063637018,9676.887743637019,9824.09984363702,9647.908563637018,9822.405363637019,9623.338493637018L9822.939883637018,9623.31369363702C9823.630123637018,9603.13697363702,9839.161363637018,9584.688923637019,9861.624933637018,9584.442183637018,9863.986153637019,9584.41628363702,9866.429163637018,9584.581163637018,9868.934313637019,9584.97671363702,9894.14051363702,9588.956633637019,9900.272683637018,9611.90210363702,9900.272683637018,9611.90210363702,9900.272683637018,9611.90210363702,9908.403593637018,9592.447053637019,9941.25745363702,9595.43112363702,9948.822853637019,9596.11827363702,9955.01832363702,9600.876883637018,9959.00881363702,9607.75017363702,9960.53740363702,9570.493345637018,9947.343603637019,9515.73597763702,9883.54065363702,9515.226780637018z" id="path3368" style="fill:#a40000;stroke:none"></path>
    <path d="M9881.92463363702,9515.226722637019C9880.30210363702,9515.237722637019,9878.651413637019,9515.283192637018,9876.964693637019,9515.363463637019,9870.47352363702,9515.672485637018,9864.401643637018,9516.589669637018,9858.74096363702,9518.04854763702,9870.295563637019,9530.29235863702,9881.751593637018,9550.738017637019,9879.562763637019,9588.146533637018,9895.93387363702,9595.67501363702,9900.272683637018,9611.90204363702,9900.272683637018,9611.90204363702,9900.272683637018,9611.90204363702,9905.38504363702,9599.664963637018,9923.89144363702,9596.08990363702,9926.737193637018,9580.15730363702,9929.475433637019,9546.20740863702,9908.937043637019,9518.868985637018,9901.52797363702,9516.597580637019,9893.10206363702,9515.303035637018,9883.54065363702,9515.226722637019,9883.007063637018,9515.222122637018,9882.46547363702,9515.22302263702,9881.92463363702,9515.226722637019z" id="path3376" style="fill:#729fcf;stroke:none"></path>
    <path d="M9909.072003637018,9871.955483637019C9913.191963637018,9877.63819363702,9921.57397363702,9886.872603637019,9938.62209363702,9883.320903637019" id="path3381" style="fill:none;stroke:#3465a4;stroke-width:1.98894835;stroke-linecap:round;stroke-linejoin:miter;stroke-miterlimit:4;stroke-opacity:1;stroke-dasharray:none"></path>
    <path d="M9809.340453637018,9856.896303637019C9818.00659363702,9865.704503637018,9835.907123637018,9876.927853637018,9866.167543637019,9866.69897363702" id="path3385" style="fill:none;stroke:#3465a4;stroke-width:1.98894835;stroke-linecap:round;stroke-linejoin:miter;stroke-miterlimit:4;stroke-opacity:1;stroke-dasharray:none"></path>
    <path d="M9875.82815363702,9845.815013637019C9864.69732363702,9857.341223637019,9864.09248363702,9871.71618363702,9878.101233637019,9874.79684363702,9895.285763637019,9878.57586363702,9923.12964363702,9864.46115363702,9909.356133637019,9830.187573637018,9897.138313637019,9799.785073637018,9849.971823637019,9805.751923637019,9835.480923637018,9832.17652363702,9817.464983637019,9865.029093637018,9823.48627363702,9902.959963637019,9845.70979363702,9935.88597363702,9867.51278363702,9968.188933637019,9900.832073637019,9973.107703637019,9900.832073637019,9973.107703637019,9900.832073637019,9973.107703637019,9854.07600363702,9970.978773637018,9832.355423637018,9951.51342363702,9808.54408363702,9930.174383637019,9771.243023637018,9854.892623637019,9819.569333637019,9803.194703637018,9856.22280363702,9763.984003637019,9937.76968363702,9774.781163637019,9942.59998363702,9836.43855363702,9946.423363637019,9885.24284363702,9913.34998363702,9905.19604363702,9885.204623637019,9903.778653637019,9845.70979363702,9901.78970363702,9842.300163637019,9852.634273637019,9875.82815363702,9845.815013637019z" id="path3393" style="fill:#a40000;stroke:none"></path>
    <path d="M9836.589053637019,9611.70315363702C9836.589053637019,9611.70315363702,9834.698443637018,9617.294793637018,9839.70921363702,9621.299823637019,9837.436073637018,9623.123103637019,9836.777073637018,9624.91420363702,9838.801753637019,9625.56362363702,9841.614553637019,9626.769083637018,9840.221103637019,9623.541453637019,9851.916383637019,9621.784633637018,9867.78805363702,9619.40044363702,9872.782903637019,9636.208313637018,9874.97575363702,9639.983513637018,9877.04567363702,9643.547073637019,9878.670503637019,9643.93068363702,9878.891483637019,9641.922723637019,9877.051473637019,9626.274333637019,9870.312433637018,9618.322663637018,9854.06693363702,9616.327453637019,9851.16853363702,9615.971483637019,9848.435713637018,9612.511163637018,9848.435713637018,9612.511163637018,9848.435713637018,9612.511163637018,9847.437513637018,9615.01443363702,9849.04483363702,9617.02358363702,9846.23203363702,9616.521293637019,9844.421223637019,9615.121023637019,9843.115283637018,9612.71005363702,9842.61299363702,9614.819643637018,9842.819273637018,9616.42955363702,9843.82384363702,9618.639603637019,9839.535053637019,9617.70660363702,9836.589053637019,9611.70315363702,9836.589053637019,9611.70315363702zM9930.19392363702,9622.468333637018C9929.59968363702,9622.480333637019,9929.002513637019,9622.527233637018,9928.39143363702,9622.62993363702,9917.47354363702,9624.466313637018,9912.765763637019,9633.855063637018,9912.765763637019,9641.810853637018,9916.601593637019,9642.237053637018,9914.586193637018,9636.90376363702,9918.73261363702,9631.431033637018,9923.77114363702,9624.780833637018,9933.967323637018,9625.45036363702,9939.04474363702,9628.882683637019,9942.10991363702,9630.95473363702,9944.430793637019,9633.394383637018,9945.86932363702,9635.906163637019,9946.78300363702,9637.501493637019,9949.322423637019,9636.60658363702,9948.778163637018,9634.87439363702,9950.61631363702,9633.574233637019,9953.18868363702,9631.888163637019,9953.427323637019,9629.34263363702,9950.51494363702,9630.372623637018,9948.490473637019,9630.795273637019,9946.714623637019,9630.511143637019,9949.94666363702,9630.084943637019,9951.44726363702,9627.380323637019,9951.376223637018,9625.178273637019,9948.96107363702,9627.380323637019,9946.297303637019,9627.06244363702,9943.91767363702,9626.210043637018,9945.97765363702,9626.139043637018,9946.96324363702,9624.64907363702,9947.46048363702,9622.518053637019,9941.007333637019,9625.91839363702,9935.93823363702,9622.35183363702,9930.19392363702,9622.46835363702z" id="path3395" style="fill:#2e3436;stroke:none"></path>
    <path d="M9900.27682363702,9611.90475363702C9900.27682363702,9611.90475363702,9894.140423637018,9588.962193637019,9868.93422363702,9584.982263637019,9815.491063637019,9576.54388363702,9792.70876363702,9668.37338363702,9889.82929363702,9674.58996363702,9981.382353637018,9680.450183637018,9974.594093637019,9598.45719363702,9941.263303637019,9595.429793637019,9908.40944363702,9592.44573363702,9900.27682363702,9611.90475363702,9900.27682363702,9611.90475363702z" id="path3262" style="opacity:0.6;fill:#2e3436;stroke:none"></path>
    <path d="M9867.62827363702,9695.78640363702C9867.62827363702,9695.78640363702,9869.05181363702,9713.16325363702,9880.185403637019,9715.074163637019,9889.64489363702,9716.697733637018,9897.55395363702,9712.695643637018,9898.26768363702,9701.71337363702,9898.74780363702,9694.32577363702,9867.62827363702,9695.78640363702,9867.62827363702,9695.78640363702z" id="path3410" style="fill:#ef2929;stroke:none"></path>
    <path d="M9867.326903637018,9695.485033637018C9867.326903637018,9695.485033637018,9876.26759363702,9688.25212363702,9881.08953363702,9687.046643637019,9885.91146363702,9685.841153637019,9885.610093637019,9691.165373637019,9886.61466363702,9694.38000363702,9887.619233637019,9697.59463363702,9888.121523637019,9696.38915363702,9894.249403637019,9690.562643637018,9897.132193637019,9687.821623637019,9900.07591363702,9690.593743637019,9901.180933637019,9695.284123637019,9901.825953637019,9698.021963637018,9902.587333637019,9700.909713637018,9902.587333637019,9700.909713637018,9902.587333637019,9700.909713637018,9887.21740363702,9705.12891363702,9867.326903637018,9695.485033637018z" id="path3408" style="fill:#cc0000;stroke:none"></path>
    <path d="M9902.687793637018,9700.909713637018C9895.856713637018,9701.71337363702,9881.692263637018,9704.52617363702,9860.19445363702,9691.768123637019" id="path3412" style="fill:none;stroke:#a40000;stroke-width:2.38673782;stroke-linecap:round;stroke-linejoin:miter;stroke-miterlimit:4;stroke-opacity:1;stroke-dasharray:none"></path>
    <path d="M9952.544723637018,9840.700583637019C9949.27717363702,9832.88685363702,9953.25507363702,9818.822153637018,9954.10747363702,9814.702193637018" id="path3383" style="fill:none;stroke:#3465a4;stroke-width:1.98894835;stroke-linecap:round;stroke-linejoin:miter;stroke-miterlimit:4;stroke-opacity:1;stroke-dasharray:none"></path>
  </g></g></g></svg>
