
<svg xmlns="http://www.w3.org/2000/svg"   width="100%" height="100%"    class="rootSVG id_bd576752da804dfd890ba886595e4081" viewBox="258.9126892089844 263.68939208984375 1632.477783203125 388.28417724609375"><defs class="svgDefs"><defs id="defs2449">
    <filter id="filter3587" height="1.2199417" y="-0.10997086" width="1.0283011" x="-0.014150559" color-interpolation-filters="sRGB">
      <feGaussianBlur id="feGaussianBlur3589" stdDeviation="2.0410432" collect="always"></feGaussianBlur>
    </filter>
  </defs></defs><text class="svgTextDescription" x="258.9126892089844" y="635.6487915039063" font-size="81.62388916015624px">hello tye - well done, you did lots of recycling</text><g class="svgTranslatableG"><g class="svgHeightAxis"><g><g class="svgMeasureAxisY" transform="translate(1670.2342712402344 362.5)"><path class="svgMeasureY" d="m0,0 l  0,76.39999389648438" stroke="darkgrey"  stroke-width="8.0468603515625"></path><text id="svgYAxis_g1" fill="darkgrey" font-weight="bold" x="16.093720703125px" y="38.19999694824219" font-size="60.351452636718754px">75.0cm</text></g><g class="svgMeasureAxisX" transform="translate(349.9999694824219 479.13429565429686)"><path class="svgMeasureX" d="m0,0 l1280,0" stroke="darkgrey"  stroke-width="8.0468603515625"></path><text id="svgXAxis_g1" fill="darkgrey" font-weight="bold" x="616.9921875" y="60.351452636718754px" font-size="60.351452636718754px">12.6m</text></g></g></g><g class="svgVisualisationG"><g id="g1" onclick="svg3d.toggleRotation()" style="display: none;" svgHUD_initial_transform="translate(0 0)" transform="translate(-0.04539099332297805 0.061310357930165545)">
      <path id="faceBack" class="face faceBack" style="fill: rgb(270, 289, 0);" d="M331.3236627379873,342.6563916591115L512.6473254759746,342.6563916591115L512.6473254759746,411.92203082502266L331.3236627379873,411.92203082502266Z" threeD="true" initial_fill_path="rgb(255, 255, 0)" initial_fill_group="rgb(260, 244, 0)">
        </path>
      <path id="faceBottom" class="face faceBottom" style="fill: rgb(231, 207, 0);" d="M350,438.9L550,438.9L512.6473254759746,411.92203082502266L331.3236627379873,411.92203082502266Z" threeD="true" initial_fill_path="rgb(218, 165, 32)" initial_fill_group="rgb(221, 162, 27)">
        </path>
      <path id="faceRight" class="face faceRight" style="fill: rgb(259, 240, 0);" d="M550,362.5L512.6473254759746,342.6563916591115L512.6473254759746,411.92203082502266L550,438.9Z" threeD="true" initial_fill_path="rgb(255, 215, 0)" initial_fill_group="rgb(249, 195, 0)">
        </path>      
      <path id="faceLeft" class="face faceLeft" style="fill: rgb(241, 257, 0);" d="M350,362.5L331.3236627379873,342.6563916591115L331.3236627379873,411.92203082502266L350,438.9Z" threeD="true" initial_fill_path="rgb(255, 215, 0)" initial_fill_group="rgb(231, 212, 0)">
        </path>
      <path id="faceTop" class="face faceTop" style="fill: rgb(216, 215, 0);" d="M350,362.5L550,362.5L512.6473254759746,342.6563916591115L331.3236627379873,342.6563916591115Z" threeD="true" initial_fill_path="rgb(218, 165, 32)" initial_fill_group="rgb(206, 170, 28)">
        </path>
     <path id="faceFront" class="face faceFront" style="fill: rgb(273, 282, 0);" d="M350,362.5L550,362.5L550,438.9L350,438.9Z" threeD="true" initial_fill_path="rgb(255, 255, 0)" initial_fill_group="rgb(263, 237, 0)">
        </path>
	</g><g id="g1" onclick="svg3d.toggleRotation()" svgHUD_initial_transform="translate(0 0)" transform="translate(1.7935226900000139 -2.0862586241075123)">
      
      
            
      <path id="faceBack" class="face faceBack" style="fill: rgb(270, 245, 73);" d="M749.0197858050462,265.7197313487021L857.9324741332365,265.7197313487021L857.9324741332365,307.32437829007074L749.0197858050462,307.32437829007074Z" threeD="true" initial_fill_path="rgb(255, 255, 0)" initial_fill_group="rgb(251, 242, 8)">
        </path><path id="faceBottom" class="face faceBottom" style="fill: rgb(254, 165, 94);" d="M784.6153846153846,316.6730769230769L900.0000000000001,316.6730769230769L857.9324741332365,307.32437829007074L749.0197858050462,307.32437829007074Z" threeD="true" initial_fill_path="rgb(218, 165, 32)" initial_fill_group="rgb(235, 162, 29)">
        </path><path id="faceRight" class="face faceRight" style="fill: rgb(262, 218, 65);" d="M900.0000000000001,272.59615384615387L857.9324741332365,265.7197313487021L857.9324741332365,307.32437829007074L900.0000000000001,316.6730769230769Z" threeD="true" initial_fill_path="rgb(255, 215, 0)" initial_fill_group="rgb(243, 215, 0)">
        </path><path id="faceFront" class="face faceFront" style="fill: rgb(265, 253, 66);" d="M784.6153846153846,272.59615384615387L900.0000000000001,272.59615384615387L900.0000000000001,316.6730769230769L784.6153846153846,316.6730769230769Z" threeD="true" initial_fill_path="rgb(255, 255, 0)" initial_fill_group="rgb(246, 250, 1)">
        </path><path id="faceTop" class="face faceTop" style="fill: rgb(241, 158, 85);" d="M784.6153846153846,272.59615384615387L900.0000000000001,272.59615384615387L857.9324741332365,265.7197313487021L749.0197858050462,265.7197313487021Z" threeD="true" initial_fill_path="rgb(218, 165, 32)" initial_fill_group="rgb(222, 155, 20)">
        </path><path id="faceLeft" class="face faceLeft" style="fill: rgb(271, 223, 65);" d="M784.6153846153846,272.59615384615387L749.0197858050462,265.7197313487021L749.0197858050462,307.32437829007074L784.6153846153846,316.6730769230769Z" threeD="true" initial_fill_path="rgb(255, 215, 0)" initial_fill_group="rgb(252, 220, 0)">
        </path>
      
     
	</g><g id="g1" onclick="svg3d.toggleRotation()" svgHUD_initial_transform="translate(0 0)" transform="translate(4.835502572596615 0.38974775935890243)">
      
      
            
      <path id="faceBack" class="face faceBack" style="fill: rgb(270, 291, 37);" d="M650.998366309675,265.7197313487021L759.9110546378653,265.7197313487021L759.9110546378653,307.32437829007074L650.998366309675,307.32437829007074Z" threeD="true" initial_fill_path="rgb(255, 255, 0)" initial_fill_group="rgb(242, 235, 4)">
        </path><path id="faceBottom" class="face faceBottom" style="fill: rgb(222, 223, 63);" d="M680.7692307692308,316.6730769230769L796.1538461538462,316.6730769230769L759.9110546378653,307.32437829007074L650.998366309675,307.32437829007074Z" threeD="true" initial_fill_path="rgb(218, 165, 32)" initial_fill_group="rgb(194, 167, 30)">
        </path><path id="faceRight" class="face faceRight" style="fill: rgb(281, 268, 33);" d="M796.1538461538462,272.59615384615387L759.9110546378653,265.7197313487021L759.9110546378653,307.32437829007074L796.1538461538462,316.6730769230769Z" threeD="true" initial_fill_path="rgb(255, 215, 0)" initial_fill_group="rgb(253, 212, 0)">
        </path><path id="faceFront" class="face faceFront" style="fill: rgb(264, 298, 39);" d="M680.7692307692308,272.59615384615387L796.1538461538462,272.59615384615387L796.1538461538462,316.6730769230769L680.7692307692308,316.6730769230769Z" threeD="true" initial_fill_path="rgb(255, 255, 0)" initial_fill_group="rgb(236, 242, 6)">
        </path><path id="faceTop" class="face faceTop" style="fill: rgb(256, 215, 50);" d="M680.7692307692308,272.59615384615387L796.1538461538462,272.59615384615387L759.9110546378653,265.7197313487021L650.998366309675,265.7197313487021Z" threeD="true" initial_fill_path="rgb(218, 165, 32)" initial_fill_group="rgb(228, 159, 17)">
        </path><path id="faceLeft" class="face faceLeft" style="fill: rgb(287, 273, 33);" d="M680.7692307692308,272.59615384615387L650.998366309675,265.7197313487021L650.998366309675,307.32437829007074L680.7692307692308,316.6730769230769Z" threeD="true" initial_fill_path="rgb(255, 215, 0)" initial_fill_group="rgb(259, 217, 0)">
        </path>
      
     
	</g><g id="g1" onclick="svg3d.toggleRotation()" svgHUD_initial_transform="translate(0 0)" transform="translate(1.3274275345248145 -0.14338893867557312)">
      
      
            
      <path id="faceBack" class="face faceBack" style="fill: rgb(213, 195, 25);" d="M815.4567453115548,278.55414398064124L936.4488808227464,278.55414398064124L936.4488808227464,324.7731397459165L815.4567453115548,324.7731397459165Z" threeD="true" initial_fill_path="rgb(255, 255, 0)" initial_fill_group="rgb(267, 254, 0)">
        </path><path id="faceBottom" class="face faceBottom" style="fill: rgb(147, 106, 52);" d="M859.6774193548387,336.38709677419354L988.7096774193548,336.38709677419354L936.4488808227464,324.7731397459165L815.4567453115548,324.7731397459165Z" threeD="true" initial_fill_path="rgb(218, 165, 32)" initial_fill_group="rgb(201, 165, 27)">
        </path><path id="faceRight" class="face faceRight" style="fill: rgb(187, 149, 25);" d="M988.7096774193548,287.0967741935484L936.4488808227464,278.55414398064124L936.4488808227464,324.7731397459165L988.7096774193548,336.38709677419354Z" threeD="true" initial_fill_path="rgb(255, 215, 0)" initial_fill_group="rgb(241, 208, 0)">
        </path><path id="faceFront" class="face faceFront" style="fill: rgb(201, 197, 25);" d="M859.6774193548387,287.0967741935484L988.7096774193548,287.0967741935484L988.7096774193548,336.38709677419354L859.6774193548387,336.38709677419354Z" threeD="true" initial_fill_path="rgb(255, 255, 0)" initial_fill_group="rgb(255, 256, 0)">
        </path><path id="faceTop" class="face faceTop" style="fill: rgb(152, 94, 60);" d="M859.6774193548387,287.0967741935484L988.7096774193548,287.0967741935484L936.4488808227464,278.55414398064124L815.4567453115548,278.55414398064124Z" threeD="true" initial_fill_path="rgb(218, 165, 32)" initial_fill_group="rgb(206, 153, 35)">
        </path><path id="faceLeft" class="face faceLeft" style="fill: rgb(168, 156, 25);" d="M859.6774193548387,287.0967741935484L815.4567453115548,278.55414398064124L815.4567453115548,324.7731397459165L859.6774193548387,336.38709677419354Z" threeD="true" initial_fill_path="rgb(255, 215, 0)" initial_fill_group="rgb(222, 215, 0)">
        </path>
      
     
	</g><g id="g1" onclick="svg3d.toggleRotation()" svgHUD_initial_transform="translate(0 0)" transform="translate(-2.824414421821146 0.19484267583578774)">
      
      
            
      <path id="faceBack" class="face faceBack" style="fill: rgb(223, 328, 0);" d="M552.9769468143038,265.7197313487021L661.8896351424942,265.7197313487021L661.8896351424942,307.32437829007074L552.9769468143038,307.32437829007074Z" threeD="true" initial_fill_path="rgb(255, 255, 0)" initial_fill_group="rgb(250, 264, 0)">
        </path><path id="faceBottom" class="face faceBottom" style="fill: rgb(194, 228, 0);" d="M576.9230769230769,316.6730769230769L692.3076923076924,316.6730769230769L661.8896351424942,307.32437829007074L552.9769468143038,307.32437829007074Z" threeD="true" initial_fill_path="rgb(218, 165, 32)" initial_fill_group="rgb(221, 164, 34)">
        </path><path id="faceRight" class="face faceRight" style="fill: rgb(218, 271, 0);" d="M692.3076923076924,272.59615384615387L661.8896351424942,265.7197313487021L661.8896351424942,307.32437829007074L692.3076923076924,316.6730769230769Z" threeD="true" initial_fill_path="rgb(255, 215, 0)" initial_fill_group="rgb(245, 207, 0)">
        </path><path id="faceFront" class="face faceFront" style="fill: rgb(205, 331, 0);" d="M576.9230769230769,272.59615384615387L692.3076923076924,272.59615384615387L692.3076923076924,316.6730769230769L576.9230769230769,316.6730769230769Z" threeD="true" initial_fill_path="rgb(255, 255, 0)" initial_fill_group="rgb(232, 267, 0)">
        </path><path id="faceTop" class="face faceTop" style="fill: rgb(200, 221, 0);" d="M576.9230769230769,272.59615384615387L692.3076923076924,272.59615384615387L661.8896351424942,265.7197313487021L552.9769468143038,265.7197313487021Z" threeD="true" initial_fill_path="rgb(218, 165, 32)" initial_fill_group="rgb(227, 157, 33)">
        </path><path id="faceLeft" class="face faceLeft" style="fill: rgb(219, 286, 0);" d="M576.9230769230769,272.59615384615387L552.9769468143038,265.7197313487021L552.9769468143038,307.32437829007074L576.9230769230769,316.6730769230769Z" threeD="true" initial_fill_path="rgb(255, 215, 0)" initial_fill_group="rgb(246, 222, 0)">
        </path>
      
     
	</g><g id="g1" onclick="svg3d.toggleRotation()" svgHUD_initial_transform="translate(0 0)" transform="translate(-0.12676764899283874 0.8451924441670084)">
      
      
            
      <path id="faceBack" class="face faceBack" style="fill: rgb(261, 285, 0);" d="M454.95552731893264,265.7197313487021L563.868215647123,265.7197313487021L563.868215647123,307.32437829007074L454.95552731893264,307.32437829007074Z" threeD="true" initial_fill_path="rgb(255, 255, 0)" initial_fill_group="rgb(249, 261, 0)">
        </path><path id="faceBottom" class="face faceBottom" style="fill: rgb(226, 195, 15);" d="M473.0769230769231,316.6730769230769L588.4615384615386,316.6730769230769L563.868215647123,307.32437829007074L454.95552731893264,307.32437829007074Z" threeD="true" initial_fill_path="rgb(218, 165, 32)" initial_fill_group="rgb(214, 171, 22)">
        </path><path id="faceRight" class="face faceRight" style="fill: rgb(275, 237, 0);" d="M588.4615384615386,272.59615384615387L563.868215647123,265.7197313487021L563.868215647123,307.32437829007074L588.4615384615386,316.6730769230769Z" threeD="true" initial_fill_path="rgb(255, 215, 0)" initial_fill_group="rgb(263, 213, 2)">
        </path><path id="faceFront" class="face faceFront" style="fill: rgb(273, 278, 0);" d="M473.0769230769231,272.59615384615387L588.4615384615386,272.59615384615387L588.4615384615386,316.6730769230769L473.0769230769231,316.6730769230769Z" threeD="true" initial_fill_path="rgb(255, 255, 0)" initial_fill_group="rgb(261, 254, 0)">
        </path><path id="faceTop" class="face faceTop" style="fill: rgb(232, 180, 20);" d="M473.0769230769231,272.59615384615387L588.4615384615386,272.59615384615387L563.868215647123,265.7197313487021L454.95552731893264,265.7197313487021Z" threeD="true" initial_fill_path="rgb(218, 165, 32)" initial_fill_group="rgb(220, 156, 27)">
        </path><path id="faceLeft" class="face faceLeft" style="fill: rgb(269, 243, 0);" d="M473.0769230769231,272.59615384615387L454.95552731893264,265.7197313487021L454.95552731893264,307.32437829007074L473.0769230769231,316.6730769230769Z" threeD="true" initial_fill_path="rgb(255, 215, 0)" initial_fill_group="rgb(257, 219, 0)">
        </path>
      
     
	</g><g id="g1" onclick="svg3d.toggleRotation()" svgHUD_initial_transform="translate(0 0)" transform="translate(-0.6465479354768324 -0.6683568915379845)">
      
      
            
      
      
     <path id="faceBack" class="face faceBack" style="fill: rgb(227, 224, 13);" d="M258.91268832819026,265.7197313487021L367.82537665638046,265.7197313487021L367.82537665638046,307.32437829007074L258.91268832819026,307.32437829007074Z" threeD="true" initial_fill_path="rgb(255, 255, 0)" initial_fill_group="rgb(240, 256, 0)">
        </path><path id="faceBottom" class="face faceBottom" style="fill: rgb(200, 117, 46);" d="M265.3846153846154,316.6730769230769L380.76923076923083,316.6730769230769L367.82537665638046,307.32437829007074L258.91268832819026,307.32437829007074Z" threeD="true" initial_fill_path="rgb(218, 165, 32)" initial_fill_group="rgb(213, 149, 33)">
        </path><path id="faceRight" class="face faceRight" style="fill: rgb(232, 192, 13);" d="M380.76923076923083,272.59615384615387L367.82537665638046,265.7197313487021L367.82537665638046,307.32437829007074L380.76923076923083,316.6730769230769Z" threeD="true" initial_fill_path="rgb(255, 215, 0)" initial_fill_group="rgb(245, 224, 0)">
        </path><path id="faceFront" class="face faceFront" style="fill: rgb(239, 221, 13);" d="M265.3846153846154,272.59615384615387L380.76923076923083,272.59615384615387L380.76923076923083,316.6730769230769L265.3846153846154,316.6730769230769Z" threeD="true" initial_fill_path="rgb(255, 255, 0)" initial_fill_group="rgb(252, 253, 0)">
        </path><path id="faceTop" class="face faceTop" style="fill: rgb(209, 120, 43);" d="M265.3846153846154,272.59615384615387L380.76923076923083,272.59615384615387L367.82537665638046,265.7197313487021L258.91268832819026,265.7197313487021Z" threeD="true" initial_fill_path="rgb(218, 165, 32)" initial_fill_group="rgb(222, 152, 30)">
        </path><path id="faceLeft" class="face faceLeft" style="fill: rgb(239, 177, 32);" d="M265.3846153846154,272.59615384615387L258.91268832819026,265.7197313487021L258.91268832819026,307.32437829007074L265.3846153846154,316.6730769230769Z" threeD="true" initial_fill_path="rgb(255, 215, 0)" initial_fill_group="rgb(252, 209, 19)">
        </path>
	</g><g id="g1" onclick="svg3d.toggleRotation()" svgHUD_initial_transform="translate(0 0)" transform="translate(0.15173212547037646 0.730462140365072)">
      
      
            
      <path id="faceBack" class="face faceBack" style="fill: rgb(279, 281, 0);" d="M706.5638233514821,278.55414398064124L827.555958862674,278.55414398064124L827.555958862674,324.7731397459165L706.5638233514821,324.7731397459165Z" threeD="true" initial_fill_path="rgb(255, 255, 0)" initial_fill_group="rgb(261, 257, 4)">
        </path><path id="faceBottom" class="face faceBottom" style="fill: rgb(228, 208, 3);" d="M743.5483870967741,336.38709677419354L872.5806451612902,336.38709677419354L827.555958862674,324.7731397459165L706.5638233514821,324.7731397459165Z" threeD="true" initial_fill_path="rgb(218, 165, 32)" initial_fill_group="rgb(210, 184, 36)">
        </path><path id="faceRight" class="face faceRight" style="fill: rgb(266, 236, 0);" d="M872.5806451612902,287.0967741935484L827.555958862674,278.55414398064124L827.555958862674,324.7731397459165L872.5806451612902,336.38709677419354Z" threeD="true" initial_fill_path="rgb(255, 215, 0)" initial_fill_group="rgb(248, 212, 0)">
        </path><path id="faceFront" class="face faceFront" style="fill: rgb(273, 279, 0);" d="M743.5483870967741,287.0967741935484L872.5806451612902,287.0967741935484L872.5806451612902,336.38709677419354L743.5483870967741,336.38709677419354Z" threeD="true" initial_fill_path="rgb(255, 255, 0)" initial_fill_group="rgb(255, 255, 0)">
        </path><path id="faceTop" class="face faceTop" style="fill: rgb(215, 188, 0);" d="M743.5483870967741,287.0967741935484L872.5806451612902,287.0967741935484L827.555958862674,278.55414398064124L706.5638233514821,278.55414398064124Z" threeD="true" initial_fill_path="rgb(218, 165, 32)" initial_fill_group="rgb(197, 164, 32)">
        </path><path id="faceLeft" class="face faceLeft" style="fill: rgb(268, 243, 0);" d="M743.5483870967741,287.0967741935484L706.5638233514821,278.55414398064124L706.5638233514821,324.7731397459165L743.5483870967741,336.38709677419354Z" threeD="true" initial_fill_path="rgb(255, 215, 0)" initial_fill_group="rgb(250, 219, 0)">
        </path>
      
     
	</g><g id="g1" onclick="svg3d.toggleRotation()" svgHUD_initial_transform="translate(0 0)" transform="translate(1.4339620343893913 2.565175537487639)">
      
      
            
      <path id="faceBack" class="face faceBack" style="fill: rgb(220, 259, 0);" d="M356.9341078235615,265.7197313487021L465.8467961517517,265.7197313487021L465.8467961517517,307.32437829007074L356.9341078235615,307.32437829007074Z" threeD="true" initial_fill_path="rgb(255, 255, 0)" initial_fill_group="rgb(246, 245, 0)">
        </path><path id="faceBottom" class="face faceBottom" style="fill: rgb(183, 178, 11);" d="M369.2307692307693,316.6730769230769L484.61538461538464,316.6730769230769L465.8467961517517,307.32437829007074L356.9341078235615,307.32437829007074Z" threeD="true" initial_fill_path="rgb(218, 165, 32)" initial_fill_group="rgb(209, 164, 36)">
        </path><path id="faceRight" class="face faceRight" style="fill: rgb(228, 219, 0);" d="M484.61538461538464,272.59615384615387L465.8467961517517,265.7197313487021L465.8467961517517,307.32437829007074L484.61538461538464,316.6730769230769Z" threeD="true" initial_fill_path="rgb(255, 215, 0)" initial_fill_group="rgb(254, 205, 0)">
        </path><path id="faceFront" class="face faceFront" style="fill: rgb(235, 274, 0);" d="M369.2307692307693,272.59615384615387L484.61538461538464,272.59615384615387L484.61538461538464,316.6730769230769L369.2307692307693,316.6730769230769Z" threeD="true" initial_fill_path="rgb(255, 255, 0)" initial_fill_group="rgb(261, 260, 0)">
        </path><path id="faceTop" class="face faceTop" style="fill: rgb(188, 170, 7);" d="M369.2307692307693,272.59615384615387L484.61538461538464,272.59615384615387L465.8467961517517,265.7197313487021L356.9341078235615,265.7197313487021Z" threeD="true" initial_fill_path="rgb(218, 165, 32)" initial_fill_group="rgb(214, 156, 32)">
        </path><path id="faceLeft" class="face faceLeft" style="fill: rgb(219, 228, 0);" d="M369.2307692307693,272.59615384615387L356.9341078235615,265.7197313487021L356.9341078235615,307.32437829007074L369.2307692307693,316.6730769230769Z" threeD="true" initial_fill_path="rgb(255, 215, 0)" initial_fill_group="rgb(245, 214, 8)">
        </path>
      
     
	</g><g id="g1" onclick="svg3d.toggleRotation()" svgHUD_initial_transform="translate(0 0)" transform="translate(-8.261381069373241 -0.13939535048890367)">
      
      
            
      <path id="faceBack" class="face faceBack" style="fill: rgb(237, 311, 0);" d="M898.4690405987752,294.59061011567246L1034.5543207076435,294.59061011567246L1034.5543207076435,346.57518711726016L898.4690405987752,346.57518711726016Z" threeD="true" initial_fill_path="rgb(255, 255, 0)" initial_fill_group="rgb(247, 259, 11)">
        </path><path id="faceBottom" class="face faceBottom" style="fill: rgb(196, 215, 0);" d="M954.8780487804879,361.390243902439L1101.2195121951222,361.390243902439L1034.5543207076435,346.57518711726016L898.4690405987752,346.57518711726016Z" threeD="true" initial_fill_path="rgb(218, 165, 32)" initial_fill_group="rgb(206, 163, 4)">
        </path><path id="faceRight" class="face faceRight" style="fill: rgb(240, 277, 0);" d="M1101.2195121951222,305.4878048780488L1034.5543207076435,294.59061011567246L1034.5543207076435,346.57518711726016L1101.2195121951222,361.390243902439Z" threeD="true" initial_fill_path="rgb(255, 215, 0)" initial_fill_group="rgb(250, 225, 10)">
        </path><path id="faceFront" class="face faceFront" style="fill: rgb(243, 307, 0);" d="M954.8780487804879,305.4878048780488L1101.2195121951222,305.4878048780488L1101.2195121951222,361.390243902439L954.8780487804879,361.390243902439Z" threeD="true" initial_fill_path="rgb(255, 255, 0)" initial_fill_group="rgb(253, 255, 0)">
        </path><path id="faceTop" class="face faceTop" style="fill: rgb(214, 209, 16);" d="M954.8780487804879,305.4878048780488L1101.2195121951222,305.4878048780488L1034.5543207076435,294.59061011567246L898.4690405987752,294.59061011567246Z" threeD="true" initial_fill_path="rgb(218, 165, 32)" initial_fill_group="rgb(224, 157, 35)">
        </path><path id="faceLeft" class="face faceLeft" style="fill: rgb(243, 266, 0);" d="M954.8780487804879,305.4878048780488L898.4690405987752,294.59061011567246L898.4690405987752,346.57518711726016L954.8780487804879,361.390243902439Z" threeD="true" initial_fill_path="rgb(255, 215, 0)" initial_fill_group="rgb(253, 214, 0)">
        </path>
      
     
	</g><g id="g1" onclick="svg3d.toggleRotation()" svgHUD_initial_transform="translate(0 0)" transform="translate(4.322884275731385 1.0046933167991758)">
      
      
            
      <path id="faceBack" class="face faceBack" style="fill: rgb(292, 248, 0);" d="M597.6709013914095,278.55414398064124L718.6630369026013,278.55414398064124L718.6630369026013,324.7731397459165L597.6709013914095,324.7731397459165Z" threeD="true" initial_fill_path="rgb(255, 255, 0)" initial_fill_group="rgb(260, 234, 0)">
        </path><path id="faceBottom" class="face faceBottom" style="fill: rgb(235, 180, 2);" d="M627.4193548387096,336.38709677419354L756.4516129032257,336.38709677419354L718.6630369026013,324.7731397459165L597.6709013914095,324.7731397459165Z" threeD="true" initial_fill_path="rgb(218, 165, 32)" initial_fill_group="rgb(203, 166, 20)">
        </path><path id="faceRight" class="face faceRight" style="fill: rgb(274, 232, 0);" d="M756.4516129032257,287.0967741935484L718.6630369026013,278.55414398064124L718.6630369026013,324.7731397459165L756.4516129032257,336.38709677419354Z" threeD="true" initial_fill_path="rgb(255, 215, 0)" initial_fill_group="rgb(242, 218, 0)">
        </path><path id="faceFront" class="face faceFront" style="fill: rgb(284, 268, 0);" d="M627.4193548387096,287.0967741935484L756.4516129032257,287.0967741935484L756.4516129032257,336.38709677419354L627.4193548387096,336.38709677419354Z" threeD="true" initial_fill_path="rgb(255, 255, 0)" initial_fill_group="rgb(252, 254, 0)">
        </path><path id="faceTop" class="face faceTop" style="fill: rgb(259, 168, 21);" d="M627.4193548387096,287.0967741935484L756.4516129032257,287.0967741935484L718.6630369026013,278.55414398064124L597.6709013914095,278.55414398064124Z" threeD="true" initial_fill_path="rgb(218, 165, 32)" initial_fill_group="rgb(227, 154, 39)">
        </path><path id="faceLeft" class="face faceLeft" style="fill: rgb(290, 218, 0);" d="M627.4193548387096,287.0967741935484L597.6709013914095,278.55414398064124L597.6709013914095,324.7731397459165L627.4193548387096,336.38709677419354Z" threeD="true" initial_fill_path="rgb(255, 215, 0)" initial_fill_group="rgb(258, 204, 0)">
        </path>
      
     
	</g><g id="g1" onclick="svg3d.toggleRotation()" svgHUD_initial_transform="translate(0 0)" transform="translate(-2.197857889596352 1.8092537773946924)">
      
      
            
      <path id="faceBack" class="face faceBack" style="fill: rgb(238, 305, 0);" d="M488.777979431337,278.55414398064124L609.7701149425287,278.55414398064124L609.7701149425287,324.7731397459165L488.777979431337,324.7731397459165Z" threeD="true" initial_fill_path="rgb(255, 255, 0)" initial_fill_group="rgb(252, 242, 0)">
        </path><path id="faceBottom" class="face faceBottom" style="fill: rgb(215, 212, 17);" d="M511.2903225806451,336.38709677419354L640.3225806451612,336.38709677419354L609.7701149425287,324.7731397459165L488.777979431337,324.7731397459165Z" threeD="true" initial_fill_path="rgb(218, 165, 32)" initial_fill_group="rgb(229, 149, 20)">
        </path><path id="faceRight" class="face faceRight" style="fill: rgb(245, 268, 0);" d="M640.3225806451612,287.0967741935484L609.7701149425287,278.55414398064124L609.7701149425287,324.7731397459165L640.3225806451612,336.38709677419354Z" threeD="true" initial_fill_path="rgb(255, 215, 0)" initial_fill_group="rgb(259, 205, 0)">
        </path><path id="faceFront" class="face faceFront" style="fill: rgb(236, 307, 0);" d="M511.2903225806451,287.0967741935484L640.3225806451612,287.0967741935484L640.3225806451612,336.38709677419354L511.2903225806451,336.38709677419354Z" threeD="true" initial_fill_path="rgb(255, 255, 0)" initial_fill_group="rgb(250, 244, 3)">
        </path><path id="faceTop" class="face faceTop" style="fill: rgb(188, 217, 16);" d="M511.2903225806451,287.0967741935484L640.3225806451612,287.0967741935484L609.7701149425287,278.55414398064124L488.777979431337,278.55414398064124Z" threeD="true" initial_fill_path="rgb(218, 165, 32)" initial_fill_group="rgb(202, 154, 19)">
        </path><path id="faceLeft" class="face faceLeft" style="fill: rgb(240, 279, 0);" d="M511.2903225806451,287.0967741935484L488.777979431337,278.55414398064124L488.777979431337,324.7731397459165L511.2903225806451,336.38709677419354Z" threeD="true" initial_fill_path="rgb(255, 215, 0)" initial_fill_group="rgb(254, 216, 0)">
        </path>
      
     
	</g><g id="g1" onclick="svg3d.toggleRotation()" svgHUD_initial_transform="translate(0 0)" transform="translate(0.41321833326771384 -1.0020215416730005)">
      
      
            
      <path id="faceBack" class="face faceBack" style="fill: rgb(255, 215, 0);" d="M379.88505747126436,278.55414398064124L500.8771929824561,278.55414398064124L500.8771929824561,324.7731397459165L379.88505747126436,324.7731397459165Z" threeD="true" initial_fill_path="rgb(255, 255, 0)" initial_fill_group="rgb(247, 256, 0)">
        </path><path id="faceBottom" class="face faceBottom" style="fill: rgb(218, 120, 0);" d="M395.1612903225806,336.38709677419354L524.1935483870968,336.38709677419354L500.8771929824561,324.7731397459165L379.88505747126436,324.7731397459165Z" threeD="true" initial_fill_path="rgb(218, 165, 32)" initial_fill_group="rgb(210, 161, 28)">
        </path><path id="faceRight" class="face faceRight" style="fill: rgb(256, 172, 0);" d="M524.1935483870968,287.0967741935484L500.8771929824561,278.55414398064124L500.8771929824561,324.7731397459165L524.1935483870968,336.38709677419354Z" threeD="true" initial_fill_path="rgb(255, 215, 0)" initial_fill_group="rgb(248, 213, 0)">
        </path><path id="faceFront" class="face faceFront" style="fill: rgb(264, 203, 0);" d="M395.1612903225806,287.0967741935484L524.1935483870968,287.0967741935484L524.1935483870968,336.38709677419354L395.1612903225806,336.38709677419354Z" threeD="true" initial_fill_path="rgb(255, 255, 0)" initial_fill_group="rgb(256, 244, 0)">
        </path><path id="faceTop" class="face faceTop" style="fill: rgb(216, 125, 0);" d="M395.1612903225806,287.0967741935484L524.1935483870968,287.0967741935484L500.8771929824561,278.55414398064124L379.88505747126436,278.55414398064124Z" threeD="true" initial_fill_path="rgb(218, 165, 32)" initial_fill_group="rgb(208, 166, 17)">
        </path><path id="faceLeft" class="face faceLeft" style="fill: rgb(257, 171, 0);" d="M395.1612903225806,287.0967741935484L379.88505747126436,278.55414398064124L379.88505747126436,324.7731397459165L395.1612903225806,336.38709677419354Z" threeD="true" initial_fill_path="rgb(255, 215, 0)" initial_fill_group="rgb(249, 212, 7)">
        </path>
      
     
	</g><g id="g1" onclick="svg3d.toggleRotation()" svgHUD_initial_transform="translate(0 0)" transform="translate(-2.7860329006426103 1.3112204590416145)">
      
      
            
      
      
     <path id="faceBack" class="face faceBack" style="fill: rgb(236, 254, 0);" d="M270.99213551119175,278.55414398064124L391.9842710223835,278.55414398064124L391.9842710223835,324.7731397459165L270.99213551119175,324.7731397459165Z" threeD="true" initial_fill_path="rgb(255, 255, 0)" initial_fill_group="rgb(252, 253, 0)">
        </path><path id="faceBottom" class="face faceBottom" style="fill: rgb(190, 159, 22);" d="M279.0322580645161,336.38709677419354L408.06451612903226,336.38709677419354L391.9842710223835,324.7731397459165L270.99213551119175,324.7731397459165Z" threeD="true" initial_fill_path="rgb(218, 165, 32)" initial_fill_group="rgb(206, 158, 40)">
        </path><path id="faceRight" class="face faceRight" style="fill: rgb(228, 208, 0);" d="M408.06451612903226,287.0967741935484L391.9842710223835,278.55414398064124L391.9842710223835,324.7731397459165L408.06451612903226,336.38709677419354Z" threeD="true" initial_fill_path="rgb(255, 215, 0)" initial_fill_group="rgb(244, 207, 0)">
        </path><path id="faceFront" class="face faceFront" style="fill: rgb(238, 246, 0);" d="M279.0322580645161,287.0967741935484L408.06451612903226,287.0967741935484L408.06451612903226,336.38709677419354L279.0322580645161,336.38709677419354Z" threeD="true" initial_fill_path="rgb(255, 255, 0)" initial_fill_group="rgb(254, 245, 4)">
        </path><path id="faceTop" class="face faceTop" style="fill: rgb(192, 152, 19);" d="M279.0322580645161,287.0967741935484L408.06451612903226,287.0967741935484L391.9842710223835,278.55414398064124L270.99213551119175,278.55414398064124Z" threeD="true" initial_fill_path="rgb(218, 165, 32)" initial_fill_group="rgb(208, 151, 37)">
        </path><path id="faceLeft" class="face faceLeft" style="fill: rgb(241, 214, 0);" d="M279.0322580645161,287.0967741935484L270.99213551119175,278.55414398064124L270.99213551119175,324.7731397459165L279.0322580645161,336.38709677419354Z" threeD="true" initial_fill_path="rgb(255, 215, 0)" initial_fill_group="rgb(257, 213, 0)">
        </path>
	</g><g id="g1" onclick="svg3d.toggleRotation()" svgHUD_initial_transform="translate(0 0)" transform="translate(-5.738013506585527 3.715593279814706)">
      
      
            
      <path id="faceBack" class="face faceBack" style="fill: rgb(298, 172, 0);" d="M1310.4714415231188,342.6563916591115L1491.795104261106,342.6563916591115L1491.795104261106,411.92203082502266L1310.4714415231188,411.92203082502266Z" threeD="true" initial_fill_path="rgb(255, 255, 0)" initial_fill_group="rgb(254, 238, 0)">
        </path><path id="faceBottom" class="face faceBottom" style="fill: rgb(255, 84, 25);" d="M1430,438.9L1630,438.9L1491.795104261106,411.92203082502266L1310.4714415231188,411.92203082502266Z" threeD="true" initial_fill_path="rgb(218, 165, 32)" initial_fill_group="rgb(211, 150, 29)">
        </path><path id="faceRight" class="face faceRight" style="fill: rgb(288, 143, 0);" d="M1630,362.5L1491.795104261106,342.6563916591115L1491.795104261106,411.92203082502266L1630,438.9Z" threeD="true" initial_fill_path="rgb(255, 215, 0)" initial_fill_group="rgb(244, 209, 0)">
        </path><path id="faceFront" class="face faceFront" style="fill: rgb(312, 176, 0);" d="M1430,362.5L1630,362.5L1630,438.9L1430,438.9Z" threeD="true" initial_fill_path="rgb(255, 255, 0)" initial_fill_group="rgb(268, 242, 0)">
        </path><path id="faceTop" class="face faceTop" style="fill: rgb(259, 83, 37);" d="M1430,362.5L1630,362.5L1491.795104261106,342.6563916591115L1310.4714415231188,342.6563916591115Z" threeD="true" initial_fill_path="rgb(218, 165, 32)" initial_fill_group="rgb(215, 149, 41)">
        </path><path id="faceLeft" class="face faceLeft" style="fill: rgb(300, 155, 0);" d="M1430,362.5L1310.4714415231188,342.6563916591115L1310.4714415231188,411.92203082502266L1430,438.9Z" threeD="true" initial_fill_path="rgb(255, 215, 0)" initial_fill_group="rgb(256, 221, 2)">
        </path>
      
     
	</g><g id="g1" onclick="svg3d.toggleRotation()" svgHUD_initial_transform="translate(0 0)" transform="translate(1.6677434069052064 -1.2238354474502162)">
      
      
            
      <path id="faceBack" class="face faceBack" style="fill: rgb(189, 212, 0);" d="M1005.1438196423944,315.19823788546256L1160.6245141228299,315.19823788546256L1160.6245141228299,374.59186317698885L1005.1438196423944,374.59186317698885Z" threeD="true" initial_fill_path="rgb(255, 255, 0)" initial_fill_group="rgb(234, 243, 17)">
        </path><path id="faceBottom" class="face faceBottom" style="fill: rgb(156, 127, 0);" d="M1079.5774647887324,394.14084507042253L1248.5915492957747,394.14084507042253L1160.6245141228299,374.59186317698885L1005.1438196423944,374.59186317698885Z" threeD="true" initial_fill_path="rgb(218, 165, 32)" initial_fill_group="rgb(201, 158, 22)">
        </path><path id="faceRight" class="face faceRight" style="fill: rgb(195, 178, 0);" d="M1248.5915492957747,329.5774647887324L1160.6245141228299,315.19823788546256L1160.6245141228299,374.59186317698885L1248.5915492957747,394.14084507042253Z" threeD="true" initial_fill_path="rgb(255, 215, 0)" initial_fill_group="rgb(240, 209, 0)">
        </path><path id="faceFront" class="face faceFront" style="fill: rgb(223, 228, 0);" d="M1079.5774647887324,329.5774647887324L1248.5915492957747,329.5774647887324L1248.5915492957747,394.14084507042253L1079.5774647887324,394.14084507042253Z" threeD="true" initial_fill_path="rgb(255, 255, 0)" initial_fill_group="rgb(268, 259, 5)">
        </path><path id="faceTop" class="face faceTop" style="fill: rgb(161, 122, 0);" d="M1079.5774647887324,329.5774647887324L1248.5915492957747,329.5774647887324L1160.6245141228299,315.19823788546256L1005.1438196423944,315.19823788546256Z" threeD="true" initial_fill_path="rgb(218, 165, 32)" initial_fill_group="rgb(206, 153, 26)">
        </path><path id="faceLeft" class="face faceLeft" style="fill: rgb(220, 171, 0);" d="M1079.5774647887324,329.5774647887324L1005.1438196423944,315.19823788546256L1005.1438196423944,374.59186317698885L1079.5774647887324,394.14084507042253Z" threeD="true" initial_fill_path="rgb(255, 215, 0)" initial_fill_group="rgb(265, 202, 5)">
        </path>
      
     
	</g><g id="g1" onclick="svg3d.toggleRotation()" svgHUD_initial_transform="translate(0 0)" transform="translate(5.193219469275904 -4.376074329807253)">
      
      
            
      <path id="faceBack" class="face faceBack" style="fill: rgb(281, 242, 0);" d="M775.9922885007938,294.59061011567246L912.0775686096621,294.59061011567246L912.0775686096621,346.57518711726016L775.9922885007938,346.57518711726016Z" threeD="true" initial_fill_path="rgb(255, 255, 0)" initial_fill_group="rgb(245, 242, 0)">
        </path><path id="faceBottom" class="face faceBottom" style="fill: rgb(250, 159, 29);" d="M823.1707317073171,361.390243902439L969.5121951219513,361.390243902439L912.0775686096621,346.57518711726016L775.9922885007938,346.57518711726016Z" threeD="true" initial_fill_path="rgb(218, 165, 32)" initial_fill_group="rgb(214, 159, 31)">
        </path><path id="faceRight" class="face faceRight" style="fill: rgb(281, 226, 0);" d="M969.5121951219513,305.4878048780488L912.0775686096621,294.59061011567246L912.0775686096621,346.57518711726016L969.5121951219513,361.390243902439Z" threeD="true" initial_fill_path="rgb(255, 215, 0)" initial_fill_group="rgb(245, 226, 0)">
        </path><path id="faceFront" class="face faceFront" style="fill: rgb(276, 244, 8);" d="M823.1707317073171,305.4878048780488L969.5121951219513,305.4878048780488L969.5121951219513,361.390243902439L823.1707317073171,361.390243902439Z" threeD="true" initial_fill_path="rgb(255, 255, 0)" initial_fill_group="rgb(240, 244, 10)">
        </path><path id="faceTop" class="face faceTop" style="fill: rgb(247, 155, 20);" d="M823.1707317073171,305.4878048780488L969.5121951219513,305.4878048780488L912.0775686096621,294.59061011567246L775.9922885007938,294.59061011567246Z" threeD="true" initial_fill_path="rgb(218, 165, 32)" initial_fill_group="rgb(211, 155, 22)">
        </path><path id="faceLeft" class="face faceLeft" style="fill: rgb(292, 211, 7);" d="M823.1707317073171,305.4878048780488L775.9922885007938,294.59061011567246L775.9922885007938,346.57518711726016L823.1707317073171,361.390243902439Z" threeD="true" initial_fill_path="rgb(255, 215, 0)" initial_fill_group="rgb(256, 211, 9)">
        </path>
      
     
	</g><g id="g1" onclick="svg3d.toggleRotation()" svgHUD_initial_transform="translate(0 0)" transform="translate(-1.5586339409010186 -3.578274407460125)">
      
      
            
      <path id="faceBack" class="face faceBack" style="fill: rgb(264, 272, 0);" d="M653.5155364028124,294.59061011567246L789.6008165116806,294.59061011567246L789.6008165116806,346.57518711726016L653.5155364028124,346.57518711726016Z" threeD="true" initial_fill_path="rgb(255, 255, 0)" initial_fill_group="rgb(256, 265, 0)">
        </path><path id="faceBottom" class="face faceBottom" style="fill: rgb(240, 173, 0);" d="M691.4634146341464,361.390243902439L837.8048780487806,361.390243902439L789.6008165116806,346.57518711726016L653.5155364028124,346.57518711726016Z" threeD="true" initial_fill_path="rgb(218, 165, 32)" initial_fill_group="rgb(232, 166, 3)">
        </path><path id="faceRight" class="face faceRight" style="fill: rgb(265, 229, 0);" d="M837.8048780487806,305.4878048780488L789.6008165116806,294.59061011567246L789.6008165116806,346.57518711726016L837.8048780487806,361.390243902439Z" threeD="true" initial_fill_path="rgb(255, 215, 0)" initial_fill_group="rgb(257, 222, 0)">
        </path><path id="faceFront" class="face faceFront" style="fill: rgb(257, 272, 0);" d="M691.4634146341464,305.4878048780488L837.8048780487806,305.4878048780488L837.8048780487806,361.390243902439L691.4634146341464,361.390243902439Z" threeD="true" initial_fill_path="rgb(255, 255, 0)" initial_fill_group="rgb(249, 265, 0)">
        </path><path id="faceTop" class="face faceTop" style="fill: rgb(221, 171, 0);" d="M691.4634146341464,305.4878048780488L837.8048780487806,305.4878048780488L789.6008165116806,294.59061011567246L653.5155364028124,294.59061011567246Z" threeD="true" initial_fill_path="rgb(218, 165, 32)" initial_fill_group="rgb(213, 164, 19)">
        </path><path id="faceLeft" class="face faceLeft" style="fill: rgb(241, 212, 0);" d="M691.4634146341464,305.4878048780488L653.5155364028124,294.59061011567246L653.5155364028124,346.57518711726016L691.4634146341464,361.390243902439Z" threeD="true" initial_fill_path="rgb(255, 215, 0)" initial_fill_group="rgb(233, 205, 0)">
        </path>
      
     
	</g><g id="g1" onclick="svg3d.toggleRotation()" svgHUD_initial_transform="translate(0 0)" transform="translate(-1.642743105713374 2.26197394641112)">
      
      
            
      
      
     <path id="faceBack" class="face faceBack" style="fill: rgb(266, 289, 37);" d="M286.08528010886823,294.59061011567246L422.17056021773647,294.59061011567246L422.17056021773647,346.57518711726016L286.08528010886823,346.57518711726016Z" threeD="true" initial_fill_path="rgb(255, 255, 0)" initial_fill_group="rgb(243, 237, 8)">
        </path><path id="faceBottom" class="face faceBottom" style="fill: rgb(250, 208, 59);" d="M296.3414634146342,361.390243902439L442.68292682926835,361.390243902439L422.17056021773647,346.57518711726016L286.08528010886823,346.57518711726016Z" threeD="true" initial_fill_path="rgb(218, 165, 32)" initial_fill_group="rgb(227, 156, 30)">
        </path><path id="faceRight" class="face faceRight" style="fill: rgb(278, 260, 29);" d="M442.68292682926835,305.4878048780488L422.17056021773647,294.59061011567246L422.17056021773647,346.57518711726016L442.68292682926835,361.390243902439Z" threeD="true" initial_fill_path="rgb(255, 215, 0)" initial_fill_group="rgb(255, 208, 0)">
        </path><path id="faceFront" class="face faceFront" style="fill: rgb(268, 306, 29);" d="M296.3414634146342,305.4878048780488L442.68292682926835,305.4878048780488L442.68292682926835,361.390243902439L296.3414634146342,361.390243902439Z" threeD="true" initial_fill_path="rgb(255, 255, 0)" initial_fill_group="rgb(245, 254, 0)">
        </path><path id="faceTop" class="face faceTop" style="fill: rgb(246, 193, 52);" d="M296.3414634146342,305.4878048780488L442.68292682926835,305.4878048780488L422.17056021773647,294.59061011567246L286.08528010886823,294.59061011567246Z" threeD="true" initial_fill_path="rgb(218, 165, 32)" initial_fill_group="rgb(223, 141, 23)">
        </path><path id="faceLeft" class="face faceLeft" style="fill: rgb(278, 244, 30);" d="M296.3414634146342,305.4878048780488L286.08528010886823,294.59061011567246L286.08528010886823,346.57518711726016L296.3414634146342,361.390243902439Z" threeD="true" initial_fill_path="rgb(255, 215, 0)" initial_fill_group="rgb(255, 192, 1)">
        </path>
	</g><g id="g1" onclick="svg3d.toggleRotation()" svgHUD_initial_transform="translate(0 0)" transform="translate(-4.219192350212254 -0.6880639892259403)">
      
      
            
      <path id="faceBack" class="face faceBack" style="fill: rgb(256, 201, 0);" d="M1147.2801450589302,342.6563916591115L1328.6038077969174,342.6563916591115L1328.6038077969174,411.92203082502266L1147.2801450589302,411.92203082502266Z" threeD="true" initial_fill_path="rgb(255, 255, 0)" initial_fill_group="rgb(258, 251, 0)">
        </path><path id="faceBottom" class="face faceBottom" style="fill: rgb(201, 88, 33);" d="M1250,438.9L1450,438.9L1328.6038077969174,411.92203082502266L1147.2801450589302,411.92203082502266Z" threeD="true" initial_fill_path="rgb(218, 165, 32)" initial_fill_group="rgb(203, 138, 42)">
        </path><path id="faceRight" class="face faceRight" style="fill: rgb(246, 164, 3);" d="M1450,362.5L1328.6038077969174,342.6563916591115L1328.6038077969174,411.92203082502266L1450,438.9Z" threeD="true" initial_fill_path="rgb(255, 215, 0)" initial_fill_group="rgb(248, 214, 12)">
        </path><path id="faceFront" class="face faceFront" style="fill: rgb(229, 208, 0);" d="M1250,362.5L1450,362.5L1450,438.9L1250,438.9Z" threeD="true" initial_fill_path="rgb(255, 255, 0)" initial_fill_group="rgb(231, 258, 6)">
        </path><path id="faceTop" class="face faceTop" style="fill: rgb(214, 94, 19);" d="M1250,362.5L1450,362.5L1328.6038077969174,342.6563916591115L1147.2801450589302,342.6563916591115Z" threeD="true" initial_fill_path="rgb(218, 165, 32)" initial_fill_group="rgb(216, 144, 28)">
        </path><path id="faceLeft" class="face faceLeft" style="fill: rgb(260, 150, 0);" d="M1250,362.5L1147.2801450589302,342.6563916591115L1147.2801450589302,411.92203082502266L1250,438.9Z" threeD="true" initial_fill_path="rgb(255, 215, 0)" initial_fill_group="rgb(262, 200, 0)">
        </path>
      
     
	</g><g id="g1" onclick="svg3d.toggleRotation()" svgHUD_initial_transform="translate(0 0)" transform="translate(-14.687128646666421 -1.3486556030055064)">
      
      
            
      <path id="faceBack" class="face faceBack" style="fill: rgb(225, 258, 0);" d="M865.2111946100026,315.19823788546256L1020.6918890904379,315.19823788546256L1020.6918890904379,374.59186317698885L865.2111946100026,374.59186317698885Z" threeD="true" initial_fill_path="rgb(255, 255, 0)" initial_fill_group="rgb(248, 248, 0)">
        </path><path id="faceBottom" class="face faceBottom" style="fill: rgb(190, 152, 10);" d="M927.4647887323944,394.14084507042253L1096.4788732394366,394.14084507042253L1020.6918890904379,374.59186317698885L865.2111946100026,374.59186317698885Z" threeD="true" initial_fill_path="rgb(218, 165, 32)" initial_fill_group="rgb(213, 142, 24)">
        </path><path id="faceRight" class="face faceRight" style="fill: rgb(228, 225, 0);" d="M1096.4788732394366,329.5774647887324L1020.6918890904379,315.19823788546256L1020.6918890904379,374.59186317698885L1096.4788732394366,394.14084507042253Z" threeD="true" initial_fill_path="rgb(255, 215, 0)" initial_fill_group="rgb(251, 215, 4)">
        </path><path id="faceFront" class="face faceFront" style="fill: rgb(218, 262, 0);" d="M927.4647887323944,329.5774647887324L1096.4788732394366,329.5774647887324L1096.4788732394366,394.14084507042253L927.4647887323944,394.14084507042253Z" threeD="true" initial_fill_path="rgb(255, 255, 0)" initial_fill_group="rgb(241, 252, 0)">
        </path><path id="faceTop" class="face faceTop" style="fill: rgb(182, 171, 19);" d="M927.4647887323944,329.5774647887324L1096.4788732394366,329.5774647887324L1020.6918890904379,315.19823788546256L865.2111946100026,315.19823788546256Z" threeD="true" initial_fill_path="rgb(218, 165, 32)" initial_fill_group="rgb(205, 161, 33)">
        </path><path id="faceLeft" class="face faceLeft" style="fill: rgb(226, 205, 0);" d="M927.4647887323944,329.5774647887324L865.2111946100026,315.19823788546256L865.2111946100026,374.59186317698885L927.4647887323944,394.14084507042253Z" threeD="true" initial_fill_path="rgb(255, 215, 0)" initial_fill_group="rgb(249, 195, 0)">
        </path>
      
     
	</g><g id="g1" onclick="svg3d.toggleRotation()" svgHUD_initial_transform="translate(0 0)" transform="translate(0.241390940611477 5.555337817878061)">
      
      
            
      <path id="faceBack" class="face faceBack" style="fill: rgb(259, 208, 17);" d="M531.0387843048311,294.59061011567246L667.1240644136992,294.59061011567246L667.1240644136992,346.57518711726016L531.0387843048311,346.57518711726016Z" threeD="true" initial_fill_path="rgb(255, 255, 0)" initial_fill_group="rgb(253, 257, 0)">
        </path><path id="faceBottom" class="face faceBottom" style="fill: rgb(212, 120, 56);" d="M559.7560975609756,361.390243902439L706.0975609756098,361.390243902439L667.1240644136992,346.57518711726016L531.0387843048311,346.57518711726016Z" threeD="true" initial_fill_path="rgb(218, 165, 32)" initial_fill_group="rgb(206, 169, 39)">
        </path><path id="faceRight" class="face faceRight" style="fill: rgb(275, 165, 19);" d="M706.0975609756098,305.4878048780488L667.1240644136992,294.59061011567246L667.1240644136992,346.57518711726016L706.0975609756098,361.390243902439Z" threeD="true" initial_fill_path="rgb(255, 215, 0)" initial_fill_group="rgb(269, 214, 2)">
        </path><path id="faceFront" class="face faceFront" style="fill: rgb(247, 211, 29);" d="M559.7560975609756,305.4878048780488L706.0975609756098,305.4878048780488L706.0975609756098,361.390243902439L559.7560975609756,361.390243902439Z" threeD="true" initial_fill_path="rgb(255, 255, 0)" initial_fill_group="rgb(241, 260, 12)">
        </path><path id="faceTop" class="face faceTop" style="fill: rgb(213, 112, 42);" d="M559.7560975609756,305.4878048780488L706.0975609756098,305.4878048780488L667.1240644136992,294.59061011567246L531.0387843048311,294.59061011567246Z" threeD="true" initial_fill_path="rgb(218, 165, 32)" initial_fill_group="rgb(207, 161, 25)">
        </path><path id="faceLeft" class="face faceLeft" style="fill: rgb(256, 158, 17);" d="M559.7560975609756,305.4878048780488L531.0387843048311,294.59061011567246L531.0387843048311,346.57518711726016L559.7560975609756,361.390243902439Z" threeD="true" initial_fill_path="rgb(255, 215, 0)" initial_fill_group="rgb(250, 207, 0)">
        </path>
      
     
	</g><g id="g1" onclick="svg3d.toggleRotation()" svgHUD_initial_transform="translate(0 0)" transform="translate(2.1502904744874503 -1.1990303284837167)">
      
      
            
      <path id="faceBack" class="face faceBack" style="fill: rgb(251, 286, 47);" d="M408.5620322068496,294.59061011567246L544.6473123157178,294.59061011567246L544.6473123157178,346.57518711726016L408.5620322068496,346.57518711726016Z" threeD="true" initial_fill_path="rgb(255, 255, 0)" initial_fill_group="rgb(248, 251, 0)">
        </path><path id="faceBottom" class="face faceBottom" style="fill: rgb(203, 200, 81);" d="M428.0487804878049,361.390243902439L574.3902439024391,361.390243902439L544.6473123157178,346.57518711726016L408.5620322068496,346.57518711726016Z" threeD="true" initial_fill_path="rgb(218, 165, 32)" initial_fill_group="rgb(200, 165, 34)">
        </path><path id="faceRight" class="face faceRight" style="fill: rgb(259, 267, 47);" d="M574.3902439024391,305.4878048780488L544.6473123157178,294.59061011567246L544.6473123157178,346.57518711726016L574.3902439024391,361.390243902439Z" threeD="true" initial_fill_path="rgb(255, 215, 0)" initial_fill_group="rgb(256, 232, 0)">
        </path><path id="faceFront" class="face faceFront" style="fill: rgb(247, 284, 47);" d="M428.0487804878049,305.4878048780488L574.3902439024391,305.4878048780488L574.3902439024391,361.390243902439L428.0487804878049,361.390243902439Z" threeD="true" initial_fill_path="rgb(255, 255, 0)" initial_fill_group="rgb(244, 249, 0)">
        </path><path id="faceTop" class="face faceTop" style="fill: rgb(214, 200, 61);" d="M428.0487804878049,305.4878048780488L574.3902439024391,305.4878048780488L544.6473123157178,294.59061011567246L408.5620322068496,294.59061011567246Z" threeD="true" initial_fill_path="rgb(218, 165, 32)" initial_fill_group="rgb(211, 165, 14)">
        </path><path id="faceLeft" class="face faceLeft" style="fill: rgb(252, 236, 47);" d="M428.0487804878049,305.4878048780488L408.5620322068496,294.59061011567246L408.5620322068496,346.57518711726016L428.0487804878049,361.390243902439Z" threeD="true" initial_fill_path="rgb(255, 215, 0)" initial_fill_group="rgb(249, 201, 0)">
        </path>
      
     
	</g><g id="g1" onclick="svg3d.toggleRotation()" svgHUD_initial_transform="translate(0 0)" transform="translate(10.235493271312185 -4.703234368722195)">
      
      
            
      <path id="faceBack" class="face faceBack" style="fill: rgb(290, 272, 20);" d="M984.0888485947415,342.6563916591115L1165.4125113327289,342.6563916591115L1165.4125113327289,411.92203082502266L984.0888485947415,411.92203082502266Z" threeD="true" initial_fill_path="rgb(255, 255, 0)" initial_fill_group="rgb(269, 263, 0)">
        </path><path id="faceBottom" class="face faceBottom" style="fill: rgb(236, 157, 37);" d="M1070,438.9L1270,438.9L1165.4125113327289,411.92203082502266L984.0888485947415,411.92203082502266Z" threeD="true" initial_fill_path="rgb(218, 165, 32)" initial_fill_group="rgb(215, 148, 17)">
        </path><path id="faceRight" class="face faceRight" style="fill: rgb(283, 213, 20);" d="M1270,362.5L1165.4125113327289,342.6563916591115L1165.4125113327289,411.92203082502266L1270,438.9Z" threeD="true" initial_fill_path="rgb(255, 215, 0)" initial_fill_group="rgb(262, 204, 0)">
        </path><path id="faceFront" class="face faceFront" style="fill: rgb(281, 256, 23);" d="M1070,362.5L1270,362.5L1270,438.9L1070,438.9Z" threeD="true" initial_fill_path="rgb(255, 255, 0)" initial_fill_group="rgb(260, 247, 3)">
        </path><path id="faceTop" class="face faceTop" style="fill: rgb(231, 182, 33);" d="M1070,362.5L1270,362.5L1165.4125113327289,342.6563916591115L984.0888485947415,342.6563916591115Z" threeD="true" initial_fill_path="rgb(218, 165, 32)" initial_fill_group="rgb(210, 173, 13)">
        </path><path id="faceLeft" class="face faceLeft" style="fill: rgb(282, 210, 20);" d="M1070,362.5L984.0888485947415,342.6563916591115L984.0888485947415,411.92203082502266L1070,438.9Z" threeD="true" initial_fill_path="rgb(255, 215, 0)" initial_fill_group="rgb(261, 201, 0)">
        </path>
      
     
	</g><g id="g1" onclick="svg3d.toggleRotation()" svgHUD_initial_transform="translate(0 0)" transform="translate(-5.31524667928412 0.7923989707479617)">
      
      
            
      <path id="faceBack" class="face faceBack" style="fill: rgb(234, 274, 15);" d="M725.2785695776108,315.19823788546256L880.7592640580461,315.19823788546256L880.7592640580461,374.59186317698885L725.2785695776108,374.59186317698885Z" threeD="true" initial_fill_path="rgb(255, 255, 0)" initial_fill_group="rgb(267, 251, 2)">
        </path><path id="faceBottom" class="face faceBottom" style="fill: rgb(172, 187, 52);" d="M775.3521126760563,394.14084507042253L944.3661971830986,394.14084507042253L880.7592640580461,374.59186317698885L725.2785695776108,374.59186317698885Z" threeD="true" initial_fill_path="rgb(218, 165, 32)" initial_fill_group="rgb(205, 164, 39)">
        </path><path id="faceRight" class="face faceRight" style="fill: rgb(212, 231, 13);" d="M944.3661971830986,329.5774647887324L880.7592640580461,315.19823788546256L880.7592640580461,374.59186317698885L944.3661971830986,394.14084507042253Z" threeD="true" initial_fill_path="rgb(255, 215, 0)" initial_fill_group="rgb(245, 208, 0)">
        </path><path id="faceFront" class="face faceFront" style="fill: rgb(211, 275, 13);" d="M775.3521126760563,329.5774647887324L944.3661971830986,329.5774647887324L944.3661971830986,394.14084507042253L775.3521126760563,394.14084507042253Z" threeD="true" initial_fill_path="rgb(255, 255, 0)" initial_fill_group="rgb(244, 252, 0)">
        </path><path id="faceTop" class="face faceTop" style="fill: rgb(171, 199, 47);" d="M775.3521126760563,329.5774647887324L944.3661971830986,329.5774647887324L880.7592640580461,315.19823788546256L725.2785695776108,315.19823788546256Z" threeD="true" initial_fill_path="rgb(218, 165, 32)" initial_fill_group="rgb(204, 176, 34)">
        </path><path id="faceLeft" class="face faceLeft" style="fill: rgb(207, 216, 13);" d="M775.3521126760563,329.5774647887324L725.2785695776108,315.19823788546256L725.2785695776108,374.59186317698885L775.3521126760563,394.14084507042253Z" threeD="true" initial_fill_path="rgb(255, 215, 0)" initial_fill_group="rgb(240, 193, 0)">
        </path>
      
     
	</g><g id="g1" onclick="svg3d.toggleRotation()" svgHUD_initial_transform="translate(0 0)" transform="translate(0.21598364887066315 5.591160110618739)">
      
      
            
      <path id="faceBack" class="face faceBack" style="fill: rgb(251, 285, 22);" d="M820.897552130553,342.6563916591115L1002.2212148685403,342.6563916591115L1002.2212148685403,411.92203082502266L820.897552130553,411.92203082502266Z" threeD="true" initial_fill_path="rgb(255, 255, 0)" initial_fill_group="rgb(241, 247, 6)">
        </path><path id="faceBottom" class="face faceBottom" style="fill: rgb(227, 192, 38);" d="M890,438.9L1090,438.9L1002.2212148685403,411.92203082502266L820.897552130553,411.92203082502266Z" threeD="true" initial_fill_path="rgb(218, 165, 32)" initial_fill_group="rgb(217, 154, 22)">
        </path><path id="faceRight" class="face faceRight" style="fill: rgb(270, 249, 20);" d="M1090,362.5L1002.2212148685403,342.6563916591115L1002.2212148685403,411.92203082502266L1090,438.9Z" threeD="true" initial_fill_path="rgb(255, 215, 0)" initial_fill_group="rgb(260, 211, 4)">
        </path><path id="faceFront" class="face faceFront" style="fill: rgb(262, 286, 16);" d="M890,362.5L1090,362.5L1090,438.9L890,438.9Z" threeD="true" initial_fill_path="rgb(255, 255, 0)" initial_fill_group="rgb(252, 248, 0)">
        </path><path id="faceTop" class="face faceTop" style="fill: rgb(228, 188, 51);" d="M890,362.5L1090,362.5L1002.2212148685403,342.6563916591115L820.897552130553,342.6563916591115Z" threeD="true" initial_fill_path="rgb(218, 165, 32)" initial_fill_group="rgb(218, 150, 35)">
        </path><path id="faceLeft" class="face faceLeft" style="fill: rgb(262, 240, 19);" d="M890,362.5L820.897552130553,342.6563916591115L820.897552130553,411.92203082502266L890,438.9Z" threeD="true" initial_fill_path="rgb(255, 215, 0)" initial_fill_group="rgb(252, 202, 3)">
        </path>
      
     
	</g><g id="g1" onclick="svg3d.toggleRotation()" svgHUD_initial_transform="translate(0 0)" transform="translate(2.7081988568711712 -0.36826151965598736)">
      
      
            
      <path id="faceBack" class="face faceBack" style="fill: rgb(203, 216, 15);" d="M585.345944545219,315.19823788546256L740.8266390256543,315.19823788546256L740.8266390256543,374.59186317698885L585.345944545219,374.59186317698885Z" threeD="true" initial_fill_path="rgb(255, 255, 0)" initial_fill_group="rgb(256, 246, 0)">
        </path><path id="faceBottom" class="face faceBottom" style="fill: rgb(143, 129, 30);" d="M623.2394366197183,394.14084507042253L792.2535211267606,394.14084507042253L740.8266390256543,374.59186317698885L585.345944545219,374.59186317698885Z" threeD="true" initial_fill_path="rgb(218, 165, 32)" initial_fill_group="rgb(196, 159, 15)">
        </path><path id="faceRight" class="face faceRight" style="fill: rgb(188, 177, 15);" d="M792.2535211267606,329.5774647887324L740.8266390256543,315.19823788546256L740.8266390256543,374.59186317698885L792.2535211267606,394.14084507042253Z" threeD="true" initial_fill_path="rgb(255, 215, 0)" initial_fill_group="rgb(241, 207, 0)">
        </path><path id="faceFront" class="face faceFront" style="fill: rgb(217, 220, 15);" d="M623.2394366197183,329.5774647887324L792.2535211267606,329.5774647887324L792.2535211267606,394.14084507042253L623.2394366197183,394.14084507042253Z" threeD="true" initial_fill_path="rgb(255, 255, 0)" initial_fill_group="rgb(270, 250, 0)">
        </path><path id="faceTop" class="face faceTop" style="fill: rgb(174, 122, 25);" d="M623.2394366197183,329.5774647887324L792.2535211267606,329.5774647887324L740.8266390256543,315.19823788546256L585.345944545219,315.19823788546256Z" threeD="true" initial_fill_path="rgb(218, 165, 32)" initial_fill_group="rgb(227, 152, 10)">
        </path><path id="faceLeft" class="face faceLeft" style="fill: rgb(207, 180, 15);" d="M623.2394366197183,329.5774647887324L585.345944545219,315.19823788546256L585.345944545219,374.59186317698885L623.2394366197183,394.14084507042253Z" threeD="true" initial_fill_path="rgb(255, 215, 0)" initial_fill_group="rgb(260, 210, 0)">
        </path>
      
     
	</g><g id="g1" onclick="svg3d.toggleRotation()" svgHUD_initial_transform="translate(0 0)" transform="translate(9.162496410451567 1.876348716417118)">
      
      
            
      <path id="faceBack" class="face faceBack" style="fill: rgb(207, 306, 37);" d="M445.4133195128272,315.19823788546256L600.8940139932625,315.19823788546256L600.8940139932625,374.59186317698885L445.4133195128272,374.59186317698885Z" threeD="true" initial_fill_path="rgb(255, 255, 0)" initial_fill_group="rgb(247, 244, 0)">
        </path><path id="faceBottom" class="face faceBottom" style="fill: rgb(178, 231, 60);" d="M471.1267605633803,394.14084507042253L640.1408450704225,394.14084507042253L600.8940139932625,374.59186317698885L445.4133195128272,374.59186317698885Z" threeD="true" initial_fill_path="rgb(218, 165, 32)" initial_fill_group="rgb(218, 169, 23)">
        </path><path id="faceRight" class="face faceRight" style="fill: rgb(219, 284, 37);" d="M640.1408450704225,329.5774647887324L600.8940139932625,315.19823788546256L600.8940139932625,374.59186317698885L640.1408450704225,394.14084507042253Z" threeD="true" initial_fill_path="rgb(255, 215, 0)" initial_fill_group="rgb(259, 222, 0)">
        </path><path id="faceFront" class="face faceFront" style="fill: rgb(203, 320, 37);" d="M471.1267605633803,329.5774647887324L640.1408450704225,329.5774647887324L640.1408450704225,394.14084507042253L471.1267605633803,394.14084507042253Z" threeD="true" initial_fill_path="rgb(255, 255, 0)" initial_fill_group="rgb(243, 258, 0)">
        </path><path id="faceTop" class="face faceTop" style="fill: rgb(157, 222, 51);" d="M471.1267605633803,329.5774647887324L640.1408450704225,329.5774647887324L600.8940139932625,315.19823788546256L445.4133195128272,315.19823788546256Z" threeD="true" initial_fill_path="rgb(218, 165, 32)" initial_fill_group="rgb(197, 160, 14)">
        </path><path id="faceLeft" class="face faceLeft" style="fill: rgb(224, 278, 37);" d="M471.1267605633803,329.5774647887324L445.4133195128272,315.19823788546256L445.4133195128272,374.59186317698885L471.1267605633803,394.14084507042253Z" threeD="true" initial_fill_path="rgb(255, 215, 0)" initial_fill_group="rgb(264, 216, 0)">
        </path>
      
     
	</g><g id="g1" onclick="svg3d.toggleRotation()" svgHUD_initial_transform="translate(0 0)" transform="translate(-7.557556512631744 -0.8350865707823412)">
      
      
            
      <path id="faceBack" class="face faceBack" style="fill: rgb(239, 302, 7);" d="M657.7062556663644,342.6563916591115L839.0299184043517,342.6563916591115L839.0299184043517,411.92203082502266L657.7062556663644,411.92203082502266Z" threeD="true" initial_fill_path="rgb(255, 255, 0)" initial_fill_group="rgb(244, 247, 4)">
        </path><path id="faceBottom" class="face faceBottom" style="fill: rgb(210, 209, 15);" d="M710,438.9L910,438.9L839.0299184043517,411.92203082502266L657.7062556663644,411.92203082502266Z" threeD="true" initial_fill_path="rgb(218, 165, 32)" initial_fill_group="rgb(215, 154, 12)">
        </path><path id="faceRight" class="face faceRight" style="fill: rgb(245, 276, 3);" d="M910,362.5L839.0299184043517,342.6563916591115L839.0299184043517,411.92203082502266L910,438.9Z" threeD="true" initial_fill_path="rgb(255, 215, 0)" initial_fill_group="rgb(250, 221, 0)">
        </path><path id="faceFront" class="face faceFront" style="fill: rgb(254, 306, 3);" d="M710,362.5L910,362.5L910,438.9L710,438.9Z" threeD="true" initial_fill_path="rgb(255, 255, 0)" initial_fill_group="rgb(259, 251, 0)">
        </path><path id="faceTop" class="face faceTop" style="fill: rgb(211, 217, 39);" d="M710,362.5L910,362.5L839.0299184043517,342.6563916591115L657.7062556663644,342.6563916591115Z" threeD="true" initial_fill_path="rgb(218, 165, 32)" initial_fill_group="rgb(216, 162, 36)">
        </path><path id="faceLeft" class="face faceLeft" style="fill: rgb(250, 265, 3);" d="M710,362.5L657.7062556663644,342.6563916591115L657.7062556663644,411.92203082502266L710,438.9Z" threeD="true" initial_fill_path="rgb(255, 215, 0)" initial_fill_group="rgb(255, 210, 0)">
        </path>
      
     
	</g><g id="g1" onclick="svg3d.toggleRotation()" svgHUD_initial_transform="translate(0 0)" transform="translate(4.411150864374828 -2.5382036415674443)">
      
      
            
      
      
     <path id="faceBack" class="face faceBack" style="fill: rgb(268, 222, 0);" d="M305.4806944804353,315.19823788546256L460.9613889608707,315.19823788546256L460.9613889608707,374.59186317698885L305.4806944804353,374.59186317698885Z" threeD="true" initial_fill_path="rgb(255, 255, 0)" initial_fill_group="rgb(255, 242, 6)">
        </path><path id="faceBottom" class="face faceBottom" style="fill: rgb(228, 133, 0);" d="M319.01408450704224,394.14084507042253L488.0281690140845,394.14084507042253L460.9613889608707,374.59186317698885L305.4806944804353,374.59186317698885Z" threeD="true" initial_fill_path="rgb(218, 165, 32)" initial_fill_group="rgb(215, 153, 11)">
        </path><path id="faceRight" class="face faceRight" style="fill: rgb(251, 186, 0);" d="M488.0281690140845,329.5774647887324L460.9613889608707,315.19823788546256L460.9613889608707,374.59186317698885L488.0281690140845,394.14084507042253Z" threeD="true" initial_fill_path="rgb(255, 215, 0)" initial_fill_group="rgb(238, 206, 0)">
        </path><path id="faceFront" class="face faceFront" style="fill: rgb(263, 241, 0);" d="M319.01408450704224,329.5774647887324L488.0281690140845,329.5774647887324L488.0281690140845,394.14084507042253L319.01408450704224,394.14084507042253Z" threeD="true" initial_fill_path="rgb(255, 255, 0)" initial_fill_group="rgb(250, 261, 0)">
        </path><path id="faceTop" class="face faceTop" style="fill: rgb(220, 134, 17);" d="M319.01408450704224,329.5774647887324L488.0281690140845,329.5774647887324L460.9613889608707,315.19823788546256L305.4806944804353,315.19823788546256Z" threeD="true" initial_fill_path="rgb(218, 165, 32)" initial_fill_group="rgb(207, 154, 41)">
        </path><path id="faceLeft" class="face faceLeft" style="fill: rgb(278, 209, 0);" d="M319.01408450704224,329.5774647887324L305.4806944804353,315.19823788546256L305.4806944804353,374.59186317698885L319.01408450704224,394.14084507042253Z" threeD="true" initial_fill_path="rgb(255, 215, 0)" initial_fill_group="rgb(265, 229, 0)">
        </path>
	</g><g id="g1" onclick="svg3d.toggleRotation()" svgHUD_initial_transform="translate(0 0)" transform="translate(11.61297374427585 4.791120757839654)">
      
      
            
      <path id="faceBack" class="face faceBack" style="fill: rgb(274, 226, 52);" d="M494.5149592021759,342.6563916591115L675.8386219401632,342.6563916591115L675.8386219401632,411.92203082502266L494.5149592021759,411.92203082502266Z" threeD="true" initial_fill_path="rgb(255, 255, 0)" initial_fill_group="rgb(247, 245, 0)">
        </path><path id="faceBottom" class="face faceBottom" style="fill: rgb(252, 149, 85);" d="M530,438.9L730,438.9L675.8386219401632,411.92203082502266L494.5149592021759,411.92203082502266Z" threeD="true" initial_fill_path="rgb(218, 165, 32)" initial_fill_group="rgb(225, 168, 33)">
        </path><path id="faceRight" class="face faceRight" style="fill: rgb(285, 201, 52);" d="M730,362.5L675.8386219401632,342.6563916591115L675.8386219401632,411.92203082502266L730,438.9Z" threeD="true" initial_fill_path="rgb(255, 215, 0)" initial_fill_group="rgb(258, 220, 0)">
        </path><path id="faceFront" class="face faceFront" style="fill: rgb(278, 233, 52);" d="M530,362.5L730,362.5L730,438.9L530,438.9Z" threeD="true" initial_fill_path="rgb(255, 255, 0)" initial_fill_group="rgb(251, 252, 0)">
        </path><path id="faceTop" class="face faceTop" style="fill: rgb(238, 141, 63);" d="M530,362.5L730,362.5L675.8386219401632,342.6563916591115L494.5149592021759,342.6563916591115Z" threeD="true" initial_fill_path="rgb(218, 165, 32)" initial_fill_group="rgb(211, 160, 11)">
        </path><path id="faceLeft" class="face faceLeft" style="fill: rgb(272, 183, 52);" d="M530,362.5L494.5149592021759,342.6563916591115L494.5149592021759,411.92203082502266L530,438.9Z" threeD="true" initial_fill_path="rgb(255, 215, 0)" initial_fill_group="rgb(245, 202, 0)">
        </path>
      
     
	</g><g id="g1" onclick="svg3d.toggleRotation()" svgHUD_initial_transform="translate(0 0)" transform="translate(5.051666061387357 4.24292148113787)">
      
      
            
      
      
     <path id="faceBack" class="face faceBack" style="fill: rgb(274, 280, 0);" d="M331.3236627379873,342.6563916591115L512.6473254759746,342.6563916591115L512.6473254759746,411.92203082502266L331.3236627379873,411.92203082502266Z" threeD="true" initial_fill_path="rgb(255, 255, 0)" initial_fill_group="rgb(245, 255, 0)">
        </path><path id="faceBottom" class="face faceBottom" style="fill: rgb(246, 177, 0);" d="M350,438.9L550,438.9L512.6473254759746,411.92203082502266L331.3236627379873,411.92203082502266Z" threeD="true" initial_fill_path="rgb(218, 165, 32)" initial_fill_group="rgb(217, 152, 25)">
        </path><path id="faceRight" class="face faceRight" style="fill: rgb(285, 230, 0);" d="M550,362.5L512.6473254759746,342.6563916591115L512.6473254759746,411.92203082502266L550,438.9Z" threeD="true" initial_fill_path="rgb(255, 215, 0)" initial_fill_group="rgb(256, 205, 0)">
        </path><path id="faceFront" class="face faceFront" style="fill: rgb(270, 278, 0);" d="M350,362.5L550,362.5L550,438.9L350,438.9Z" threeD="true" initial_fill_path="rgb(255, 255, 0)" initial_fill_group="rgb(241, 253, 3)">
        </path><path id="faceTop" class="face faceTop" style="fill: rgb(242, 189, 0);" d="M350,362.5L550,362.5L512.6473254759746,342.6563916591115L331.3236627379873,342.6563916591115Z" threeD="true" initial_fill_path="rgb(218, 165, 32)" initial_fill_group="rgb(213, 164, 25)">
        </path><path id="faceLeft" class="face faceLeft" style="fill: rgb(296, 216, 0);" d="M350,362.5L331.3236627379873,342.6563916591115L331.3236627379873,411.92203082502266L350,438.9Z" threeD="true" initial_fill_path="rgb(255, 215, 0)" initial_fill_group="rgb(267, 191, 0)">
        </path>
	</g></g><g class="svgReferenceGContainer"><g transform="translate(25.331573156649256 18.027945980647928) scale(0.17678645182851377)" id="layer1">
    <path d="M1476.4992212111165,1976.0716612868114C1489.0011912111165,1972.6620312868113,1500.9348812111166,1972.6620312868113,1506.0493112111164,1978.3447412868113,1511.1637612111165,1984.0274512868114,1513.4368412111164,2004.4852312868113,1528.7801512111164,2003.9169412868114,1544.1234712111166,2003.3486612868114,1554.3523512111165,1990.2784312868112,1571.4004812111166,1994.8245912868113,1588.4486112111165,1999.370761286811,1613.4525212111166,2011.872741286811,1655.5045812111166,2009.5996412868112,1697.5566212111166,2007.3265612868113,1760.0664312111167,1972.6620312868113,1771.4318512111165,1978.3447412868113,1782.7972712111164,1984.0274512868114,1783.9338012111166,1991.983251286811,1789.6165112111166,1988.5736212868112,1795.2992212111167,1985.164001286811,1800.9819312111165,1968.6841312868112,1800.9819312111165,1968.6841312868112,1800.9819312111165,1968.6841312868112,1750.9741012111165,1823.7750412868113,1752.6789012111165,1786.2691612868111,1754.3837212111166,1748.7632812868112,1737.3355912111165,1658.9764712868111,1737.3355912111165,1658.9764712868111,1737.3355912111165,1658.9764712868111,1583.3341712111164,1666.3640012868111,1583.3341712111164,1668.6370812868113,1583.3341712111164,1670.9101612868112,1531.0532412111165,1896.5137212868112,1476.4992212111165,1976.0716612868111z" id="path3389" style="fill:#cc0000;stroke:none"></path>
    <path d="M1591.2899612111164,1616.9244312868113C1582.1976212111165,1665.2274512868112,1538.0052012111164,1873.3162012868113,1462.2924512111165,1972.0937612868113,1452.1957112111165,1985.2663412868114,1470.8165112111164,2011.8727412868113,1470.8165112111164,2011.8727412868113,1470.8165112111164,2011.8727412868113,1587.3120612111165,1769.2210312868115,1591.2899612111164,1616.9244312868113z" id="path3387" style="fill:#a40000;stroke:none"></path>
    <path d="M1796.4357712111164,2039.1497312868112C1799.2771212111165,1992.551531286811,1794.1626812111165,1959.0235312868112,1775.4097412111164,1915.834941286811,1756.6568012111165,1872.6463512868113,1745.2913912111164,1783.4278112868112,1745.8596512111164,1747.626741286811,1746.4279212111164,1711.825671286811,1753.8154512111164,1695.914091286811,1753.8154512111164,1695.914091286811,1753.8154512111164,1695.914091286811,1757.7933412111165,1741.3757612868112,1764.6125912111165,1782.291271286811,1771.4318512111165,1823.206781286811,1822.5762312111165,1955.0456312868112,1821.4396812111165,1985.164001286811,1820.3031512111165,2015.282351286811,1796.4357712111164,2039.149731286811,1796.4357712111164,2039.149731286811z" id="path3391" style="fill:#a40000;stroke:none"></path>
    <path d="M1592.0375112111165,1541.3318712868113C1592.0375112111165,1541.3318712868113,1598.2658612111165,1577.2954912868113,1631.2157612111164,1553.1858012868113,1664.1656812111164,1529.076101286811,1666.1748212111165,1590.1540012868113,1666.1748212111165,1590.1540012868113,1666.1748212111165,1590.1540012868113,1660.1011012111167,1599.7104712868113,1646.4062012111165,1602.9292712868112,1638.1544812111165,1604.8687412868112,1629.2066312111165,1602.8115812868111,1629.2066312111165,1602.8115812868111,1629.2066312111165,1602.8115812868111,1638.2477612111165,1599.7978812868112,1640.4578112111165,1591.5604012868112,1631.2157612111164,1599.7978812868112,1621.1700612111165,1595.7795912868112,1621.1700612111165,1595.7795912868112,1621.1700612111165,1595.7795912868112,1634.8322212111166,1590.1540012868113,1636.0377112111164,1580.1082912868112,1631.0148612111166,1584.1265712868112,1617.3526912111165,1595.1768512868111,1597.0603712111165,1577.496411286811,1611.1243612111166,1579.7064612868112,1617.7545212111165,1572.4735512868112,1617.7545212111165,1572.4735512868112,1617.7545212111165,1572.4735512868112,1589.6265412111165,1570.8662412868111,1592.0375112111165,1541.331871286811z" id="path3334" style="fill:#edd400;stroke:none"></path>
    <path d="M1663.4621512111164,1582.2649912868112C1663.4621512111164,1582.2649912868112,1658.9064112111164,1604.2900812868113,1652.2743112111166,1619.7815412868113,1625.4634212111164,1615.6239212868113,1594.7391612111164,1611.0018612868112,1581.6293512111165,1616.9224212868112,1564.0129512111166,1624.8782112868112,1505.6909212111166,1719.279011286811,1476.2150912111165,1766.0935412868112,1471.3847812111164,1773.7652012868111,1519.6860412111164,1826.6197212868112,1519.6860412111164,1826.6197212868112L1538.4443112111164,1814.6860312868112,1519.1142212111165,1765.2482412868112C1519.1142212111165,1765.2482412868112,1552.6510912111166,1732.849691286811,1562.3117012111165,1720.3477312868113,1571.9723012111165,1707.8457712868112,1584.4760412111164,1696.480361286811,1584.4760412111164,1696.480361286811,1584.4760412111164,1696.480361286811,1604.2245212111166,1755.4683712868111,1599.8158012111164,1784.5659012868111,1591.2917412111165,1840.8247312868111,1573.1069812111164,1834.5759012868111,1563.4429112111166,1922.089241286811,1553.2673012111165,2014.2348512868111,1626.5192112111165,2110.188721286811,1636.7480812111166,2151.104171286811,1646.9769612111165,2192.019721286811,1647.5505512111165,2215.309901286811,1647.5505512111165,2215.309901286811L1712.3281112111165,2209.057231286811C1712.3281112111165,2209.057231286811,1708.3591012111165,2167.573421286811,1715.7466212111165,2141.432921286811,1723.1341412111165,2115.2925212868113,1766.8803612111165,1973.8001312868112,1753.8101212111164,1911.8585912868111,1740.7398912111166,1849.917051286811,1724.7964512111166,1830.4735412868113,1732.7894212111164,1797.6308112868112,1739.9023312111165,1768.404211286811,1746.6623412111167,1762.065921286811,1746.6623412111167,1762.065921286811,1746.6623412111167,1762.065921286811,1770.8653612111166,1749.894271286811,1760.6364712111165,1719.2076412868112L1797.5740912111164,1769.2172612868112,1781.6554012111164,1809.8504012868111C1781.6554012111164,1809.8504012868111,1800.1348612111165,1812.983001286811,1801.2713912111165,1812.983001286811,1802.4079412111164,1812.983001286811,1836.5006512111163,1781.435081286811,1836.5006512111163,1777.7413212868112,1836.5006512111163,1774.0475612868113,1809.5505412111165,1724.949951286811,1805.5227712111164,1708.1281312868111,1795.8621712111162,1667.780901286811,1803.3508312111164,1651.890691286811,1768.6029312111164,1640.6779212868112,1753.2770712111164,1635.732441286811,1726.7045512111163,1630.9443712868112,1706.2245312111163,1627.6751712868113,1705.7000212111163,1612.2611312868112,1707.2190112111164,1593.055041286811,1707.2190112111164,1593.055041286811z" id="path3338" style="fill:#729fcf;stroke:none"></path>
    <path d="M1750.1216912111165,1592.7729112868112C1750.1216912111165,1592.7729112868112,1726.8225812111166,1592.7729112868112,1721.7081412111165,1573.1675612868112,1716.5937012111165,1553.5622112868114,1698.6931712111166,1597.3190812868113,1698.6931712111166,1597.3190812868113,1698.6931712111166,1597.3190812868113,1698.3577212111165,1609.9477112868112,1712.0475412111166,1614.9354812868112,1717.6220012111166,1616.966491286811,1728.8115212111165,1614.9354812868112,1728.8115212111165,1614.9354812868112,1728.8115212111165,1614.9354812868112,1715.7413012111165,1612.6623912868113,1716.0254312111165,1601.2969812868112,1726.5384412111166,1607.2638212868112,1733.6418312111166,1607.2638212868112,1733.6418312111166,1607.2638212868112,1733.6418312111166,1607.2638212868112,1725.3695612111164,1603.6191912868112,1724.2653612111167,1593.9094512868112,1733.6065212111166,1599.9831112868112,1741.9610312111165,1595.8793312868113,1750.1216912111165,1592.7729112868112z" id="path3336" style="fill:#edd400;stroke:none"></path>
    <path d="M1760.6346912111164,1518.0452812868111C1756.0885312111166,1552.1415412868112,1739.6431412111165,1568.6903412868112,1714.0709512111166,1590.8529012868112,1695.8464612111165,1606.6474612868112,1684.7530012111165,1601.0670112868113,1675.9623312111166,1595.8984012868113C1583.6513812111166,1541.622831286811,1587.2121612111164,1398.8202002868113,1685.0546612111166,1394.1622182868111,1781.0100312111165,1389.5940812868112,1771.4318512111165,1500.4288812868112,1760.6346912111164,1518.0452812868111z" id="path3260" style="fill:#e9b96e;stroke:none"></path>
    <path d="M1685.8644012111165,1917.0412612868113C1671.8004212111164,1934.7217112868111,1654.5218012111166,1958.027751286811,1657.7364312111165,2003.0324912868111,1660.9510612111164,2048.037271286811,1676.6223512111164,2133.2248712868113,1676.6223512111164,2133.2248712868113,1676.6223512111164,2133.2248712868113,1666.1748212111165,2156.5309112868113,1675.8187012111166,2188.275361286811" id="path3340" style="fill:none;stroke:#3465a4;stroke-width:2.38673782;stroke-linecap:round;stroke-linejoin:miter;stroke-miterlimit:4;stroke-opacity:1;stroke-dasharray:none"></path>
    <path d="M1630.8139512111165,1919.8540712868112C1636.3274812111165,1931.1279312868112,1648.5387312111166,1947.1348912868111,1661.5538012111165,1960.0368812868112" id="path3342" style="fill:none;stroke:#3465a4;stroke-width:2.38673782;stroke-linecap:round;stroke-linejoin:miter;stroke-miterlimit:4;stroke-opacity:1;stroke-dasharray:none"></path>
    <path d="M1635.0468212111164,2181.785721286811C1635.0468212111164,2181.785721286811,1651.5266812111165,2178.376131286811,1676.5306012111164,2185.763651286811,1699.8297112111165,2246.8527712868113,1688.1801512111165,2306.521211286811,1688.1801512111165,2306.521211286811,1688.1801512111165,2306.521211286811,1672.7121512111164,2334.200921286811,1658.9142012111165,2340.333321286811,1633.3420012111164,2351.698781286811,1608.3380912111165,2349.4256912868113,1608.3380912111165,2349.4256912868113,1608.3380912111165,2349.4256912868113,1660.3348812111165,2315.329411286811,1663.1762412111166,2297.428851286811,1665.5349212111164,2282.569191286811,1635.0468212111166,2181.785721286811,1635.0468212111166,2181.785721286811z" id="path3346" style="fill:#a40000;stroke:#cc0000;stroke-width:2.38673782;stroke-linecap:round;stroke-linejoin:round;stroke-miterlimit:4;stroke-opacity:1;stroke-dasharray:none"></path>
    <path d="M1670.2796212111166,2175.5347012868115C1685.5187312111166,2167.067411286811,1703.9414612111163,2163.378791286811,1719.4350512111164,2163.885251286811,1719.4350512111164,2163.885251286811,1712.2596912111164,2261.130981286811,1717.4461012111165,2301.122611286811,1722.7993412111166,2342.400621286811,1761.7712412111164,2380.680561286811,1761.7712412111164,2380.680561286811,1761.7712412111164,2380.680561286811,1710.6268612111164,2368.6048612868112,1699.8297112111165,2341.7539912868115,1693.5787312111165,2350.2780212868115,1694.5732012111166,2368.3206612868116,1694.5732012111166,2368.3206612868116,1694.5732012111166,2368.3206612868116,1682.0712412111166,2330.2465412868114,1686.6174112111166,2309.2204712868115,1691.1635812111165,2288.194491286811,1682.5860112111166,2242.3767112868113,1677.0988712111166,2220.428181286811,1670.2796212111166,2193.151181286811,1670.2796212111166,2175.5347012868115,1670.2796212111166,2175.5347012868115z" id="path3344" style="fill:#a40000;stroke:#cc0000;stroke-width:2.38673782;stroke-linecap:round;stroke-linejoin:round;stroke-miterlimit:4;stroke-opacity:1;stroke-dasharray:none"></path>
    <path d="M1530.4849712111165,1782.8595512868112,1489.8535912111165,1810.7048212868112C1489.8535912111165,1810.7048212868112,1531.9056412111165,1846.7900212868112,1540.4297112111165,1855.8823612868114,1548.2995412111163,1864.2768612868113,1563.7288212111164,1882.8752312868114,1567.7067112111165,1880.3180012868113,1571.6846112111164,1877.7607912868111,1571.4004812111164,1872.3622112868113,1571.4004812111164,1872.3622112868113,1571.4004812111164,1872.3622112868113,1578.7348112111165,1878.4770512868113,1592.4265012111164,1882.3069512868115,1596.4211012111164,1883.4243512868113,1603.6768912111165,1885.1405912868113,1604.2181312111165,1883.0172912868113,1604.9223812111163,1880.2544212868113,1590.6231412111165,1876.3021512868113,1585.7626612111164,1866.1400412868113,1586.2963812111166,1866.0983412868113,1591.3844612111166,1868.6190412868114,1607.0594812111165,1871.6518812868112,1619.0120812111165,1873.8586612868112,1617.5724912111164,1868.3843212868114,1617.5724912111164,1868.3843212868114,1617.5724912111164,1868.3843212868114,1614.0399812111164,1867.8526412868114,1603.3657112111164,1861.5650712868114,1592.9947712111166,1855.4561512868113,1586.6017312111164,1847.3583012868112,1586.6017312111164,1847.3583012868112,1586.6017312111164,1847.3583012868112,1609.4746312111165,1855.3140812868114,1618.5669612111164,1854.7458112868112,1627.6593012111166,1854.1775412868114,1616.2938812111165,1850.6258512868112,1616.2938812111165,1850.6258512868112,1616.2938812111165,1850.6258512868112,1608.0537912111165,1846.9673212868113,1596.1202612111165,1837.4135512868113,1586.6754412111165,1829.8521912868114,1583.5826912111165,1826.7870412868112,1580.4928112111165,1831.7308412868113,1570.5480712111164,1847.6424212868114,1558.0461112111166,1852.1886012868113,1558.0461112111166,1852.1886012868113z" id="path3348" style="fill:#a40000;stroke:#cc0000;stroke-width:2.38673782;stroke-linecap:butt;stroke-linejoin:miter;stroke-miterlimit:4;stroke-opacity:1;stroke-dasharray:none"></path>
    <path d="M1752.5678912111166,1851.5432612868112C1752.5678912111166,1851.5432612868112,1746.1386512111164,1849.9359512868114,1743.3258512111165,1843.1048712868112,1741.4088212111164,1838.449211286811,1738.5926612111166,1829.9100912868112,1736.4947712111166,1832.657341286811,1728.0563712111166,1843.7076112868112,1712.3850812111166,1854.3560612868112,1707.1613012111166,1858.7761712868112,1701.9375412111165,1863.1962812868112,1710.3759312111165,1863.3972012868112,1710.3759312111165,1863.3972012868112,1710.3759312111165,1863.3972012868112,1703.8478612111167,1867.6936712868112,1704.9512512111164,1870.8310212868112,1706.5901612111165,1875.4910612868111,1729.6636912111167,1865.2054312868113,1729.6636912111167,1865.2054312868113,1729.6636912111167,1865.2054312868113,1711.1795912111165,1878.2648412868111,1712.5859912111166,1881.479471286811,1713.6172812111165,1883.8367012868111,1743.3258412111165,1870.4291912868111,1743.3258412111165,1870.4291912868111L1745.7368212111164,1878.4657512868112C1745.7368212111164,1878.4657512868112,1754.5770312111165,1875.6529612868112,1763.8190812111166,1869.2237012868113,1773.0611412111166,1862.7944612868112,1815.2531012111167,1816.986041286811,1815.2531012111167,1816.986041286811L1785.1159812111164,1794.8854812868112C1775.8130012111164,1818.0239612868113,1768.7094812111166,1834.1515212868112,1752.5678912111166,1851.5432612868112z" id="path3350" style="fill:#a40000;stroke:#cc0000;stroke-width:2.38673782;stroke-linecap:butt;stroke-linejoin:miter;stroke-miterlimit:4;stroke-opacity:1;stroke-dasharray:none"></path>
    <path d="M1710.1750212111165,1863.5981112868112C1720.2207312111163,1856.1642812868113,1737.2984212111164,1846.1185812868111,1737.2984212111164,1846.1185812868111" id="path3352" style="fill:none;stroke:#cc0000;stroke-width:2.38673782;stroke-linecap:butt;stroke-linejoin:miter;stroke-miterlimit:4;stroke-opacity:1;stroke-dasharray:none"></path>
    <path d="M1600.5243612111165,1614.1130312868113C1592.7295112111165,1614.1040312868113,1586.1358512111165,1614.8872312868111,1581.6293512111165,1616.9224212868112,1574.5070012111164,1620.1389712868113,1560.7293412111164,1637.4880112868113,1544.8959612111166,1660.1074612868113,1566.2595712111165,1660.0900612868113,1608.2258112111165,1659.2185512868114,1625.1127412111164,1615.9030812868114,1616.3330012111164,1614.8459812868114,1607.8872712111165,1614.121751286811,1600.5243612111165,1614.1130312868113z" id="path3357" style="fill:#204a87;stroke:none"></path>
    <path d="M1752.6416112111165,1636.4016812868113C1754.6131112111166,1656.3486812868111,1760.5605712111164,1690.2556612868111,1803.5711212111164,1699.1902912868113,1796.7837612111166,1665.3612112868113,1800.6562012111165,1651.021161286811,1768.6029312111166,1640.6779212868112,1764.1086712111164,1639.2276712868113,1758.6328912111167,1637.7905212868113,1752.6416112111165,1636.4016812868113z" id="path3362" style="fill:#204a87;stroke:none"></path>
    <path d="M1691.6306212111165,1394.0234702868113C1689.4962712111164,1394.0064202868111,1687.3036212111165,1394.053170286811,1685.0546612111166,1394.1602112868113,1597.5869112111163,1398.3242852868111,1585.4748212111165,1512.8874112868111,1649.8378412111165,1575.9128012868111,1641.1500312111166,1555.6844912868112,1632.1898112111164,1526.7053112868111,1630.4953312111165,1502.1352412868112L1631.0298512111165,1502.1104412868112C1631.7200912111166,1481.9337212868113,1647.2513312111164,1463.485671286811,1669.7149012111165,1463.2389312868113,1672.0761212111165,1463.2130312868112,1674.5191312111165,1463.3779112868112,1677.0242812111164,1463.7734612868112,1702.2304812111165,1467.7533812868112,1708.3626512111164,1490.6988512868113,1708.3626512111164,1490.6988512868113,1708.3626512111164,1490.6988512868113,1716.4935612111165,1471.2438012868113,1749.3474212111164,1474.2278712868113,1756.9128212111164,1474.9150212868112,1763.1082912111165,1479.6736312868113,1767.0987812111164,1486.5469212868113,1768.6273712111165,1449.2900932868113,1755.4335712111165,1394.5327252868112,1691.6306212111162,1394.0235282868111z" id="path3368" style="fill:#a40000;stroke:none"></path>
    <path d="M1690.0146012111165,1394.0234702868113C1688.3920712111164,1394.0344702868113,1686.7413812111165,1394.0799402868113,1685.0546612111166,1394.1602112868113,1678.5634912111163,1394.4692332868112,1672.4916112111164,1395.3864172868111,1666.8309312111164,1396.8452952868113,1678.3855312111164,1409.089106286811,1689.8415612111164,1429.5347652868113,1687.6527312111166,1466.9432812868113,1704.0238412111164,1474.4717612868112,1708.3626512111164,1490.6987912868112,1708.3626512111164,1490.6987912868112,1708.3626512111164,1490.6987912868112,1713.4750112111165,1478.4617112868111,1731.9814112111164,1474.8866512868112,1734.8271612111166,1458.9540512868111,1737.5654012111165,1425.0041562868112,1717.0270112111166,1397.6657332868112,1709.6179412111164,1395.3943282868113,1701.1920312111165,1394.0997832868113,1691.6306212111165,1394.0234702868113,1691.0970312111165,1394.0188702868113,1690.5554412111164,1394.0197702868113,1690.0146012111165,1394.0234702868113z" id="path3376" style="fill:#729fcf;stroke:none"></path>
    <path d="M1717.1619712111165,1750.7522312868111C1721.2819312111164,1756.4349412868112,1729.6639412111165,1765.6693512868112,1746.7120612111166,1762.1176512868112" id="path3381" style="fill:none;stroke:#3465a4;stroke-width:1.98894835;stroke-linecap:round;stroke-linejoin:miter;stroke-miterlimit:4;stroke-opacity:1;stroke-dasharray:none"></path>
    <path d="M1617.4304212111165,1735.6930512868112C1626.0965612111165,1744.501251286811,1643.9970912111164,1755.7246012868113,1674.2575112111165,1745.4957212868112" id="path3385" style="fill:none;stroke:#3465a4;stroke-width:1.98894835;stroke-linecap:round;stroke-linejoin:miter;stroke-miterlimit:4;stroke-opacity:1;stroke-dasharray:none"></path>
    <path d="M1683.9181212111166,1724.611761286811C1672.7872912111166,1736.137971286811,1672.1824512111166,1750.5129312868112,1686.1912012111165,1753.5935912868113,1703.3757312111165,1757.3726112868112,1731.2196112111164,1743.2579012868111,1717.4461012111165,1708.9843212868113,1705.2282812111166,1678.5818212868112,1658.0617912111165,1684.5486712868112,1643.5708912111165,1710.9732712868113,1625.5549512111165,1743.8258412868113,1631.5762412111167,1781.7567112868112,1653.7997612111167,1814.682721286811,1675.6027512111166,1846.985681286811,1708.9220412111165,1851.9044512868113,1708.9220412111165,1851.9044512868113,1708.9220412111165,1851.9044512868113,1662.1659712111166,1849.7755212868112,1640.4453912111167,1830.310171286811,1616.6340512111165,1808.9711312868112,1579.3329912111167,1733.6893712868111,1627.6593012111166,1681.9914512868113,1664.3127712111166,1642.7807512868112,1745.8596512111167,1653.5779112868113,1750.6899512111165,1715.2353012868111,1754.5133312111166,1764.0395912868112,1721.4399512111165,1783.992791286811,1693.2945912111165,1782.5754012868113,1653.7997612111167,1780.586451286811,1650.3901312111166,1731.4310212868113,1683.9181212111166,1724.611761286811z" id="path3393" style="fill:#a40000;stroke:none"></path>
    <path d="M1644.6790212111164,1490.499901286811C1644.6790212111164,1490.499901286811,1642.7884112111165,1496.0915412868112,1647.7991812111165,1500.0965712868112,1645.5260412111165,1501.9198512868113,1644.8670412111164,1503.7109512868112,1646.8917212111164,1504.3603712868112,1649.7045212111166,1505.5658312868113,1648.3110712111165,1502.3382012868112,1660.0063512111165,1500.5813812868112,1675.8780212111164,1498.1971912868112,1680.8728712111165,1515.0050612868113,1683.0657212111164,1518.7802612868113,1685.1356412111165,1522.3438212868111,1686.7604712111165,1522.7274312868112,1686.9814512111166,1520.7194712868113,1685.1414412111164,1505.0710812868112,1678.4024012111165,1497.119411286811,1662.1569012111165,1495.1242012868113,1659.2585012111165,1494.7682312868112,1656.5256812111165,1491.3079112868113,1656.5256812111165,1491.3079112868113,1656.5256812111165,1491.3079112868113,1655.5274812111165,1493.8111812868112,1657.1348012111166,1495.8203312868113,1654.3220012111165,1495.3180412868112,1652.5111912111165,1493.9177712868113,1651.2052512111165,1491.5068012868112,1650.7029612111164,1493.6163912868112,1650.9092412111165,1495.2263012868111,1651.9138112111164,1497.4363512868113,1647.6250212111165,1496.5033512868113,1644.6790212111164,1490.499901286811,1644.6790212111164,1490.499901286811zM1738.2838912111165,1501.2650812868112C1737.6896512111166,1501.2770812868112,1737.0924812111166,1501.3239812868112,1736.4814012111165,1501.4266812868111,1725.5635112111165,1503.263061286811,1720.8557312111166,1512.6518112868112,1720.8557312111166,1520.6076012868111,1724.6915612111166,1521.0338012868112,1722.6761612111166,1515.7005112868112,1726.8225812111166,1510.2277812868113,1731.8611112111166,1503.5775812868112,1742.0572912111165,1504.247111286811,1747.1347112111166,1507.6794312868112,1750.1998812111165,1509.7514812868112,1752.5207612111167,1512.1911312868112,1753.9592912111166,1514.7029112868113,1754.8729712111167,1516.2982412868112,1757.4123912111165,1515.4033312868112,1756.8681312111166,1513.6711412868112,1758.7062812111167,1512.3709812868112,1761.2786512111165,1510.6849112868113,1761.5172912111166,1508.1393812868112,1758.6049112111166,1509.1693712868112,1756.5804412111165,1509.5920212868111,1754.8045912111165,1509.3078912868111,1758.0366312111166,1508.8816912868112,1759.5372312111167,1506.1770712868113,1759.4661912111167,1503.9750212868112,1757.0510412111166,1506.1770712868113,1754.3872712111165,1505.8591912868112,1752.0076412111166,1505.0067912868112,1754.0676212111166,1504.9357912868113,1755.0532112111166,1503.4458212868112,1755.5504512111165,1501.3148012868112,1749.0973012111167,1504.715141286811,1744.0282012111165,1501.1485812868111,1738.2838912111165,1501.2651012868112z" id="path3395" style="fill:#2e3436;stroke:none"></path>
    <path d="M1708.3667912111164,1490.7015012868112C1708.3667912111164,1490.7015012868112,1702.2303912111165,1467.7589412868113,1677.0241912111164,1463.7790112868113,1623.5810312111166,1455.3406312868112,1600.7987312111165,1547.1701312868113,1697.9192612111165,1553.386711286811,1789.4723212111164,1559.246931286811,1782.6840612111164,1477.2539412868111,1749.3532712111164,1474.2265412868112,1716.4994112111165,1471.2424812868112,1708.3667912111164,1490.7015012868112,1708.3667912111164,1490.7015012868112z" id="path3262" style="opacity:0.6;fill:#2e3436;stroke:none"></path>
    <path d="M1675.7182412111165,1574.5831512868112C1675.7182412111165,1574.5831512868112,1677.1417812111165,1591.9600012868111,1688.2753712111166,1593.8709112868112,1697.7348612111166,1595.4944812868112,1705.6439212111165,1591.4923912868112,1706.3576512111165,1580.5101212868112,1706.8377712111164,1573.1225212868112,1675.7182412111165,1574.5831512868112,1675.7182412111165,1574.5831512868112z" id="path3410" style="fill:#ef2929;stroke:none"></path>
    <path d="M1675.4168712111164,1574.281781286811C1675.4168712111164,1574.281781286811,1684.3575612111165,1567.0488712868112,1689.1795012111165,1565.8433912868113,1694.0014312111166,1564.6379012868113,1693.7000612111165,1569.9621212868112,1694.7046312111165,1573.1767512868112,1695.7092012111166,1576.3913812868113,1696.2114912111165,1575.1859012868113,1702.3393712111165,1569.3593912868112,1705.2221612111166,1566.6183712868112,1708.1658812111164,1569.3904912868113,1709.2709012111166,1574.080871286811,1709.9159212111165,1576.8187112868113,1710.6773012111166,1579.7064612868112,1710.6773012111166,1579.7064612868112,1710.6773012111166,1579.7064612868112,1695.3073712111166,1583.9256612868112,1675.4168712111166,1574.281781286811z" id="path3408" style="fill:#cc0000;stroke:none"></path>
    <path d="M1710.7777612111165,1579.7064612868112C1703.9466812111166,1580.5101212868112,1689.7822312111166,1583.3229212868112,1668.2844212111165,1570.5648712868112" id="path3412" style="fill:none;stroke:#a40000;stroke-width:2.38673782;stroke-linecap:round;stroke-linejoin:miter;stroke-miterlimit:4;stroke-opacity:1;stroke-dasharray:none"></path>
    <path d="M1760.6346912111164,1719.4973312868112C1757.3671412111166,1711.6836012868112,1761.3450412111165,1697.6189012868113,1762.1974412111165,1693.4989412868113" id="path3383" style="fill:none;stroke:#3465a4;stroke-width:1.98894835;stroke-linecap:round;stroke-linejoin:miter;stroke-miterlimit:4;stroke-opacity:1;stroke-dasharray:none"></path>
  </g></g></g></svg>
