
<svg xmlns="http://www.w3.org/2000/svg"   width="100%" height="100%"    class="rootSVG id_30a9ad2365eb4cc5a1957f3a4c5e1b5c" viewBox="331.32366943359375 331.32366943359375 259.06451416015625 128.36772338867186"><defs class="svgDefs"></defs><text class="svgTextDescription" x="331.32366943359375" y="457.1007476806641" font-size="12.953225708007812px">john - dont burn unnessecary fuel</text><g class="svgTranslatableG"><g class="svgHeightAxis"><g><g class="svgMeasureAxisY" transform="translate(556.2162902832031 350)"><path class="svgMeasureY" d="m0,0 l  0,76.39999389648438" stroke="darkgrey"  stroke-width="1.243258056640625"></path><text id="svgYAxis_g1" fill="darkgrey" font-weight="bold" x="2.48651611328125px" y="38.19999694824219" font-size="9.324435424804689px">2.42cm</text></g><g class="svgMeasureAxisX" transform="translate(350 432.6162841796875)"><path class="svgMeasureX" d="m0,0 l200,0" stroke="darkgrey"  stroke-width="1.243258056640625"></path><text id="svgXAxis_g1" fill="darkgrey" font-weight="bold" x="72.8125" y="9.324435424804689px" font-size="9.324435424804689px">6.34cm</text></g></g></g><g class="svgVisualisationG"><g id="g1" style="display: none;">
      <path id="faceBack" class="face faceBack" d="M331.3236627379873,331.3236627379873L512.6473254759746,331.3236627379873L512.6473254759746,400.58930190389844L331.3236627379873,400.58930190389844Z" threeD="true" fill="rgba(128, 128, 128, 0.7)">
        </path>
      <path id="faceBottom" class="face faceBottom" d="M350,426.4L550,426.4L512.6473254759746,400.58930190389844L331.3236627379873,400.58930190389844Z" threeD="true" fill="rgba(102, 102, 102, 0.7)">
        </path>
      <path id="faceRight" class="face faceRight" d="M550,350L512.6473254759746,331.3236627379873L512.6473254759746,400.58930190389844L550,426.4Z" threeD="true" fill="rgba(77, 77, 77, 0.7)">
        </path>      
      <path id="faceLeft" class="face faceLeft" d="M350,350L331.3236627379873,331.3236627379873L331.3236627379873,400.58930190389844L350,426.4Z" threeD="true" fill="rgba(77, 77, 77, 0.7)">
        </path>
      <path id="faceTop" class="face faceTop" d="M350,350L550,350L512.6473254759746,331.3236627379873L331.3236627379873,331.3236627379873Z" threeD="true" fill="rgba(102, 102, 102, 0.7)">
        </path>
     <path id="faceFront" class="face faceFront" d="M350,350L550,350L550,426.4L350,426.4Z" threeD="true" fill="rgba(128, 128, 128, 0.7)">
        </path>
	</g><g id="g1">
      
      
            
      
      
     <path id="faceBack" class="face faceBack" d="M331.3236627379873,331.3236627379873L512.6473254759746,331.3236627379873L512.6473254759746,400.58930190389844L331.3236627379873,400.58930190389844Z" threeD="true" fill="rgba(128, 128, 128, 0.7)">
        </path><path id="faceBottom" class="face faceBottom" d="M350,426.4L550,426.4L512.6473254759746,400.58930190389844L331.3236627379873,400.58930190389844Z" threeD="true" fill="rgba(102, 102, 102, 0.7)">
        </path><path id="faceRight" class="face faceRight" d="M550,350L512.6473254759746,331.3236627379873L512.6473254759746,400.58930190389844L550,426.4Z" threeD="true" fill="rgba(77, 77, 77, 0.7)">
        </path><path id="faceFront" class="face faceFront" d="M350,350L550,350L550,426.4L350,426.4Z" threeD="true" fill="rgba(128, 128, 128, 0.7)">
        </path><path id="faceTop" class="face faceTop" d="M350,350L550,350L512.6473254759746,331.3236627379873L331.3236627379873,331.3236627379873Z" threeD="true" fill="rgba(102, 102, 102, 0.7)">
        </path><path id="faceLeft" class="face faceLeft" d="M350,350L331.3236627379873,331.3236627379873L331.3236627379873,400.58930190389844L350,426.4Z" threeD="true" fill="rgba(77, 77, 77, 0.7)">
        </path>
	</g></g><g class="svgReferenceGContainer"><g transform="translate(123.04846674987783 201.6177167914638) scale(0.10814918188859601)">
	<path fill="#000000" d="M2097.775787706869,2031.8207877068685C2097.4597877068686,2031.8277877068685,2089.9657877068685,2032.0347877068687,2083.552787706869,2034.8827877068686C2077.3887877068687,2037.6217877068686,2074.6657877068683,2037.6707877068686,2072.4177877068687,2037.4857877068687C2072.302787706869,2037.4777877068686,2072.1917877068686,2037.5087877068686,2072.0897877068683,2037.5547877068686C2071.6627877068686,2037.2297877068686,2071.1987877068686,2036.9367877068687,2070.6957877068685,2036.6707877068686C2077.7067877068685,2026.5537877068687,2085.8857877068685,2021.5247877068687,2085.9697877068684,2021.4747877068687C2086.3037877068687,2021.2717877068685,2086.409787706869,2020.8387877068685,2086.2077877068687,2020.5047877068687C2086.0067877068686,2020.1707877068686,2085.5717877068687,2020.0637877068687,2085.2377877068684,2020.2657877068687C2084.8877877068685,2020.4767877068687,2076.6027877068686,2025.5567877068686,2069.3757877068683,2036.0857877068686C2069.0947877068684,2035.9817877068685,2068.8227877068684,2035.8647877068686,2068.525787706869,2035.7817877068685C2064.2947877068686,2034.5937877068686,2060.1917877068686,2036.0307877068685,2059.3617877068687,2038.9887877068686C2059.119787706869,2039.8517877068687,2059.190787706869,2040.7497877068686,2059.5057877068684,2041.6177877068685C2057.8677877068685,2040.3477877068685,2055.1647877068685,2039.7297877068686,2052.1857877068687,2040.0607877068685C2051.922787706869,2039.2697877068686,2051.6537877068686,2038.4427877068686,2051.3707877068687,2037.5657877068686C2050.9457877068685,2036.2457877068687,2050.7377877068684,2035.6017877068687,2050.6337877068686,2035.3647877068686C2050.552787706869,2035.1767877068687,2050.4937877068687,2034.9937877068685,2050.440787706869,2034.8317877068687C2050.293787706869,2034.3787877068685,2050.1077877068683,2033.8167877068686,2049.5097877068683,2033.7377877068686C2048.860787706869,2033.6617877068686,2048.364787706869,2034.2967877068686,2047.7607877068685,2035.2267877068687C2046.8577877068685,2036.6127877068686,2046.3147877068686,2039.9217877068686,2046.0307877068685,2042.2567877068686C2045.3327877068687,2042.7397877068686,2044.7407877068686,2043.2757877068686,2044.2777877068686,2043.8477877068685L2038.9837877068685,2037.7257877068687L2038.8207877068687,2037.5877877068685C2038.1177877068685,2037.1547877068685,2037.4977877068686,2037.0607877068685,2036.9817877068685,2037.3007877068685C2036.4607877068686,2037.5427877068687,2036.2637877068687,2038.0377877068686,2036.1947877068685,2038.2957877068686L2031.3257877068686,2046.8787877068685C2029.1087877068685,2045.2077877068687,2027.7037877068685,2044.3577877068685,2027.1467877068685,2044.3577877068685C2026.7507877068686,2044.3577877068685,2025.9257877068685,2044.3577877068685,2010.4607877068686,2063.6117877068687C2010.4347877068685,2063.6577877068685,2007.7737877068687,2068.1677877068687,2000.7197877068686,2067.4977877068686C2000.3287877068685,2067.4747877068685,1999.9887877068686,2067.7467877068684,1999.9507877068686,2068.1357877068685C1999.9147877068685,2068.5247877068687,2000.2007877068686,2068.8687877068687,2000.5897877068687,2068.9057877068685C2001.1257877068686,2068.9557877068687,2001.6397877068687,2068.9787877068684,2002.1317877068686,2068.9787877068684C2008.9387877068687,2068.9787877068684,2011.5677877068686,2064.5227877068683,2011.6247877068686,2064.4067877068683C2016.9367877068687,2057.7967877068686,2025.6267877068685,2047.2217877068686,2027.2537877068687,2045.8297877068685C2027.8117877068687,2046.0867877068686,2029.1437877068686,2047.0167877068686,2030.6177877068685,2048.1267877068685L2029.2657877068687,2050.5087877068686C2025.4557877068687,2053.8637877068686,2022.7147877068687,2058.6357877068685,2022.6467877068685,2062.177787706869L2021.9597877068686,2063.3877877068685C2021.9517877068686,2063.409787706869,2021.1557877068685,2065.6757877068685,2017.2297877068686,2064.815787706869C2016.8487877068685,2064.735787706869,2016.4727877068685,2064.9727877068685,2016.3877877068685,2065.3537877068684C2016.3037877068687,2065.7347877068687,2016.5457877068686,2066.1117877068687,2016.9267877068687,2066.1957877068685C2017.6537877068686,2066.355787706869,2018.3027877068687,2066.4247877068683,2018.8817877068686,2066.4247877068683C2021.4447877068685,2066.4247877068683,2022.5997877068687,2065.074787706869,2023.0297877068685,2064.3727877068686C2023.1547877068685,2064.6587877068687,2023.3007877068685,2064.9307877068686,2023.4887877068686,2065.1767877068687C2026.1487877068687,2068.6557877068685,2034.3307877068687,2066.5417877068685,2040.0257877068686,2062.1927877068683C2042.7357877068687,2060.1217877068684,2044.7007877068686,2057.5987877068683,2045.7417877068685,2055.1467877068685C2046.6177877068685,2059.7037877068688,2047.6797877068686,2066.8387877068685,2048.5207877068688,2073.5877877068688L2048.5957877068686,2073.8287877068688C2049.074787706869,2074.7427877068685,2050.7227877068685,2077.7717877068685,2051.7967877068686,2078.3577877068683C2051.9057877068685,2078.418787706869,2052.0227877068687,2078.4457877068685,2052.1367877068687,2078.4457877068685C2052.3847877068683,2078.4457877068685,2052.6297877068687,2078.3127877068687,2052.7557877068684,2078.0767877068683C2052.9437877068685,2077.7347877068687,2052.815787706869,2077.3057877068686,2052.4747877068685,2077.1197877068685C2052.016787706869,2076.8697877068685,2050.793787706869,2074.958787706869,2049.9057877068685,2073.2857877068686C2049.2427877068685,2067.9737877068683,2047.8287877068685,2057.3587877068685,2046.5337877068687,2052.221787706869C2046.5887877068685,2051.7057877068683,2046.5887877068685,2051.2057877068683,2046.5387877068686,2050.7227877068685C2047.4027877068686,2051.0527877068685,2048.3927877068686,2051.2687877068684,2049.4607877068684,2051.3537877068684C2049.6227877068686,2051.4287877068687,2049.8007877068685,2051.4357877068687,2049.967787706869,2051.3817877068686C2050.8237877068686,2051.4177877068687,2051.7207877068686,2051.3687877068687,2052.6427877068686,2051.2317877068685C2054.3987877068685,2054.9207877068684,2057.4777877068686,2061.4737877068683,2058.0867877068686,2063.3037877068687C2058.1677877068687,2063.5457877068684,2058.235787706869,2063.7717877068685,2058.3017877068687,2063.9847877068687C2058.989787706869,2066.2597877068683,2059.7207877068686,2067.0417877068685,2063.9877877068684,2067.0417877068685C2064.7747877068687,2067.0417877068685,2065.6847877068685,2067.0157877068687,2066.7387877068686,2066.9647877068683C2067.128787706869,2066.9477877068684,2067.4287877068687,2066.6177877068685,2067.4127877068686,2066.2277877068686C2067.3927877068686,2065.8377877068688,2067.0357877068686,2065.4967877068684,2066.6737877068686,2065.5557877068686C2060.3477877068685,2065.8477877068685,2060.195787706869,2065.3687877068687,2059.654787706869,2063.5757877068686C2059.5877877068688,2063.3527877068686,2059.5127877068685,2063.1137877068686,2059.4297877068684,2062.8577877068683C2058.806787706869,2060.9937877068687,2055.8637877068686,2054.7157877068685,2054.074787706869,2050.9537877068688C2054.3387877068685,2050.8877877068685,2054.5957877068686,2050.8127877068687,2054.8527877068686,2050.7337877068685C2055.311787706869,2051.507787706869,2055.7157877068685,2051.9597877068686,2056.0897877068687,2052.1287877068685C2056.2407877068686,2052.1947877068687,2056.3967877068685,2052.230787706869,2056.5497877068683,2052.230787706869C2056.6917877068686,2052.230787706869,2056.8307877068687,2052.2007877068686,2056.958787706869,2052.1437877068684C2057.498787706869,2051.9077877068685,2057.7997877068683,2051.7917877068685,2057.9607877068684,2051.7347877068687C2058.1737877068686,2051.7677877068686,2058.3937877068684,2051.7097877068686,2058.5597877068685,2051.5517877068687L2059.0137877068687,2051.0997877068685L2058.6847877068685,2050.6027877068686C2058.315787706869,2050.0417877068685,2057.7197877068684,2050.2657877068687,2056.5737877068686,2050.7707877068688C2056.4537877068688,2050.668787706869,2056.315787706869,2050.4907877068686,2056.1627877068686,2050.248787706869C2057.3777877068687,2049.7317877068685,2058.4247877068683,2049.0727877068684,2059.239787706869,2048.324787706869C2062.0647877068686,2047.9067877068685,2064.3577877068683,2047.6777877068685,2064.8937877068684,2047.8567877068685C2065.0797877068685,2047.9197877068686,2065.2127877068688,2047.9697877068686,2065.3087877068683,2048.007787706869C2065.2677877068686,2048.1967877068682,2065.244787706869,2048.4517877068683,2065.306787706869,2048.7637877068682C2065.4127877068686,2049.2947877068686,2069.864787706869,2062.2427877068685,2072.7127877068688,2063.8727877068686C2073.7197877068684,2064.4457877068685,2074.503787706869,2064.6347877068683,2075.190787706869,2064.632787706869C2075.8077877068686,2064.632787706869,2076.3487877068687,2064.4827877068683,2076.9037877068686,2064.3277877068685C2077.4517877068683,2064.1747877068683,2078.0197877068686,2064.0157877068687,2078.7647877068684,2063.9647877068683C2079.1567877068687,2063.9367877068685,2079.4477877068684,2063.5987877068683,2079.4197877068686,2063.2097877068686C2079.3907877068687,2062.8177877068683,2079.0047877068687,2062.5227877068683,2078.6647877068685,2062.5537877068687C2077.7737877068685,2062.6177877068685,2077.110787706869,2062.8047877068684,2076.5247877068687,2062.967787706869C2075.4597877068686,2063.2617877068687,2074.8147877068686,2063.4457877068685,2073.4147877068685,2062.6457877068688C2071.3617877068687,2061.4737877068683,2066.9577877068687,2049.7697877068686,2066.690787706869,2048.4857877068685C2066.6667877068685,2048.3657877068686,2066.6847877068685,2048.3007877068685,2066.721787706869,2048.1807877068686C2067.0457877068684,2047.0867877068686,2066.0987877068687,2046.7707877068685,2065.3387877068685,2046.5177877068686C2064.6397877068684,2046.2847877068687,2062.6947877068687,2046.4367877068685,2060.547787706869,2046.7147877068685C2061.038787706869,2045.8507877068687,2061.2437877068687,2044.9377877068687,2061.0787877068688,2044.0387877068686C2061.074787706869,2044.0167877068686,2061.065787706869,2043.9967877068686,2061.061787706869,2043.9757877068685C2062.1667877068685,2045.0797877068685,2063.7067877068685,2045.9877877068686,2065.5177877068686,2046.4967877068686C2065.820787706869,2046.5817877068685,2068.0677877068683,2046.8747877068686,2071.119787706869,2046.5137877068685C2073.3747877068686,2046.2467877068686,2073.8087877068683,2044.1097877068685,2076.7527877068687,2044.2867877068686L2075.2997877068683,2043.5387877068686L2077.2437877068687,2043.2437877068685L2075.5947877068684,2042.3027877068685C2074.5507877068685,2041.2597877068686,2075.1097877068687,2041.5397877068685,2074.538787706869,2040.6687877068687C2074.3237877068686,2040.0757877068686,2073.9917877068683,2039.4977877068686,2073.5577877068686,2038.9537877068685C2073.6527877068684,2038.9557877068685,2073.7367877068687,2038.9667877068687,2073.8347877068686,2038.9667877068687C2076.038787706869,2038.9667877068687,2078.9427877068683,2038.4807877068686,2084.1217877068684,2036.1777877068685C2090.2727877068687,2033.4447877068685,2097.7287877068684,2033.2377877068686,2097.8057877068686,2033.2357877068685C2098.195787706869,2033.2257877068685,2098.503787706869,2032.9027877068686,2098.4937877068687,2032.5127877068685C2098.4877877068684,2032.1217877068686,2098.1407877068687,2031.8587877068685,2097.775787706869,2031.8207877068685zM2048.9447877068687,2035.9977877068686C2049.047787706869,2035.8417877068687,2049.1357877068685,2035.7107877068686,2049.2117877068686,2035.6027877068686C2049.2507877068683,2035.7097877068686,2049.293787706869,2035.8207877068685,2049.3417877068687,2035.9307877068686C2049.4207877068684,2036.1137877068686,2049.7017877068683,2036.9867877068687,2050.0277877068684,2037.9977877068686C2050.288787706869,2038.8077877068686,2050.534787706869,2039.5607877068685,2050.7747877068687,2040.2907877068685C2049.614787706869,2040.5327877068687,2048.538787706869,2040.8977877068687,2047.5807877068687,2041.3597877068687C2047.8807877068687,2039.2427877068685,2048.3397877068683,2036.9267877068687,2048.9447877068687,2035.9977877068686zM2037.4747877068685,2038.9057877068685L2037.5667877068686,2038.5857877068686C2037.5767877068686,2038.5857877068686,2037.6997877068686,2038.5747877068686,2037.9907877068686,2038.7407877068686L2043.4927877068685,2045.1007877068687C2043.3167877068686,2045.4967877068686,2043.2087877068686,2045.9017877068686,2043.1637877068686,2046.3087877068685C2040.4537877068685,2045.2637877068687,2036.5477877068686,2045.8727877068686,2032.7847877068687,2048.0057877068684C2032.6727877068686,2047.9177877068687,2032.5627877068687,2047.8317877068687,2032.4537877068685,2047.7467877068686L2037.4747877068685,2038.9057877068685z"></path>
</g></g></g></svg>
