
<svg xmlns="http://www.w3.org/2000/svg"   width="100%" height="100%"    class="rootSVG id_bf8a4e025b26443e89db0ca1170f9c3a" viewBox="311.73455810546875 327.7170104980469 272.697509765625 132.30505737304685"><defs class="svgDefs"></defs><text class="svgTextDescription" x="311.73455810546875" y="457.2950927734375" font-size="13.634875488281251px">Live infogram sharing blue cube</text><g class="svgTranslatableG"><g class="svgHeightAxis"><g><g class="svgMeasureAxisY" transform="translate(556.0258438110352 350)"><path class="svgMeasureY" d="m0,0 l  0,76.39999389648438" stroke="darkgrey"  stroke-width="1.2051687622070313"></path><text id="svgYAxis_g1" fill="darkgrey" font-weight="bold" x="2.4103375244140626px" y="38.19999694824219" font-size="9.038765716552735px">1.33m</text></g><g class="svgMeasureAxisX" transform="translate(350 432.4258377075195)"><path class="svgMeasureX" d="m0,0 l200,0" stroke="darkgrey"  stroke-width="1.2051687622070313"></path><text id="svgXAxis_g1" fill="darkgrey" font-weight="bold" x="76.984375" y="9.038765716552735px" font-size="9.038765716552735px">3.49m</text></g></g></g><g class="svgVisualisationG"><g id="g1" style="display: none;">
      <path id="faceBack" class="face faceBack" d="M331.3236627379873,331.3236627379873L512.6473254759746,331.3236627379873L512.6473254759746,400.58930190389844L331.3236627379873,400.58930190389844Z" threeD="true" fill="rgba(50, 12, 179, 0.7)">
        </path>
      <path id="faceBottom" class="face faceBottom" d="M350,426.4L550,426.4L512.6473254759746,400.58930190389844L331.3236627379873,400.58930190389844Z" threeD="true" fill="rgba(37, 9, 131, 0.7)">
        </path>
      <path id="faceRight" class="face faceRight" d="M550,350L512.6473254759746,331.3236627379873L512.6473254759746,400.58930190389844L550,426.4Z" threeD="true" fill="rgba(23, 6, 83, 0.7)">
        </path>      
      <path id="faceLeft" class="face faceLeft" d="M350,350L331.3236627379873,331.3236627379873L331.3236627379873,400.58930190389844L350,426.4Z" threeD="true" fill="rgba(23, 6, 83, 0.7)">
        </path>
      <path id="faceTop" class="face faceTop" d="M350,350L550,350L512.6473254759746,331.3236627379873L331.3236627379873,331.3236627379873Z" threeD="true" fill="rgba(37, 9, 131, 0.7)">
        </path>
     <path id="faceFront" class="face faceFront" d="M350,350L550,350L550,426.4L350,426.4Z" threeD="true" fill="rgba(50, 12, 179, 0.7)">
        </path>
	</g><g id="g1">
      
      
            
      
      
     <path id="faceBack" class="face faceBack" d="M331.3236627379873,331.3236627379873L512.6473254759746,331.3236627379873L512.6473254759746,400.58930190389844L331.3236627379873,400.58930190389844Z" threeD="true" fill="rgba(50, 12, 179, 0.7)">
        </path><path id="faceBottom" class="face faceBottom" d="M350,426.4L550,426.4L512.6473254759746,400.58930190389844L331.3236627379873,400.58930190389844Z" threeD="true" fill="rgba(37, 9, 131, 0.7)">
        </path><path id="faceRight" class="face faceRight" d="M550,350L512.6473254759746,331.3236627379873L512.6473254759746,400.58930190389844L550,426.4Z" threeD="true" fill="rgba(23, 6, 83, 0.7)">
        </path><path id="faceFront" class="face faceFront" d="M350,350L550,350L550,426.4L350,426.4Z" threeD="true" fill="rgba(50, 12, 179, 0.7)">
        </path><path id="faceTop" class="face faceTop" d="M350,350L550,350L512.6473254759746,331.3236627379873L331.3236627379873,331.3236627379873Z" threeD="true" fill="rgba(37, 9, 131, 0.7)">
        </path><path id="faceLeft" class="face faceLeft" d="M350,350L331.3236627379873,331.3236627379873L331.3236627379873,400.58930190389844L350,426.4Z" threeD="true" fill="rgba(23, 6, 83, 0.7)">
        </path>
	</g></g><g class="svgReferenceGContainer"><g transform="translate(79.78363777485042 109.03966807446206) scale(0.09957053162856967)" id="layer1">
    <path d="M2353.817278852709,2782.6829388527094C2366.3192488527093,2779.2733088527093,2378.252938852709,2779.2733088527093,2383.367368852709,2784.9560188527093,2388.4818188527092,2790.6387288527094,2390.754898852709,2811.096508852709,2406.0982088527094,2810.5282188527094,2421.4415288527093,2809.9599388527095,2431.6704088527094,2796.889708852709,2448.718538852709,2801.435868852709,2465.7666688527092,2805.982038852709,2490.770578852709,2818.484018852709,2532.822638852709,2816.2109188527093,2574.874678852709,2813.9378388527093,2637.384488852709,2779.2733088527093,2648.7499088527093,2784.9560188527093,2660.1153288527094,2790.6387288527094,2661.251858852709,2798.594528852709,2666.934568852709,2795.184898852709,2672.617278852709,2791.775278852709,2678.2999888527092,2775.2954088527094,2678.2999888527092,2775.2954088527094,2678.2999888527092,2775.2954088527094,2628.2921588527092,2630.3863188527093,2629.996958852709,2592.880438852709,2631.701778852709,2555.374558852709,2614.6536488527095,2465.5877488527094,2614.6536488527095,2465.5877488527094,2614.6536488527095,2465.5877488527094,2460.6522288527094,2472.9752788527094,2460.6522288527094,2475.2483588527093,2460.6522288527094,2477.5214388527093,2408.3712988527095,2703.1249988527093,2353.8172788527095,2782.6829388527094z" id="path3389" style="fill:#cc0000;stroke:none"></path>
    <path d="M2468.6080188527094,2423.5357088527094C2459.5156788527092,2471.838728852709,2415.3232588527094,2679.927478852709,2339.6105088527092,2778.7050388527095,2329.5137688527093,2791.8776188527095,2348.134568852709,2818.4840188527096,2348.134568852709,2818.4840188527096,2348.134568852709,2818.4840188527096,2464.630118852709,2575.8323088527095,2468.6080188527094,2423.5357088527094z" id="path3387" style="fill:#a40000;stroke:none"></path>
    <path d="M2673.7538288527094,2845.761008852709C2676.595178852709,2799.162808852709,2671.4807388527092,2765.6348088527093,2652.7277988527094,2722.446218852709,2633.974858852709,2679.2576288527093,2622.609448852709,2590.039088852709,2623.177708852709,2554.238018852709,2623.7459788527094,2518.436948852709,2631.1335088527094,2502.525368852709,2631.1335088527094,2502.525368852709,2631.1335088527094,2502.525368852709,2635.1113988527095,2547.9870388527092,2641.930648852709,2588.902548852709,2648.7499088527093,2629.8180588527093,2699.894288852709,2761.6569088527094,2698.7577388527093,2791.775278852709,2697.621208852709,2821.8936288527093,2673.7538288527094,2845.761008852709,2673.7538288527094,2845.761008852709z" id="path3391" style="fill:#a40000;stroke:none"></path>
    <path d="M2469.3555688527094,2347.9431488527093C2469.3555688527094,2347.9431488527093,2475.5839188527093,2383.9067688527093,2508.5338188527094,2359.797078852709,2541.4837388527094,2335.687378852709,2543.4928788527095,2396.7652788527093,2543.4928788527095,2396.7652788527093,2543.4928788527095,2396.7652788527093,2537.419158852709,2406.3217488527093,2523.724258852709,2409.5405488527094,2515.4725388527095,2411.4800188527092,2506.5246888527095,2409.4228588527094,2506.5246888527095,2409.4228588527094,2506.5246888527095,2409.4228588527094,2515.5658188527095,2406.4091588527094,2517.775868852709,2398.171678852709,2508.5338188527094,2406.4091588527094,2498.4881188527092,2402.390868852709,2498.4881188527092,2402.390868852709,2498.4881188527092,2402.390868852709,2512.150278852709,2396.7652788527093,2513.3557688527094,2386.719568852709,2508.332918852709,2390.7378488527092,2494.670748852709,2401.788128852709,2474.3784288527095,2384.107688852709,2488.442418852709,2386.317738852709,2495.0725788527093,2379.084828852709,2495.0725788527093,2379.084828852709,2495.0725788527093,2379.084828852709,2466.944598852709,2377.477518852709,2469.3555688527094,2347.9431488527093z" id="path3334" style="fill:#edd400;stroke:none"></path>
    <path d="M2540.780208852709,2388.8762688527095C2540.780208852709,2388.8762688527095,2536.2244688527094,2410.901358852709,2529.592368852709,2426.3928188527093,2502.7814788527094,2422.2351988527093,2472.0572188527094,2417.613138852709,2458.9474088527095,2423.533698852709,2441.331008852709,2431.489488852709,2383.0089788527093,2525.890288852709,2353.533148852709,2572.704818852709,2348.702838852709,2580.376478852709,2397.0040988527094,2633.230998852709,2397.0040988527094,2633.230998852709L2415.762368852709,2621.297308852709,2396.4322788527093,2571.8595188527092C2396.4322788527093,2571.8595188527092,2429.969148852709,2539.4609688527094,2439.629758852709,2526.9590088527093,2449.2903588527092,2514.4570488527092,2461.7940988527093,2503.0916388527094,2461.7940988527093,2503.0916388527094,2461.7940988527093,2503.0916388527094,2481.542578852709,2562.0796488527094,2477.133858852709,2591.1771788527094,2468.609798852709,2647.436008852709,2450.4250388527093,2641.187178852709,2440.760968852709,2728.700518852709,2430.5853588527093,2820.846128852709,2503.8372688527093,2916.799998852709,2514.066138852709,2957.7154488527094,2524.2950188527093,2998.630998852709,2524.8686088527093,3021.921178852709,2524.8686088527093,3021.921178852709L2589.6461688527093,3015.6685088527092C2589.6461688527093,3015.6685088527092,2585.677158852709,2974.1846988527095,2593.064678852709,2948.044198852709,2600.4521988527094,2921.9037988527093,2644.1984188527094,2780.4114088527094,2631.1281788527094,2718.469868852709,2618.057948852709,2656.528328852709,2602.114508852709,2637.0848188527093,2610.1074788527094,2604.242088852709,2617.220388852709,2575.015488852709,2623.980398852709,2568.6771988527094,2623.980398852709,2568.6771988527094,2623.980398852709,2568.6771988527094,2648.183418852709,2556.505548852709,2637.9545288527092,2525.8189188527094L2674.8921488527094,2575.8285388527092,2658.9734588527094,2616.461678852709C2658.9734588527094,2616.461678852709,2677.4529188527094,2619.594278852709,2678.589448852709,2619.594278852709,2679.7259988527094,2619.594278852709,2713.8187088527093,2588.046358852709,2713.8187088527093,2584.352598852709,2713.8187088527093,2580.6588388527093,2686.868598852709,2531.561228852709,2682.840828852709,2514.739408852709,2673.180228852709,2474.392178852709,2680.668888852709,2458.501968852709,2645.9209888527093,2447.289198852709,2630.595128852709,2442.343718852709,2604.0226088527093,2437.555648852709,2583.5425888527093,2434.2864488527093,2583.018078852709,2418.872408852709,2584.537068852709,2399.666318852709,2584.537068852709,2399.666318852709z" id="path3338" style="fill:#729fcf;stroke:none"></path>
    <path d="M2627.4397488527093,2399.3841888527095C2627.4397488527093,2399.3841888527095,2604.1406388527093,2399.3841888527095,2599.026198852709,2379.778838852709,2593.911758852709,2360.1734888527094,2576.0112288527093,2403.930358852709,2576.0112288527093,2403.930358852709,2576.0112288527093,2403.930358852709,2575.6757788527093,2416.5589888527093,2589.3655988527094,2421.5467588527094,2594.940058852709,2423.577768852709,2606.1295788527095,2421.5467588527094,2606.1295788527095,2421.5467588527094,2606.1295788527095,2421.5467588527094,2593.0593588527095,2419.2736688527093,2593.3434888527095,2407.9082588527094,2603.856498852709,2413.8750988527095,2610.9598888527094,2413.8750988527095,2610.9598888527094,2413.8750988527095,2610.9598888527094,2413.8750988527095,2602.6876188527094,2410.2304688527092,2601.583418852709,2400.5207288527095,2610.924578852709,2406.5943888527095,2619.2790888527093,2402.490608852709,2627.4397488527093,2399.3841888527095z" id="path3336" style="fill:#edd400;stroke:none"></path>
    <path d="M2637.952748852709,2324.656558852709C2633.4065888527093,2358.7528188527094,2616.9611988527095,2375.3016188527095,2591.389008852709,2397.464178852709,2573.164518852709,2413.258738852709,2562.071058852709,2407.678288852709,2553.280388852709,2402.5096788527094C2460.969438852709,2348.234108852709,2464.5302188527094,2205.431477852709,2562.372718852709,2200.7734958527094,2658.3280888527092,2196.205358852709,2648.7499088527093,2307.0401588527093,2637.952748852709,2324.656558852709z" id="path3260" style="fill:#e9b96e;stroke:none"></path>
    <path d="M2563.1824588527093,2723.6525388527093C2549.1184788527094,2741.332988852709,2531.8398588527093,2764.639028852709,2535.0544888527093,2809.6437688527094,2538.269118852709,2854.648548852709,2553.9404088527094,2939.836148852709,2553.9404088527094,2939.836148852709,2553.9404088527094,2939.836148852709,2543.4928788527095,2963.1421888527093,2553.136758852709,2994.886638852709" id="path3340" style="fill:none;stroke:#3465a4;stroke-width:2.38673782;stroke-linecap:round;stroke-linejoin:miter;stroke-miterlimit:4;stroke-opacity:1;stroke-dasharray:none"></path>
    <path d="M2508.132008852709,2726.465348852709C2513.6455388527093,2737.7392088527095,2525.856788852709,2753.746168852709,2538.871858852709,2766.6481588527095" id="path3342" style="fill:none;stroke:#3465a4;stroke-width:2.38673782;stroke-linecap:round;stroke-linejoin:miter;stroke-miterlimit:4;stroke-opacity:1;stroke-dasharray:none"></path>
    <path d="M2512.3648788527094,2988.396998852709C2512.3648788527094,2988.396998852709,2528.8447388527093,2984.9874088527095,2553.8486588527094,2992.374928852709,2577.1477688527093,3053.4640488527093,2565.4982088527095,3113.1324888527092,2565.4982088527095,3113.1324888527092,2565.4982088527095,3113.1324888527092,2550.030208852709,3140.812198852709,2536.2322588527095,3146.944598852709,2510.6600588527094,3158.310058852709,2485.6561488527095,3156.036968852709,2485.6561488527095,3156.036968852709,2485.6561488527095,3156.036968852709,2537.652938852709,3121.940688852709,2540.494298852709,3104.040128852709,2542.8529788527094,3089.180468852709,2512.3648788527094,2988.396998852709,2512.3648788527094,2988.396998852709z" id="path3346" style="fill:#a40000;stroke:#cc0000;stroke-width:2.38673782;stroke-linecap:round;stroke-linejoin:round;stroke-miterlimit:4;stroke-opacity:1;stroke-dasharray:none"></path>
    <path d="M2547.597678852709,2982.145978852709C2562.836788852709,2973.6786888527095,2581.2595188527093,2969.9900688527096,2596.7531088527094,2970.496528852709,2596.7531088527094,2970.496528852709,2589.577748852709,3067.7422588527093,2594.7641588527094,3107.7338888527092,2600.1173988527094,3149.0118988527092,2639.0892988527094,3187.2918388527096,2639.0892988527094,3187.2918388527096,2639.0892988527094,3187.2918388527096,2587.944918852709,3175.2161388527093,2577.1477688527093,3148.3652688527095,2570.896788852709,3156.8892988527095,2571.891258852709,3174.931938852709,2571.891258852709,3174.931938852709,2571.891258852709,3174.931938852709,2559.389298852709,3136.8578188527094,2563.935468852709,3115.8317488527096,2568.4816388527092,3094.8057688527097,2559.9040688527093,3048.9879888527093,2554.416928852709,3027.0394588527097,2547.597678852709,2999.7624588527096,2547.597678852709,2982.1459788527095,2547.597678852709,2982.1459788527095z" id="path3344" style="fill:#a40000;stroke:#cc0000;stroke-width:2.38673782;stroke-linecap:round;stroke-linejoin:round;stroke-miterlimit:4;stroke-opacity:1;stroke-dasharray:none"></path>
    <path d="M2407.8030288527093,2589.470828852709,2367.171648852709,2617.3160988527093C2367.171648852709,2617.3160988527093,2409.2236988527093,2653.4012988527093,2417.747768852709,2662.4936388527094,2425.6175988527093,2670.8881388527093,2441.046878852709,2689.4865088527094,2445.0247688527093,2686.929278852709,2449.002668852709,2684.372068852709,2448.718538852709,2678.973488852709,2448.718538852709,2678.973488852709,2448.718538852709,2678.973488852709,2456.0528688527093,2685.0883288527093,2469.7445588527094,2688.9182288527095,2473.7391588527094,2690.035628852709,2480.994948852709,2691.7518688527093,2481.536188852709,2689.6285688527096,2482.2404388527093,2686.865698852709,2467.941198852709,2682.9134288527093,2463.080718852709,2672.751318852709,2463.614438852709,2672.7096188527094,2468.702518852709,2675.2303188527094,2484.377538852709,2678.2631588527092,2496.3301388527093,2680.469938852709,2494.8905488527093,2674.9955988527095,2494.8905488527093,2674.9955988527095,2494.8905488527093,2674.9955988527095,2491.3580388527093,2674.4639188527094,2480.6837688527094,2668.1763488527095,2470.312828852709,2662.0674288527093,2463.919788852709,2653.969578852709,2463.919788852709,2653.969578852709,2463.919788852709,2653.969578852709,2486.792688852709,2661.9253588527095,2495.8850188527094,2661.3570888527092,2504.977358852709,2660.7888188527095,2493.6119388527095,2657.2371288527092,2493.6119388527095,2657.2371288527092,2493.6119388527095,2657.2371288527092,2485.3718488527093,2653.5785988527095,2473.438318852709,2644.024828852709,2463.9934988527093,2636.4634688527094,2460.900748852709,2633.3983188527095,2457.810868852709,2638.3421188527095,2447.866128852709,2654.2536988527095,2435.364168852709,2658.7998788527093,2435.364168852709,2658.7998788527093z" id="path3348" style="fill:#a40000;stroke:#cc0000;stroke-width:2.38673782;stroke-linecap:butt;stroke-linejoin:miter;stroke-miterlimit:4;stroke-opacity:1;stroke-dasharray:none"></path>
    <path d="M2629.885948852709,2658.1545388527093C2629.885948852709,2658.1545388527093,2623.456708852709,2656.5472288527094,2620.6439088527095,2649.716148852709,2618.7268788527094,2645.060488852709,2615.910718852709,2636.521368852709,2613.812828852709,2639.268618852709,2605.374428852709,2650.3188888527093,2589.7031388527093,2660.967338852709,2584.479358852709,2665.387448852709,2579.255598852709,2669.807558852709,2587.6939888527095,2670.0084788527092,2587.6939888527095,2670.0084788527092,2587.6939888527095,2670.0084788527092,2581.165918852709,2674.3049488527095,2582.2693088527094,2677.4422988527094,2583.908218852709,2682.102338852709,2606.981748852709,2671.8167088527093,2606.981748852709,2671.8167088527093,2606.981748852709,2671.8167088527093,2588.497648852709,2684.876118852709,2589.9040488527094,2688.090748852709,2590.9353388527093,2690.447978852709,2620.6438988527093,2677.040468852709,2620.6438988527093,2677.040468852709L2623.0548788527094,2685.077028852709C2623.0548788527094,2685.077028852709,2631.8950888527093,2682.2642388527092,2641.1371388527095,2675.8349788527094,2650.379198852709,2669.4057388527094,2692.5711588527092,2623.597318852709,2692.5711588527092,2623.597318852709L2662.4340388527094,2601.4967588527093C2653.1310588527094,2624.6352388527093,2646.0275388527093,2640.7627988527092,2629.885948852709,2658.1545388527093z" id="path3350" style="fill:#a40000;stroke:#cc0000;stroke-width:2.38673782;stroke-linecap:butt;stroke-linejoin:miter;stroke-miterlimit:4;stroke-opacity:1;stroke-dasharray:none"></path>
    <path d="M2587.493078852709,2670.2093888527093C2597.5387888527093,2662.7755588527093,2614.6164788527094,2652.729858852709,2614.6164788527094,2652.729858852709" id="path3352" style="fill:none;stroke:#cc0000;stroke-width:2.38673782;stroke-linecap:butt;stroke-linejoin:miter;stroke-miterlimit:4;stroke-opacity:1;stroke-dasharray:none"></path>
    <path d="M2477.842418852709,2420.7243088527093C2470.0475688527094,2420.7153088527093,2463.4539088527094,2421.498508852709,2458.9474088527095,2423.533698852709,2451.8250588527094,2426.7502488527093,2438.047398852709,2444.0992888527094,2422.214018852709,2466.718738852709,2443.5776288527095,2466.7013388527093,2485.5438688527092,2465.8298288527094,2502.4307988527094,2422.5143588527094,2493.6510588527094,2421.4572588527094,2485.2053288527095,2420.733028852709,2477.842418852709,2420.7243088527093z" id="path3357" style="fill:#204a87;stroke:none"></path>
    <path d="M2629.959668852709,2443.0129588527093C2631.931168852709,2462.9599588527094,2637.8786288527094,2496.866938852709,2680.8891788527094,2505.8015688527094,2674.101818852709,2471.9724888527094,2677.974258852709,2457.632438852709,2645.9209888527093,2447.2891988527094,2641.4267288527094,2445.838948852709,2635.950948852709,2444.4017988527094,2629.9596688527095,2443.0129588527093z" id="path3362" style="fill:#204a87;stroke:none"></path>
    <path d="M2568.9486788527092,2200.634747852709C2566.8143288527094,2200.617697852709,2564.621678852709,2200.664447852709,2562.372718852709,2200.7714888527094,2474.9049688527093,2204.935562852709,2462.7928788527092,2319.498688852709,2527.1558988527095,2382.5240788527094,2518.468088852709,2362.2957688527094,2509.507868852709,2333.316588852709,2507.813388852709,2308.7465188527094L2508.347908852709,2308.7217188527093C2509.038148852709,2288.5449988527093,2524.5693888527094,2270.0969488527094,2547.0329588527093,2269.8502088527093,2549.394178852709,2269.8243088527092,2551.837188852709,2269.989188852709,2554.342338852709,2270.3847388527092,2579.548538852709,2274.3646588527095,2585.6807088527094,2297.310128852709,2585.6807088527094,2297.310128852709,2585.6807088527094,2297.310128852709,2593.811618852709,2277.855078852709,2626.6654788527094,2280.839148852709,2634.2308788527093,2281.5262988527093,2640.426348852709,2286.284908852709,2644.416838852709,2293.158198852709,2645.945428852709,2255.901370852709,2632.751628852709,2201.1440028527095,2568.9486788527092,2200.634805852709z" id="path3368" style="fill:#a40000;stroke:none"></path>
    <path d="M2567.3326588527093,2200.634747852709C2565.710128852709,2200.645747852709,2564.0594388527093,2200.691217852709,2562.372718852709,2200.7714888527094,2555.8815488527093,2201.0805108527093,2549.8096688527094,2201.997694852709,2544.1489888527094,2203.456572852709,2555.7035888527093,2215.7003838527094,2567.159618852709,2236.1460428527093,2564.970788852709,2273.5545588527093,2581.341898852709,2281.0830388527093,2585.6807088527094,2297.3100688527093,2585.6807088527094,2297.3100688527093,2585.6807088527094,2297.3100688527093,2590.7930688527094,2285.0729888527094,2609.299468852709,2281.4979288527093,2612.145218852709,2265.565328852709,2614.8834588527093,2231.6154338527094,2594.345068852709,2204.2770108527093,2586.9359988527094,2202.0056058527093,2578.5100888527095,2200.711060852709,2568.9486788527092,2200.634747852709,2568.4150888527092,2200.6301478527093,2567.8734988527094,2200.6310478527093,2567.3326588527093,2200.634747852709z" id="path3376" style="fill:#729fcf;stroke:none"></path>
    <path d="M2594.4800288527094,2557.3635088527094C2598.5999888527094,2563.046218852709,2606.9819988527092,2572.280628852709,2624.030118852709,2568.728928852709" id="path3381" style="fill:none;stroke:#3465a4;stroke-width:1.98894835;stroke-linecap:round;stroke-linejoin:miter;stroke-miterlimit:4;stroke-opacity:1;stroke-dasharray:none"></path>
    <path d="M2494.748478852709,2542.304328852709C2503.4146188527093,2551.112528852709,2521.315148852709,2562.3358788527094,2551.5755688527092,2552.1069988527092" id="path3385" style="fill:none;stroke:#3465a4;stroke-width:1.98894835;stroke-linecap:round;stroke-linejoin:miter;stroke-miterlimit:4;stroke-opacity:1;stroke-dasharray:none"></path>
    <path d="M2561.236178852709,2531.223038852709C2550.105348852709,2542.749248852709,2549.500508852709,2557.124208852709,2563.509258852709,2560.2048688527093,2580.693788852709,2563.9838888527092,2608.5376688527094,2549.8691788527094,2594.7641588527094,2515.5955988527094,2582.546338852709,2485.193098852709,2535.379848852709,2491.159948852709,2520.8889488527093,2517.5845488527093,2502.873008852709,2550.4371188527093,2508.894298852709,2588.3679888527095,2531.117818852709,2621.293998852709,2552.9208088527093,2653.596958852709,2586.2400988527093,2658.5157288527093,2586.2400988527093,2658.5157288527093,2586.2400988527093,2658.5157288527093,2539.4840288527093,2656.386798852709,2517.763448852709,2636.921448852709,2493.9521088527094,2615.5824088527092,2456.651048852709,2540.300648852709,2504.977358852709,2488.6027288527093,2541.6308288527093,2449.3920288527092,2623.177708852709,2460.1891888527093,2628.0080088527093,2521.846578852709,2631.831388852709,2570.650868852709,2598.7580088527093,2590.604068852709,2570.6126488527093,2589.186678852709,2531.117818852709,2587.197728852709,2527.708188852709,2538.0422988527093,2561.236178852709,2531.223038852709z" id="path3393" style="fill:#a40000;stroke:none"></path>
    <path d="M2521.9970788527094,2297.111178852709C2521.9970788527094,2297.111178852709,2520.1064688527094,2302.7028188527092,2525.1172388527093,2306.707848852709,2522.844098852709,2308.531128852709,2522.1850988527094,2310.3222288527095,2524.2097788527094,2310.971648852709,2527.022578852709,2312.1771088527094,2525.629128852709,2308.949478852709,2537.324408852709,2307.1926588527094,2553.1960788527094,2304.808468852709,2558.190928852709,2321.6163388527093,2560.3837788527094,2325.3915388527093,2562.4536988527093,2328.9550988527094,2564.078528852709,2329.3387088527093,2564.299508852709,2327.3307488527093,2562.459498852709,2311.682358852709,2555.7204588527093,2303.730688852709,2539.4749588527093,2301.735478852709,2536.5765588527092,2301.3795088527095,2533.843738852709,2297.9191888527093,2533.843738852709,2297.9191888527093,2533.843738852709,2297.9191888527093,2532.845538852709,2300.422458852709,2534.452858852709,2302.4316088527094,2531.6400588527094,2301.9293188527095,2529.8292488527095,2300.5290488527094,2528.5233088527093,2298.118078852709,2528.0210188527094,2300.227668852709,2528.2272988527093,2301.837578852709,2529.2318688527093,2304.0476288527093,2524.9430788527093,2303.1146288527093,2521.9970788527094,2297.111178852709,2521.9970788527094,2297.111178852709zM2615.601948852709,2307.876358852709C2615.007708852709,2307.888358852709,2614.410538852709,2307.935258852709,2613.7994588527094,2308.0379588527094,2602.8815688527093,2309.874338852709,2598.173788852709,2319.263088852709,2598.173788852709,2327.218878852709,2602.009618852709,2327.645078852709,2599.9942188527093,2322.311788852709,2604.1406388527093,2316.839058852709,2609.179168852709,2310.188858852709,2619.375348852709,2310.858388852709,2624.452768852709,2314.290708852709,2627.5179388527094,2316.3627588527092,2629.838818852709,2318.802408852709,2631.277348852709,2321.3141888527093,2632.191028852709,2322.9095188527094,2634.7304488527093,2322.0146088527094,2634.186188852709,2320.2824188527093,2636.024338852709,2318.982258852709,2638.5967088527095,2317.2961888527093,2638.835348852709,2314.7506588527094,2635.9229688527093,2315.7806488527094,2633.8984988527095,2316.2032988527094,2632.1226488527095,2315.9191688527094,2635.3546888527094,2315.492968852709,2636.8552888527092,2312.788348852709,2636.7842488527094,2310.586298852709,2634.3690988527096,2312.788348852709,2631.7053288527095,2312.4704688527095,2629.325698852709,2311.6180688527093,2631.385678852709,2311.5470688527093,2632.3712688527094,2310.0570988527093,2632.8685088527095,2307.9260788527095,2626.4153588527092,2311.326418852709,2621.3462588527095,2307.7598588527094,2615.6019488527095,2307.8763788527094z" id="path3395" style="fill:#2e3436;stroke:none"></path>
    <path d="M2585.6848488527094,2297.312778852709C2585.6848488527094,2297.312778852709,2579.548448852709,2274.370218852709,2554.3422488527094,2270.390288852709,2500.899088852709,2261.951908852709,2478.1167888527093,2353.7814088527093,2575.237318852709,2359.997988852709,2666.790378852709,2365.858208852709,2660.0021188527094,2283.8652188527094,2626.6713288527094,2280.8378188527095,2593.817468852709,2277.8537588527092,2585.6848488527094,2297.312778852709,2585.6848488527094,2297.312778852709z" id="path3262" style="opacity:0.6;fill:#2e3436;stroke:none"></path>
    <path d="M2553.0362988527095,2381.1944288527093C2553.0362988527095,2381.1944288527093,2554.4598388527093,2398.5712788527094,2565.593428852709,2400.4821888527094,2575.0529188527094,2402.105758852709,2582.9619788527093,2398.1036688527092,2583.6757088527092,2387.1213988527093,2584.1558288527094,2379.7337988527092,2553.0362988527095,2381.1944288527093,2553.0362988527095,2381.1944288527093z" id="path3410" style="fill:#ef2929;stroke:none"></path>
    <path d="M2552.7349288527093,2380.893058852709C2552.7349288527093,2380.893058852709,2561.6756188527092,2373.6601488527094,2566.497558852709,2372.4546688527093,2571.319488852709,2371.249178852709,2571.0181188527094,2376.573398852709,2572.022688852709,2379.7880288527094,2573.027258852709,2383.0026588527094,2573.529548852709,2381.7971788527093,2579.657428852709,2375.9706688527094,2582.540218852709,2373.229648852709,2585.4839388527093,2376.001768852709,2586.5889588527093,2380.692148852709,2587.2339788527092,2383.4299888527094,2587.995358852709,2386.317738852709,2587.995358852709,2386.317738852709,2587.995358852709,2386.317738852709,2572.6254288527093,2390.536938852709,2552.7349288527093,2380.893058852709z" id="path3408" style="fill:#cc0000;stroke:none"></path>
    <path d="M2588.0958188527093,2386.317738852709C2581.2647388527093,2387.1213988527093,2567.100288852709,2389.9341988527094,2545.6024788527093,2377.176148852709" id="path3412" style="fill:none;stroke:#a40000;stroke-width:2.38673782;stroke-linecap:round;stroke-linejoin:miter;stroke-miterlimit:4;stroke-opacity:1;stroke-dasharray:none"></path>
    <path d="M2637.952748852709,2526.108608852709C2634.685198852709,2518.294878852709,2638.6630988527095,2504.2301788527093,2639.5154988527092,2500.1102188527093" id="path3383" style="fill:none;stroke:#3465a4;stroke-width:1.98894835;stroke-linecap:round;stroke-linejoin:miter;stroke-miterlimit:4;stroke-opacity:1;stroke-dasharray:none"></path>
  </g></g></g></svg>
